G04*
G04 #@! TF.GenerationSoftware,Altium Limited,Altium Designer,21.5.1 (32)*
G04*
G04 Layer_Color=16711935*
%FSLAX43Y43*%
%MOMM*%
G71*
G04*
G04 #@! TF.SameCoordinates,33522A81-C26F-4337-840D-2BD66AE4F990*
G04*
G04*
G04 #@! TF.FilePolarity,Negative*
G04*
G01*
G75*
%ADD26C,5.400*%
%ADD31R,3.700X3.700*%
%ADD32C,3.700*%
%ADD33R,2.000X2.000*%
%ADD34C,2.000*%
%ADD35C,1.500*%
%ADD36R,1.500X1.500*%
G04:AMPARAMS|DCode=37|XSize=6.6mm|YSize=2.6mm|CornerRadius=1.3mm|HoleSize=0mm|Usage=FLASHONLY|Rotation=180.000|XOffset=0mm|YOffset=0mm|HoleType=Round|Shape=RoundedRectangle|*
%AMROUNDEDRECTD37*
21,1,6.600,0.000,0,0,180.0*
21,1,4.000,2.600,0,0,180.0*
1,1,2.600,-2.000,0.000*
1,1,2.600,2.000,0.000*
1,1,2.600,2.000,0.000*
1,1,2.600,-2.000,0.000*
%
%ADD37ROUNDEDRECTD37*%
%ADD38R,2.003X2.003*%
%ADD39C,2.003*%
%ADD40C,1.450*%
%ADD41R,1.450X1.450*%
%ADD42R,2.003X2.003*%
%ADD43C,1.853*%
%ADD44R,1.853X1.853*%
%ADD45C,4.521*%
%ADD46C,0.711*%
%ADD47C,1.473*%
%ADD48C,2.184*%
%ADD49C,5.283*%
D26*
X121074Y101983D02*
D03*
X110725D02*
D03*
D31*
X129032Y73660D02*
D03*
X127000Y37084D02*
D03*
D32*
X154432Y73660D02*
D03*
X152400Y37084D02*
D03*
D33*
X144282Y77355D02*
D03*
X142250Y40779D02*
D03*
D34*
X141732Y77355D02*
D03*
X139182D02*
D03*
X137150Y40779D02*
D03*
X139700D02*
D03*
D35*
X115824Y123382D02*
D03*
X113914D02*
D03*
D36*
X117734D02*
D03*
D37*
X120824Y101983D02*
D03*
X110824D02*
D03*
D38*
X38176Y116688D02*
D03*
X38100Y97790D02*
D03*
D39*
X38176Y110338D02*
D03*
X46482Y13716D02*
D03*
X38100Y91440D02*
D03*
X99187Y13716D02*
D03*
D40*
X75930Y34011D02*
D03*
X55737D02*
D03*
X35544D02*
D03*
X149860Y55372D02*
D03*
X151130Y56642D02*
D03*
X152400Y55372D02*
D03*
X155702Y89154D02*
D03*
X156972Y90424D02*
D03*
X158242Y89154D02*
D03*
X55737Y55601D02*
D03*
X95996D02*
D03*
X96123Y77191D02*
D03*
X75930D02*
D03*
X55737D02*
D03*
X35544D02*
D03*
Y55601D02*
D03*
X75930D02*
D03*
X96123Y34011D02*
D03*
D41*
X83430D02*
D03*
X63237D02*
D03*
X43044D02*
D03*
X63237Y55601D02*
D03*
X103496D02*
D03*
X103623Y77191D02*
D03*
X83430D02*
D03*
X63237D02*
D03*
X43044D02*
D03*
Y55601D02*
D03*
X83430D02*
D03*
X103623Y34011D02*
D03*
D42*
X40132Y13716D02*
D03*
X92837D02*
D03*
D43*
X161544Y5080D02*
D03*
Y7620D02*
D03*
X164084Y5080D02*
D03*
Y7620D02*
D03*
X171704Y5080D02*
D03*
Y7620D02*
D03*
X174244Y5080D02*
D03*
X169164Y7620D02*
D03*
Y5080D02*
D03*
X166624Y7620D02*
D03*
Y5080D02*
D03*
X159004Y7620D02*
D03*
X156464D02*
D03*
X159004Y5080D02*
D03*
X156464D02*
D03*
D44*
X174244Y7620D02*
D03*
D45*
X201168Y7112D02*
D03*
X29464Y123444D02*
D03*
X29972Y6604D02*
D03*
X201168Y123444D02*
D03*
D46*
X167513Y27432D02*
D03*
X168148Y29464D02*
D03*
X173997Y39127D02*
D03*
X194056Y80772D02*
D03*
X204216Y52832D02*
D03*
Y49784D02*
D03*
Y52832D02*
D03*
X203708Y62484D02*
D03*
X199136Y73660D02*
D03*
X189992Y86360D02*
D03*
X195580Y46228D02*
D03*
Y52832D02*
D03*
X170688Y39624D02*
D03*
X159512Y32512D02*
D03*
X157480Y27432D02*
D03*
X186563Y52705D02*
D03*
X188468Y43180D02*
D03*
X160916Y20828D02*
D03*
X157480Y17392D02*
D03*
X164846Y30988D02*
D03*
X199644Y91440D02*
D03*
X187960Y95504D02*
D03*
X194564Y86360D02*
D03*
X162560Y10668D02*
D03*
X164084D02*
D03*
X159512Y58928D02*
D03*
X199714Y69834D02*
D03*
X151384Y76832D02*
D03*
X151384Y78232D02*
D03*
X173736Y60452D02*
D03*
X174244Y54864D02*
D03*
D47*
X142748Y4064D02*
D03*
D48*
X137193Y43810D02*
D03*
X141706Y71710D02*
D03*
X141732Y82296D02*
D03*
D49*
X60960Y108966D02*
D03*
M02*
