G04*
G04 #@! TF.GenerationSoftware,Altium Limited,Altium Designer,21.5.1 (32)*
G04*
G04 Layer_Color=65535*
%FSLAX43Y43*%
%MOMM*%
G71*
G04*
G04 #@! TF.SameCoordinates,33522A81-C26F-4337-840D-2BD66AE4F990*
G04*
G04*
G04 #@! TF.FilePolarity,Positive*
G04*
G01*
G75*
%ADD10C,0.250*%
%ADD11C,0.150*%
%ADD12C,0.600*%
%ADD13C,0.200*%
%ADD14C,0.152*%
%ADD15C,0.254*%
D10*
X167849Y59016D02*
G03*
X167849Y59016I-125J0D01*
G01*
X144382Y79633D02*
G03*
X144382Y79633I-125J0D01*
G01*
X117849Y124707D02*
G03*
X117849Y124707I-125J0D01*
G01*
X142350Y43057D02*
G03*
X142350Y43057I-125J0D01*
G01*
X29751Y116688D02*
G03*
X29751Y116688I-125J0D01*
G01*
X40257Y5166D02*
G03*
X40257Y5166I-125J0D01*
G01*
X185040Y57189D02*
G03*
X185040Y57189I-125J0D01*
G01*
X29675Y97790D02*
G03*
X29675Y97790I-125J0D01*
G01*
X92962Y5166D02*
G03*
X92962Y5166I-125J0D01*
G01*
X191120Y91694D02*
G03*
X191120Y91694I-125J0D01*
G01*
X193619Y49315D02*
G03*
X193619Y49315I-125J0D01*
G01*
D11*
X88930Y34011D02*
G03*
X88930Y34011I-9250J0D01*
G01*
X68737D02*
G03*
X68737Y34011I-9250J0D01*
G01*
X48544D02*
G03*
X48544Y34011I-9250J0D01*
G01*
X68737Y55601D02*
G03*
X68737Y55601I-9250J0D01*
G01*
X108996D02*
G03*
X108996Y55601I-9250J0D01*
G01*
X109123Y77191D02*
G03*
X109123Y77191I-9250J0D01*
G01*
X88930D02*
G03*
X88930Y77191I-9250J0D01*
G01*
X68737D02*
G03*
X68737Y77191I-9250J0D01*
G01*
X48544D02*
G03*
X48544Y77191I-9250J0D01*
G01*
Y55601D02*
G03*
X48544Y55601I-9250J0D01*
G01*
X88930D02*
G03*
X88930Y55601I-9250J0D01*
G01*
X109123Y34011D02*
G03*
X109123Y34011I-9250J0D01*
G01*
D12*
X182765Y58334D02*
G03*
X182765Y58334I-300J0D01*
G01*
X191629Y50570D02*
G03*
X191629Y50570I-300J0D01*
G01*
D13*
X153136Y56758D02*
G03*
X149124Y56758I-2006J-1341D01*
G01*
X158978Y90540D02*
G03*
X154966Y90540I-2006J-1341D01*
G01*
X167354Y55069D02*
Y56216D01*
X160814D02*
X167354D01*
X160814Y55069D02*
Y56216D01*
X120732Y61160D02*
X162732D01*
X120732Y86160D02*
X162732D01*
Y61160D02*
Y86160D01*
X120732Y61160D02*
Y86160D01*
X146932Y74408D02*
Y79008D01*
X136532Y74408D02*
X146932D01*
X136532D02*
Y79008D01*
X146932D01*
X110774Y107242D02*
X120874D01*
Y120342D01*
X110774D02*
X120874D01*
X110774Y107242D02*
Y120342D01*
X134500Y42432D02*
X144900D01*
X134500Y37832D02*
X144900D01*
X134500D02*
Y42432D01*
X160700Y24584D02*
Y49584D01*
X144900Y37832D02*
Y42432D01*
X118700Y49584D02*
X160700D01*
X118700Y24584D02*
X160700D01*
X118700D02*
Y49584D01*
X42776Y107163D02*
Y119862D01*
X30276Y119863D02*
X42776D01*
X30276Y107163D02*
X42776D01*
X30276D02*
Y119863D01*
X86555Y27911D02*
Y40111D01*
X66362Y27911D02*
Y40111D01*
X46169Y27911D02*
Y40111D01*
X49657Y5816D02*
Y18316D01*
X36957D02*
X49657D01*
X36957Y5816D02*
X49657D01*
X36957D02*
Y18316D01*
X169888Y51242D02*
X173488D01*
X169888Y49342D02*
Y51242D01*
X173488Y49342D02*
Y51242D01*
X169888Y49342D02*
X173488D01*
X166690Y43964D02*
X168590D01*
X166690Y40364D02*
Y43964D01*
X168590Y40364D02*
Y43964D01*
X166690Y40364D02*
X168590D01*
X162626Y42512D02*
X164526D01*
Y46112D01*
X162626Y42512D02*
Y46112D01*
X164526D01*
X169904Y55814D02*
X173504D01*
X169904Y53914D02*
Y55814D01*
X173504Y53914D02*
Y55814D01*
X169904Y53914D02*
X173504D01*
X169412Y63058D02*
X173012D01*
Y64958D01*
X169412Y63058D02*
Y64958D01*
X173012D01*
X183465Y57334D02*
Y67634D01*
X177215Y57334D02*
Y67634D01*
Y57334D02*
X183465D01*
X177215Y67634D02*
X183465D01*
X188700Y72070D02*
X192300D01*
Y70170D02*
Y72070D01*
X188700Y70170D02*
Y72070D01*
Y70170D02*
X192300D01*
X188700Y66990D02*
X192300D01*
Y65090D02*
Y66990D01*
X188700Y65090D02*
Y66990D01*
Y65090D02*
X192300D01*
X136972Y7090D02*
X138872D01*
Y10690D01*
X136972Y7090D02*
Y10690D01*
X138872D01*
X146878Y16532D02*
X148778D01*
X146878Y12932D02*
Y16532D01*
X148778Y12932D02*
Y16532D01*
X146878Y12932D02*
X148778D01*
X141544Y10690D02*
X143444D01*
X141544Y7090D02*
Y10690D01*
X143444Y7090D02*
Y10690D01*
X141544Y7090D02*
X143444D01*
X146878Y10690D02*
X148778D01*
X146878Y7090D02*
Y10690D01*
X148778Y7090D02*
Y10690D01*
X146878Y7090D02*
X148778D01*
X196154Y54240D02*
X198054D01*
X196154Y50640D02*
Y54240D01*
X198054Y50640D02*
Y54240D01*
X196154Y50640D02*
X198054D01*
X206060Y50640D02*
X207960D01*
Y54240D01*
X206060Y50640D02*
Y54240D01*
X207960D01*
X205552Y63014D02*
X207452D01*
X205552Y59414D02*
Y63014D01*
X207452Y59414D02*
Y63014D01*
X205552Y59414D02*
X207452D01*
X196662Y44174D02*
X198562D01*
Y47774D01*
X196662Y44174D02*
Y47774D01*
X198562D01*
X169738Y77984D02*
X171638D01*
X169738Y74384D02*
Y77984D01*
X171638Y74384D02*
Y77984D01*
X169738Y74384D02*
X171638D01*
X165674Y74400D02*
X167574D01*
Y78000D01*
X165674Y74400D02*
Y78000D01*
X167574D01*
X205524Y46294D02*
Y48194D01*
X201924D02*
X205524D01*
X201924Y46294D02*
X205524D01*
X201924D02*
Y48194D01*
X183200Y89132D02*
X185100D01*
Y92732D01*
X183200Y89132D02*
Y92732D01*
X185100D01*
X202250Y89386D02*
X204150D01*
Y92986D01*
X202250Y89386D02*
Y92986D01*
X204150D01*
X186756Y89132D02*
X188656D01*
Y92732D01*
X186756Y89132D02*
Y92732D01*
X188656D01*
X167198Y92672D02*
X169098D01*
Y96272D01*
X167198Y92672D02*
Y96272D01*
X169098D01*
X200726Y67034D02*
X202626D01*
Y70634D01*
X200726Y67034D02*
Y70634D01*
X202626D01*
X149320Y53530D02*
X152940D01*
X155162Y87312D02*
X158782D01*
X187684Y46670D02*
X191284D01*
Y44770D02*
Y46670D01*
X187684Y44770D02*
Y46670D01*
Y44770D02*
X191284D01*
X30200Y88265D02*
Y100965D01*
Y88265D02*
X42700D01*
Y100965D01*
X30200Y100965D02*
X42700D01*
X89662Y5816D02*
X102362D01*
Y18316D01*
X89662D02*
X102362D01*
X89662Y5816D02*
Y18316D01*
X201234Y50540D02*
Y54140D01*
X203134D01*
X201234Y50540D02*
X203134D01*
Y54140D01*
X200726Y60684D02*
Y64284D01*
X202626D01*
X200726Y60684D02*
X202626D01*
Y64284D01*
X136972Y12932D02*
Y16532D01*
X138872D01*
X136972Y12932D02*
X138872D01*
Y16532D01*
X141798Y12932D02*
Y16532D01*
X143698D01*
X141798Y12932D02*
X143698D01*
Y16532D01*
X169396Y66106D02*
X172996D01*
X169396D02*
Y68006D01*
X172996Y66106D02*
Y68006D01*
X169396D02*
X172996D01*
X167198Y85592D02*
Y89192D01*
X169098D01*
X167198Y85592D02*
X169098D01*
Y89192D01*
X188446Y74742D02*
X192046D01*
X188446D02*
Y76642D01*
X192046Y74742D02*
Y76642D01*
X188446D02*
X192046D01*
X193969Y92239D02*
X195727D01*
Y87339D02*
Y92239D01*
X193969Y87339D02*
X195727D01*
X193969D02*
Y92239D01*
X192334Y49620D02*
Y54520D01*
X189174Y49620D02*
Y54520D01*
Y49620D02*
X192334D01*
X189174Y54520D02*
X192334D01*
X66362Y49501D02*
Y61701D01*
X106621Y49501D02*
Y61701D01*
X106748Y71091D02*
Y83291D01*
X86555Y71091D02*
Y83291D01*
X66362Y71091D02*
Y83291D01*
X46169Y71091D02*
Y83291D01*
Y49501D02*
Y61701D01*
X86555Y49501D02*
Y61701D01*
X106748Y27911D02*
Y40111D01*
X175664Y3735D02*
Y8965D01*
X155044D02*
X175664D01*
X155044Y3735D02*
X175664D01*
X155044D02*
Y8965D01*
D14*
X152908Y4572D02*
X153247D01*
X153077D01*
Y5588D01*
X152908Y5418D01*
X154432Y5588D02*
X154093Y5418D01*
X153754Y5080D01*
Y4741D01*
X153924Y4572D01*
X154262D01*
X154432Y4741D01*
Y4911D01*
X154262Y5080D01*
X153754D01*
X152908Y7620D02*
X153247D01*
X153077D01*
Y8636D01*
X152908Y8466D01*
X154432Y8636D02*
X153754D01*
Y8128D01*
X154093Y8297D01*
X154262D01*
X154432Y8128D01*
Y7789D01*
X154262Y7620D01*
X153924D01*
X153754Y7789D01*
X176276Y7620D02*
X176615D01*
X176445D01*
Y8636D01*
X176276Y8466D01*
X176445Y4064D02*
X175768D01*
X176445Y4741D01*
Y4910D01*
X176276Y5080D01*
X175937D01*
X175768Y4910D01*
D15*
X33021Y122089D02*
X32683D01*
X32852D01*
Y121243D01*
X32683Y121073D01*
X32514D01*
X32344Y121243D01*
X33360Y120904D02*
X34037D01*
X34376Y122089D02*
X34714D01*
X34545D01*
Y121073D01*
X34376D01*
X34714D01*
X35222D02*
Y121751D01*
X35730D01*
X35899Y121581D01*
Y121073D01*
X36238Y120735D02*
Y121751D01*
X36746D01*
X36915Y121581D01*
Y121243D01*
X36746Y121073D01*
X36238D01*
X37253Y121751D02*
Y121243D01*
X37423Y121073D01*
X37931D01*
Y121751D01*
X38438Y121920D02*
Y121751D01*
X38269D01*
X38608D01*
X38438D01*
Y121243D01*
X38608Y121073D01*
X39116Y120904D02*
X39793D01*
X40131Y121073D02*
Y122089D01*
X40639D01*
X40808Y121920D01*
Y121581D01*
X40639Y121412D01*
X40131D01*
X41147Y122089D02*
Y121073D01*
X41485Y121412D01*
X41824Y121073D01*
Y122089D01*
X42163Y121073D02*
Y122089D01*
X42670D01*
X42840Y121920D01*
Y121581D01*
X42670Y121412D01*
X42163D01*
X42501D02*
X42840Y121073D01*
X30243Y103784D02*
X29904D01*
X30073D01*
Y102938D01*
X29904Y102768D01*
X29735D01*
X29566Y102938D01*
X30581Y102599D02*
X31258D01*
X31597Y103784D02*
X31935D01*
X31766D01*
Y102768D01*
X31597D01*
X31935D01*
X32443D02*
Y103446D01*
X32951D01*
X33120Y103276D01*
Y102768D01*
X33459Y102430D02*
Y103446D01*
X33967D01*
X34136Y103276D01*
Y102938D01*
X33967Y102768D01*
X33459D01*
X34475Y103446D02*
Y102938D01*
X34644Y102768D01*
X35152D01*
Y103446D01*
X35660Y103615D02*
Y103446D01*
X35490D01*
X35829D01*
X35660D01*
Y102938D01*
X35829Y102768D01*
X36337Y102599D02*
X37014D01*
X38030Y103615D02*
X37860Y103784D01*
X37522D01*
X37352Y103615D01*
Y102938D01*
X37522Y102768D01*
X37860D01*
X38030Y102938D01*
Y103276D01*
X37691D01*
X38368Y102768D02*
Y103784D01*
X39045Y102768D01*
Y103784D01*
X39384D02*
Y102768D01*
X39892D01*
X40061Y102938D01*
Y103615D01*
X39892Y103784D01*
X39384D01*
X89907Y20396D02*
X89569D01*
X89738D01*
Y19549D01*
X89569Y19380D01*
X89399D01*
X89230Y19549D01*
X90246Y19211D02*
X90923D01*
X91262Y19380D02*
Y20057D01*
X91600Y20396D01*
X91939Y20057D01*
Y19380D01*
Y19888D01*
X91262D01*
X92954Y20057D02*
X92447D01*
X92277Y19888D01*
Y19549D01*
X92447Y19380D01*
X92954D01*
X93970Y20057D02*
X93462D01*
X93293Y19888D01*
Y19549D01*
X93462Y19380D01*
X93970D01*
X94309Y20057D02*
Y19549D01*
X94478Y19380D01*
X94986D01*
Y20057D01*
X95324Y19211D02*
X96001D01*
X96848Y20396D02*
X96509D01*
X96340Y20227D01*
Y19549D01*
X96509Y19380D01*
X96848D01*
X97017Y19549D01*
Y20227D01*
X96848Y20396D01*
X97356Y20057D02*
Y19549D01*
X97525Y19380D01*
X98033D01*
Y20057D01*
X98541Y20227D02*
Y20057D01*
X98371D01*
X98710D01*
X98541D01*
Y19549D01*
X98710Y19380D01*
X37202Y20396D02*
X36864D01*
X37033D01*
Y19549D01*
X36864Y19380D01*
X36694D01*
X36525Y19549D01*
X37541Y19211D02*
X38218D01*
X38557Y19380D02*
Y20057D01*
X38895Y20396D01*
X39234Y20057D01*
Y19380D01*
Y19888D01*
X38557D01*
X40249Y20057D02*
X39742D01*
X39572Y19888D01*
Y19549D01*
X39742Y19380D01*
X40249D01*
X41265Y20057D02*
X40757D01*
X40588Y19888D01*
Y19549D01*
X40757Y19380D01*
X41265D01*
X41604Y20057D02*
Y19549D01*
X41773Y19380D01*
X42281D01*
Y20057D01*
X42619Y19211D02*
X43296D01*
X44312Y20227D02*
X44143Y20396D01*
X43804D01*
X43635Y20227D01*
Y19549D01*
X43804Y19380D01*
X44143D01*
X44312Y19549D01*
Y19888D01*
X43973D01*
X44651Y19380D02*
Y20396D01*
X45328Y19380D01*
Y20396D01*
X45666D02*
Y19380D01*
X46174D01*
X46343Y19549D01*
Y20227D01*
X46174Y20396D01*
X45666D01*
X107950Y123444D02*
Y122597D01*
X108120Y122428D01*
X108458D01*
X108628Y122597D01*
Y123444D01*
X108966Y122428D02*
X109305D01*
X109135D01*
Y123444D01*
X108966Y123275D01*
X109812Y122597D02*
X109982Y122428D01*
X110320D01*
X110490Y122597D01*
Y123275D01*
X110320Y123444D01*
X109982D01*
X109812Y123275D01*
Y123105D01*
X109982Y122936D01*
X110490D01*
X187376Y56413D02*
Y55567D01*
X187545Y55397D01*
X187884D01*
X188053Y55567D01*
Y56413D01*
X189069Y55397D02*
X188391D01*
X189069Y56075D01*
Y56244D01*
X188899Y56413D01*
X188561D01*
X188391Y56244D01*
X189407Y55397D02*
X189746D01*
X189576D01*
Y56413D01*
X189407Y56244D01*
X174701Y69697D02*
Y68851D01*
X174870Y68682D01*
X175209D01*
X175378Y68851D01*
Y69697D01*
X175717Y68682D02*
X176055D01*
X175886D01*
Y69697D01*
X175717Y69528D01*
X176563Y69697D02*
X177240D01*
Y69528D01*
X176563Y68851D01*
Y68682D01*
X191008Y94208D02*
Y93362D01*
X191177Y93193D01*
X191516D01*
X191685Y93362D01*
Y94208D01*
X192024Y93193D02*
X192362D01*
X192193D01*
Y94208D01*
X192024Y94039D01*
X192870D02*
X193039Y94208D01*
X193378D01*
X193547Y94039D01*
Y93362D01*
X193378Y93193D01*
X193039D01*
X192870Y93362D01*
Y94039D01*
X159682Y91948D02*
Y91101D01*
X159851Y90932D01*
X160189D01*
X160359Y91101D01*
Y91948D01*
X160697Y91779D02*
X160867Y91948D01*
X161205D01*
X161374Y91779D01*
Y91609D01*
X161205Y91440D01*
X161036D01*
X161205D01*
X161374Y91271D01*
Y91101D01*
X161205Y90932D01*
X160867D01*
X160697Y91101D01*
X148590Y59740D02*
Y58894D01*
X148759Y58725D01*
X149098D01*
X149267Y58894D01*
Y59740D01*
X150283Y58725D02*
X149606D01*
X150283Y59402D01*
Y59571D01*
X150114Y59740D01*
X149775D01*
X149606Y59571D01*
X136822Y5588D02*
Y6604D01*
X137330D01*
X137499Y6435D01*
Y6096D01*
X137330Y5927D01*
X136822D01*
X137160D02*
X137499Y5588D01*
X137837Y6435D02*
X138007Y6604D01*
X138345D01*
X138515Y6435D01*
Y6265D01*
X138345Y6096D01*
X138515Y5927D01*
Y5757D01*
X138345Y5588D01*
X138007D01*
X137837Y5757D01*
Y5927D01*
X138007Y6096D01*
X137837Y6265D01*
Y6435D01*
X138007Y6096D02*
X138345D01*
X139530Y6604D02*
X138853D01*
Y6096D01*
X139192Y6265D01*
X139361D01*
X139530Y6096D01*
Y5757D01*
X139361Y5588D01*
X139022D01*
X138853Y5757D01*
X147041Y17399D02*
Y18415D01*
X147548D01*
X147718Y18245D01*
Y17907D01*
X147548Y17738D01*
X147041D01*
X147379D02*
X147718Y17399D01*
X148056Y18245D02*
X148226Y18415D01*
X148564D01*
X148733Y18245D01*
Y18076D01*
X148564Y17907D01*
X148733Y17738D01*
Y17568D01*
X148564Y17399D01*
X148226D01*
X148056Y17568D01*
Y17738D01*
X148226Y17907D01*
X148056Y18076D01*
Y18245D01*
X148226Y17907D02*
X148564D01*
X149580Y17399D02*
Y18415D01*
X149072Y17907D01*
X149749D01*
X141707Y11557D02*
Y12573D01*
X142214D01*
X142384Y12403D01*
Y12065D01*
X142214Y11896D01*
X141707D01*
X142045D02*
X142384Y11557D01*
X142722Y12403D02*
X142892Y12573D01*
X143230D01*
X143399Y12403D01*
Y12234D01*
X143230Y12065D01*
X143399Y11896D01*
Y11726D01*
X143230Y11557D01*
X142892D01*
X142722Y11726D01*
Y11896D01*
X142892Y12065D01*
X142722Y12234D01*
Y12403D01*
X142892Y12065D02*
X143230D01*
X143738Y12403D02*
X143907Y12573D01*
X144246D01*
X144415Y12403D01*
Y12234D01*
X144246Y12065D01*
X144077D01*
X144246D01*
X144415Y11896D01*
Y11726D01*
X144246Y11557D01*
X143907D01*
X143738Y11726D01*
X147041Y11557D02*
Y12573D01*
X147548D01*
X147718Y12403D01*
Y12065D01*
X147548Y11896D01*
X147041D01*
X147379D02*
X147718Y11557D01*
X148056Y12403D02*
X148226Y12573D01*
X148564D01*
X148733Y12403D01*
Y12234D01*
X148564Y12065D01*
X148733Y11896D01*
Y11726D01*
X148564Y11557D01*
X148226D01*
X148056Y11726D01*
Y11896D01*
X148226Y12065D01*
X148056Y12234D01*
Y12403D01*
X148226Y12065D02*
X148564D01*
X149749Y11557D02*
X149072D01*
X149749Y12234D01*
Y12403D01*
X149580Y12573D01*
X149241D01*
X149072Y12403D01*
X196317Y55093D02*
Y56108D01*
X196824D01*
X196994Y55939D01*
Y55600D01*
X196824Y55431D01*
X196317D01*
X196655D02*
X196994Y55093D01*
X197332Y55939D02*
X197502Y56108D01*
X197840D01*
X198009Y55939D01*
Y55770D01*
X197840Y55600D01*
X198009Y55431D01*
Y55262D01*
X197840Y55093D01*
X197502D01*
X197332Y55262D01*
Y55431D01*
X197502Y55600D01*
X197332Y55770D01*
Y55939D01*
X197502Y55600D02*
X197840D01*
X198348Y55093D02*
X198686D01*
X198517D01*
Y56108D01*
X198348Y55939D01*
X206223Y55093D02*
Y56108D01*
X206730D01*
X206900Y55939D01*
Y55600D01*
X206730Y55431D01*
X206223D01*
X206561D02*
X206900Y55093D01*
X207238Y55939D02*
X207408Y56108D01*
X207746D01*
X207915Y55939D01*
Y55770D01*
X207746Y55600D01*
X207915Y55431D01*
Y55262D01*
X207746Y55093D01*
X207408D01*
X207238Y55262D01*
Y55431D01*
X207408Y55600D01*
X207238Y55770D01*
Y55939D01*
X207408Y55600D02*
X207746D01*
X208254Y55939D02*
X208423Y56108D01*
X208762D01*
X208931Y55939D01*
Y55262D01*
X208762Y55093D01*
X208423D01*
X208254Y55262D01*
Y55939D01*
X205715Y63881D02*
Y64897D01*
X206222D01*
X206392Y64727D01*
Y64389D01*
X206222Y64220D01*
X205715D01*
X206053D02*
X206392Y63881D01*
X206730Y64897D02*
X207407D01*
Y64727D01*
X206730Y64050D01*
Y63881D01*
X207746Y64050D02*
X207915Y63881D01*
X208254D01*
X208423Y64050D01*
Y64727D01*
X208254Y64897D01*
X207915D01*
X207746Y64727D01*
Y64558D01*
X207915Y64389D01*
X208423D01*
X196825Y48641D02*
Y49657D01*
X197332D01*
X197502Y49487D01*
Y49149D01*
X197332Y48980D01*
X196825D01*
X197163D02*
X197502Y48641D01*
X197840Y49657D02*
X198517D01*
Y49487D01*
X197840Y48810D01*
Y48641D01*
X198856Y49487D02*
X199025Y49657D01*
X199364D01*
X199533Y49487D01*
Y49318D01*
X199364Y49149D01*
X199533Y48980D01*
Y48810D01*
X199364Y48641D01*
X199025D01*
X198856Y48810D01*
Y48980D01*
X199025Y49149D01*
X198856Y49318D01*
Y49487D01*
X199025Y49149D02*
X199364D01*
X170011Y79232D02*
Y80248D01*
X170519D01*
X170688Y80079D01*
Y79740D01*
X170519Y79571D01*
X170011D01*
X170350D02*
X170688Y79232D01*
X171027Y80248D02*
X171704D01*
Y80079D01*
X171027Y79401D01*
Y79232D01*
X172042D02*
X172381D01*
X172212D01*
Y80248D01*
X172042Y80079D01*
X166794Y45212D02*
Y46228D01*
X167302D01*
X167471Y46059D01*
Y45720D01*
X167302Y45551D01*
X166794D01*
X167132D02*
X167471Y45212D01*
X167809Y46228D02*
X168487D01*
Y46059D01*
X167809Y45381D01*
Y45212D01*
X168825Y46059D02*
X168994Y46228D01*
X169333D01*
X169502Y46059D01*
Y45381D01*
X169333Y45212D01*
X168994D01*
X168825Y45381D01*
Y46059D01*
X166201Y79248D02*
Y80264D01*
X166709D01*
X166878Y80095D01*
Y79756D01*
X166709Y79587D01*
X166201D01*
X166540D02*
X166878Y79248D01*
X167894Y80264D02*
X167217D01*
Y79756D01*
X167555Y79925D01*
X167725D01*
X167894Y79756D01*
Y79417D01*
X167725Y79248D01*
X167386D01*
X167217Y79417D01*
X168232Y79248D02*
X168571D01*
X168402D01*
Y80264D01*
X168232Y80095D01*
X162222Y40640D02*
Y41656D01*
X162730D01*
X162899Y41487D01*
Y41148D01*
X162730Y40979D01*
X162222D01*
X162560D02*
X162899Y40640D01*
X163915Y41656D02*
X163237D01*
Y41148D01*
X163576Y41317D01*
X163745D01*
X163915Y41148D01*
Y40809D01*
X163745Y40640D01*
X163407D01*
X163237Y40809D01*
X164253Y41487D02*
X164422Y41656D01*
X164761D01*
X164930Y41487D01*
Y40809D01*
X164761Y40640D01*
X164422D01*
X164253Y40809D01*
Y41487D01*
X202354Y44704D02*
Y45720D01*
X202862D01*
X203031Y45551D01*
Y45212D01*
X202862Y45043D01*
X202354D01*
X202692D02*
X203031Y44704D01*
X203369Y45551D02*
X203539Y45720D01*
X203877D01*
X204047Y45551D01*
Y45381D01*
X203877Y45212D01*
X203708D01*
X203877D01*
X204047Y45043D01*
Y44873D01*
X203877Y44704D01*
X203539D01*
X203369Y44873D01*
X204385Y45720D02*
X205062D01*
Y45551D01*
X204385Y44873D01*
Y44704D01*
X184066Y94234D02*
Y95250D01*
X184574D01*
X184743Y95081D01*
Y94742D01*
X184574Y94573D01*
X184066D01*
X184404D02*
X184743Y94234D01*
X185081Y95081D02*
X185251Y95250D01*
X185589D01*
X185759Y95081D01*
Y94911D01*
X185589Y94742D01*
X185420D01*
X185589D01*
X185759Y94573D01*
Y94403D01*
X185589Y94234D01*
X185251D01*
X185081Y94403D01*
X186774Y95250D02*
X186436Y95081D01*
X186097Y94742D01*
Y94403D01*
X186266Y94234D01*
X186605D01*
X186774Y94403D01*
Y94573D01*
X186605Y94742D01*
X186097D01*
X202015Y87376D02*
Y88392D01*
X202523D01*
X202692Y88223D01*
Y87884D01*
X202523Y87715D01*
X202015D01*
X202354D02*
X202692Y87376D01*
X203031Y88223D02*
X203200Y88392D01*
X203539D01*
X203708Y88223D01*
Y88053D01*
X203539Y87884D01*
X203369D01*
X203539D01*
X203708Y87715D01*
Y87545D01*
X203539Y87376D01*
X203200D01*
X203031Y87545D01*
X204046Y87376D02*
X204385D01*
X204216D01*
Y88392D01*
X204046Y88223D01*
X186352Y86614D02*
Y87630D01*
X186860D01*
X187029Y87461D01*
Y87122D01*
X186860Y86953D01*
X186352D01*
X186690D02*
X187029Y86614D01*
X187367Y87461D02*
X187537Y87630D01*
X187875D01*
X188045Y87461D01*
Y87291D01*
X187875Y87122D01*
X187706D01*
X187875D01*
X188045Y86953D01*
Y86783D01*
X187875Y86614D01*
X187537D01*
X187367Y86783D01*
X188383Y87461D02*
X188552Y87630D01*
X188891D01*
X189060Y87461D01*
Y86783D01*
X188891Y86614D01*
X188552D01*
X188383Y86783D01*
Y87461D01*
X167361Y97130D02*
Y98145D01*
X167868D01*
X168038Y97976D01*
Y97637D01*
X167868Y97468D01*
X167361D01*
X167699D02*
X168038Y97130D01*
X168376D02*
X168715D01*
X168546D01*
Y98145D01*
X168376Y97976D01*
X169900Y98145D02*
X169561Y97976D01*
X169223Y97637D01*
Y97299D01*
X169392Y97130D01*
X169730D01*
X169900Y97299D01*
Y97468D01*
X169730Y97637D01*
X169223D01*
X200889Y71501D02*
Y72517D01*
X201396D01*
X201566Y72347D01*
Y72009D01*
X201396Y71840D01*
X200889D01*
X201227D02*
X201566Y71501D01*
X201904D02*
X202243D01*
X202074D01*
Y72517D01*
X201904Y72347D01*
X203428Y72517D02*
X202751D01*
Y72009D01*
X203089Y72178D01*
X203258D01*
X203428Y72009D01*
Y71670D01*
X203258Y71501D01*
X202920D01*
X202751Y71670D01*
X162391Y87037D02*
Y87715D01*
X162221Y87884D01*
X161883D01*
X161714Y87715D01*
Y87037D01*
X161883Y86868D01*
X162221D01*
X162052Y87207D02*
X162391Y86868D01*
X162221D02*
X162391Y87037D01*
X162729Y87715D02*
X162899Y87884D01*
X163237D01*
X163406Y87715D01*
Y87545D01*
X163237Y87376D01*
X163068D01*
X163237D01*
X163406Y87207D01*
Y87037D01*
X163237Y86868D01*
X162899D01*
X162729Y87037D01*
X119422Y50715D02*
Y51392D01*
X119253Y51562D01*
X118914D01*
X118745Y51392D01*
Y50715D01*
X118914Y50546D01*
X119253D01*
X119084Y50885D02*
X119422Y50546D01*
X119253D02*
X119422Y50715D01*
X120438Y50546D02*
X119761D01*
X120438Y51223D01*
Y51392D01*
X120269Y51562D01*
X119930D01*
X119761Y51392D01*
X153687Y10972D02*
X153348D01*
X153517D01*
Y10126D01*
X153348Y9957D01*
X153179D01*
X153010Y10126D01*
X154533Y9957D02*
Y10972D01*
X154025Y10465D01*
X154702D01*
X158158Y53848D02*
Y52832D01*
X158665D01*
X158835Y53001D01*
Y53679D01*
X158665Y53848D01*
X158158D01*
X159850D02*
X159173D01*
Y53340D01*
X159512Y53509D01*
X159681D01*
X159850Y53340D01*
Y53001D01*
X159681Y52832D01*
X159343D01*
X159173Y53001D01*
X189272Y78342D02*
X189103Y78511D01*
X188764D01*
X188595Y78342D01*
Y77665D01*
X188764Y77495D01*
X189103D01*
X189272Y77665D01*
X189611Y77495D02*
X189949D01*
X189780D01*
Y78511D01*
X189611Y78342D01*
X190457D02*
X190626Y78511D01*
X190965D01*
X191134Y78342D01*
Y77665D01*
X190965Y77495D01*
X190626D01*
X190457Y77665D01*
Y78342D01*
X191981Y77495D02*
Y78511D01*
X191473Y78003D01*
X192150D01*
X189526Y73770D02*
X189357Y73939D01*
X189018D01*
X188849Y73770D01*
Y73093D01*
X189018Y72923D01*
X189357D01*
X189526Y73093D01*
X189865Y72923D02*
X190203D01*
X190034D01*
Y73939D01*
X189865Y73770D01*
X190711D02*
X190880Y73939D01*
X191219D01*
X191388Y73770D01*
Y73093D01*
X191219Y72923D01*
X190880D01*
X190711Y73093D01*
Y73770D01*
X191727D02*
X191896Y73939D01*
X192235D01*
X192404Y73770D01*
Y73601D01*
X192235Y73431D01*
X192065D01*
X192235D01*
X192404Y73262D01*
Y73093D01*
X192235Y72923D01*
X191896D01*
X191727Y73093D01*
X189526Y68690D02*
X189357Y68859D01*
X189018D01*
X188849Y68690D01*
Y68013D01*
X189018Y67843D01*
X189357D01*
X189526Y68013D01*
X189865Y67843D02*
X190203D01*
X190034D01*
Y68859D01*
X189865Y68690D01*
X190711D02*
X190880Y68859D01*
X191219D01*
X191388Y68690D01*
Y68013D01*
X191219Y67843D01*
X190880D01*
X190711Y68013D01*
Y68690D01*
X192404Y67843D02*
X191727D01*
X192404Y68521D01*
Y68690D01*
X192235Y68859D01*
X191896D01*
X191727Y68690D01*
X137812Y18245D02*
X137642Y18415D01*
X137304D01*
X137135Y18245D01*
Y17568D01*
X137304Y17399D01*
X137642D01*
X137812Y17568D01*
X138150Y18415D02*
X138827D01*
Y18245D01*
X138150Y17568D01*
Y17399D01*
X139166D02*
X139505D01*
X139335D01*
Y18415D01*
X139166Y18245D01*
X142638D02*
X142468Y18415D01*
X142130D01*
X141961Y18245D01*
Y17568D01*
X142130Y17399D01*
X142468D01*
X142638Y17568D01*
X142976Y18415D02*
X143653D01*
Y18245D01*
X142976Y17568D01*
Y17399D01*
X143992Y18245D02*
X144161Y18415D01*
X144500D01*
X144669Y18245D01*
Y17568D01*
X144500Y17399D01*
X144161D01*
X143992Y17568D01*
Y18245D01*
X202074Y55837D02*
X201904Y56007D01*
X201566D01*
X201397Y55837D01*
Y55160D01*
X201566Y54991D01*
X201904D01*
X202074Y55160D01*
X203089Y56007D02*
X202751Y55837D01*
X202412Y55499D01*
Y55160D01*
X202582Y54991D01*
X202920D01*
X203089Y55160D01*
Y55330D01*
X202920Y55499D01*
X202412D01*
X203428Y55160D02*
X203597Y54991D01*
X203936D01*
X204105Y55160D01*
Y55837D01*
X203936Y56007D01*
X203597D01*
X203428Y55837D01*
Y55668D01*
X203597Y55499D01*
X204105D01*
X187029Y48345D02*
X186860Y48514D01*
X186521D01*
X186352Y48345D01*
Y47667D01*
X186521Y47498D01*
X186860D01*
X187029Y47667D01*
X188045Y48514D02*
X187706Y48345D01*
X187367Y48006D01*
Y47667D01*
X187537Y47498D01*
X187875D01*
X188045Y47667D01*
Y47837D01*
X187875Y48006D01*
X187367D01*
X188383Y48345D02*
X188552Y48514D01*
X188891D01*
X189060Y48345D01*
Y48175D01*
X188891Y48006D01*
X189060Y47837D01*
Y47667D01*
X188891Y47498D01*
X188552D01*
X188383Y47667D01*
Y47837D01*
X188552Y48006D01*
X188383Y48175D01*
Y48345D01*
X188552Y48006D02*
X188891D01*
X170688Y48599D02*
X170519Y48768D01*
X170180D01*
X170011Y48599D01*
Y47921D01*
X170180Y47752D01*
X170519D01*
X170688Y47921D01*
X171704Y48768D02*
X171365Y48599D01*
X171027Y48260D01*
Y47921D01*
X171196Y47752D01*
X171535D01*
X171704Y47921D01*
Y48091D01*
X171535Y48260D01*
X171027D01*
X172042Y47752D02*
X172381D01*
X172212D01*
Y48768D01*
X172042Y48599D01*
X171027Y57235D02*
X170858Y57404D01*
X170519D01*
X170350Y57235D01*
Y56557D01*
X170519Y56388D01*
X170858D01*
X171027Y56557D01*
X172043Y57404D02*
X171704Y57235D01*
X171365Y56896D01*
Y56557D01*
X171535Y56388D01*
X171873D01*
X172043Y56557D01*
Y56727D01*
X171873Y56896D01*
X171365D01*
X172381Y57235D02*
X172550Y57404D01*
X172889D01*
X173058Y57235D01*
Y56557D01*
X172889Y56388D01*
X172550D01*
X172381Y56557D01*
Y57235D01*
X170222Y69706D02*
X170053Y69875D01*
X169714D01*
X169545Y69706D01*
Y69029D01*
X169714Y68859D01*
X170053D01*
X170222Y69029D01*
X171238Y69875D02*
X170561D01*
Y69367D01*
X170899Y69537D01*
X171069D01*
X171238Y69367D01*
Y69029D01*
X171069Y68859D01*
X170730D01*
X170561Y69029D01*
X171576D02*
X171746Y68859D01*
X172084D01*
X172253Y69029D01*
Y69706D01*
X172084Y69875D01*
X171746D01*
X171576Y69706D01*
Y69537D01*
X171746Y69367D01*
X172253D01*
X170789Y62315D02*
X170620Y62484D01*
X170281D01*
X170112Y62315D01*
Y61637D01*
X170281Y61468D01*
X170620D01*
X170789Y61637D01*
X171805Y62484D02*
X171127D01*
Y61976D01*
X171466Y62145D01*
X171635D01*
X171805Y61976D01*
Y61637D01*
X171635Y61468D01*
X171297D01*
X171127Y61637D01*
X172143Y62315D02*
X172312Y62484D01*
X172651D01*
X172820Y62315D01*
Y62145D01*
X172651Y61976D01*
X172820Y61807D01*
Y61637D01*
X172651Y61468D01*
X172312D01*
X172143Y61637D01*
Y61807D01*
X172312Y61976D01*
X172143Y62145D01*
Y62315D01*
X172312Y61976D02*
X172651D01*
X29938Y68766D02*
X29769Y68597D01*
Y68259D01*
X29938Y68089D01*
X30615D01*
X30785Y68259D01*
Y68597D01*
X30615Y68766D01*
X29938Y69105D02*
X29769Y69274D01*
Y69613D01*
X29938Y69782D01*
X30108D01*
X30277Y69613D01*
Y69444D01*
Y69613D01*
X30446Y69782D01*
X30615D01*
X30785Y69613D01*
Y69274D01*
X30615Y69105D01*
X29938Y70121D02*
X29769Y70290D01*
Y70629D01*
X29938Y70798D01*
X30615D01*
X30785Y70629D01*
Y70290D01*
X30615Y70121D01*
X29938D01*
X50385Y68258D02*
X50216Y68089D01*
Y67751D01*
X50385Y67581D01*
X51062D01*
X51232Y67751D01*
Y68089D01*
X51062Y68258D01*
X51232Y69274D02*
Y68597D01*
X50555Y69274D01*
X50385D01*
X50216Y69105D01*
Y68766D01*
X50385Y68597D01*
X51062Y69613D02*
X51232Y69782D01*
Y70121D01*
X51062Y70290D01*
X50385D01*
X50216Y70121D01*
Y69782D01*
X50385Y69613D01*
X50555D01*
X50724Y69782D01*
Y70290D01*
X69816Y68766D02*
X69647Y68597D01*
Y68259D01*
X69816Y68089D01*
X70493D01*
X70663Y68259D01*
Y68597D01*
X70493Y68766D01*
X70663Y69782D02*
Y69105D01*
X69986Y69782D01*
X69816D01*
X69647Y69613D01*
Y69274D01*
X69816Y69105D01*
Y70121D02*
X69647Y70290D01*
Y70629D01*
X69816Y70798D01*
X69986D01*
X70155Y70629D01*
X70324Y70798D01*
X70493D01*
X70663Y70629D01*
Y70290D01*
X70493Y70121D01*
X70324D01*
X70155Y70290D01*
X69986Y70121D01*
X69816D01*
X70155Y70290D02*
Y70629D01*
X90390Y68766D02*
X90221Y68597D01*
Y68259D01*
X90390Y68089D01*
X91067D01*
X91237Y68259D01*
Y68597D01*
X91067Y68766D01*
X91237Y69782D02*
Y69105D01*
X90560Y69782D01*
X90390D01*
X90221Y69613D01*
Y69274D01*
X90390Y69105D01*
X90221Y70121D02*
Y70798D01*
X90390D01*
X91067Y70121D01*
X91237D01*
X30446Y45906D02*
X30277Y45737D01*
Y45399D01*
X30446Y45229D01*
X31123D01*
X31293Y45399D01*
Y45737D01*
X31123Y45906D01*
X31293Y46922D02*
Y46245D01*
X30616Y46922D01*
X30446D01*
X30277Y46753D01*
Y46414D01*
X30446Y46245D01*
X30277Y47938D02*
X30446Y47599D01*
X30785Y47261D01*
X31123D01*
X31293Y47430D01*
Y47769D01*
X31123Y47938D01*
X30954D01*
X30785Y47769D01*
Y47261D01*
X51274Y45144D02*
X51105Y44975D01*
Y44637D01*
X51274Y44467D01*
X51951D01*
X52121Y44637D01*
Y44975D01*
X51951Y45144D01*
X52121Y46160D02*
Y45483D01*
X51444Y46160D01*
X51274D01*
X51105Y45991D01*
Y45652D01*
X51274Y45483D01*
X51105Y47176D02*
Y46499D01*
X51613D01*
X51444Y46837D01*
Y47007D01*
X51613Y47176D01*
X51951D01*
X52121Y47007D01*
Y46668D01*
X51951Y46499D01*
X71848Y45652D02*
X71679Y45483D01*
Y45145D01*
X71848Y44975D01*
X72525D01*
X72695Y45145D01*
Y45483D01*
X72525Y45652D01*
X72695Y46668D02*
Y45991D01*
X72018Y46668D01*
X71848D01*
X71679Y46499D01*
Y46160D01*
X71848Y45991D01*
X72695Y47515D02*
X71679D01*
X72187Y47007D01*
Y47684D01*
X91152Y45398D02*
X90983Y45229D01*
Y44891D01*
X91152Y44721D01*
X91829D01*
X91999Y44891D01*
Y45229D01*
X91829Y45398D01*
X91999Y46414D02*
Y45737D01*
X91322Y46414D01*
X91152D01*
X90983Y46245D01*
Y45906D01*
X91152Y45737D01*
Y46753D02*
X90983Y46922D01*
Y47261D01*
X91152Y47430D01*
X91322D01*
X91491Y47261D01*
Y47091D01*
Y47261D01*
X91660Y47430D01*
X91829D01*
X91999Y47261D01*
Y46922D01*
X91829Y46753D01*
X29125Y26755D02*
X28956Y26586D01*
Y26247D01*
X29125Y26078D01*
X29803D01*
X29972Y26247D01*
Y26586D01*
X29803Y26755D01*
X29972Y27771D02*
Y27093D01*
X29295Y27771D01*
X29125D01*
X28956Y27601D01*
Y27263D01*
X29125Y27093D01*
X29972Y28786D02*
Y28109D01*
X29295Y28786D01*
X29125D01*
X28956Y28617D01*
Y28278D01*
X29125Y28109D01*
X50461Y24892D02*
X50292Y24723D01*
Y24384D01*
X50461Y24215D01*
X51139D01*
X51308Y24384D01*
Y24723D01*
X51139Y24892D01*
X51308Y25908D02*
Y25231D01*
X50631Y25908D01*
X50461D01*
X50292Y25739D01*
Y25400D01*
X50461Y25231D01*
X51308Y26246D02*
Y26585D01*
Y26416D01*
X50292D01*
X50461Y26246D01*
X71289Y24723D02*
X71120Y24554D01*
Y24215D01*
X71289Y24046D01*
X71967D01*
X72136Y24215D01*
Y24554D01*
X71967Y24723D01*
X72136Y25739D02*
Y25061D01*
X71459Y25739D01*
X71289D01*
X71120Y25569D01*
Y25231D01*
X71289Y25061D01*
Y26077D02*
X71120Y26246D01*
Y26585D01*
X71289Y26754D01*
X71967D01*
X72136Y26585D01*
Y26246D01*
X71967Y26077D01*
X71289D01*
X90593Y24808D02*
X90424Y24638D01*
Y24300D01*
X90593Y24130D01*
X91271D01*
X91440Y24300D01*
Y24638D01*
X91271Y24808D01*
X91440Y25146D02*
Y25485D01*
Y25315D01*
X90424D01*
X90593Y25146D01*
X91271Y25992D02*
X91440Y26162D01*
Y26500D01*
X91271Y26670D01*
X90593D01*
X90424Y26500D01*
Y26162D01*
X90593Y25992D01*
X90763D01*
X90932Y26162D01*
Y26670D01*
X168038Y90889D02*
X167868Y91059D01*
X167530D01*
X167361Y90889D01*
Y90212D01*
X167530Y90043D01*
X167868D01*
X168038Y90212D01*
X169053Y91059D02*
X168376D01*
Y90551D01*
X168715Y90720D01*
X168884D01*
X169053Y90551D01*
Y90212D01*
X168884Y90043D01*
X168546D01*
X168376Y90212D01*
X201566Y65997D02*
X201396Y66167D01*
X201058D01*
X200889Y65997D01*
Y65320D01*
X201058Y65151D01*
X201396D01*
X201566Y65320D01*
X202412Y65151D02*
Y66167D01*
X201904Y65659D01*
X202581D01*
M02*
