G04*
G04 #@! TF.GenerationSoftware,Altium Limited,Altium Designer,21.5.1 (32)*
G04*
G04 Layer_Physical_Order=2*
G04 Layer_Color=16711680*
%FSLAX43Y43*%
%MOMM*%
G71*
G04*
G04 #@! TF.SameCoordinates,33522A81-C26F-4337-840D-2BD66AE4F990*
G04*
G04*
G04 #@! TF.FilePolarity,Positive*
G04*
G01*
G75*
%ADD15C,0.254*%
%ADD26C,5.400*%
%ADD31R,3.700X3.700*%
%ADD32C,3.700*%
%ADD33R,2.000X2.000*%
%ADD34C,2.000*%
%ADD35C,1.500*%
%ADD36R,1.500X1.500*%
G04:AMPARAMS|DCode=37|XSize=6.6mm|YSize=2.6mm|CornerRadius=1.3mm|HoleSize=0mm|Usage=FLASHONLY|Rotation=180.000|XOffset=0mm|YOffset=0mm|HoleType=Round|Shape=RoundedRectangle|*
%AMROUNDEDRECTD37*
21,1,6.600,0.000,0,0,180.0*
21,1,4.000,2.600,0,0,180.0*
1,1,2.600,-2.000,0.000*
1,1,2.600,2.000,0.000*
1,1,2.600,2.000,0.000*
1,1,2.600,-2.000,0.000*
%
%ADD37ROUNDEDRECTD37*%
%ADD40C,1.450*%
%ADD41R,1.450X1.450*%
%ADD54R,1.800X1.800*%
%ADD55C,1.800*%
%ADD56R,1.800X1.800*%
%ADD57C,1.650*%
%ADD58R,1.650X1.650*%
%ADD59C,4.318*%
%ADD60C,0.508*%
%ADD61C,1.270*%
%ADD62C,1.981*%
%ADD63C,5.080*%
G36*
X209804Y2540D02*
X25400D01*
Y127000D01*
X209804D01*
Y2540D01*
D02*
G37*
%LPC*%
G36*
X114330Y124386D02*
X113498D01*
X112910Y123798D01*
Y122967D01*
X113498Y122378D01*
X114330D01*
X114918Y122967D01*
Y123798D01*
X114330Y124386D01*
D02*
G37*
G36*
X38176Y119726D02*
X36028Y118836D01*
X35138Y116688D01*
X36028Y114539D01*
X38176Y113649D01*
X40325Y114539D01*
X41215Y116688D01*
X40325Y118836D01*
X38176Y119726D01*
D02*
G37*
G36*
Y113391D02*
X36017Y112496D01*
X35123Y110338D01*
X36017Y108179D01*
X38176Y107285D01*
X40335Y108179D01*
X41229Y110338D01*
X40335Y112496D01*
X38176Y113391D01*
D02*
G37*
G36*
X60960Y113725D02*
X57595Y112331D01*
X56201Y108966D01*
X57595Y105601D01*
X60960Y104207D01*
X64325Y105601D01*
X65719Y108966D01*
X64325Y112331D01*
X60960Y113725D01*
D02*
G37*
G36*
X122298Y104937D02*
X119850D01*
X118405Y103491D01*
X117635Y103172D01*
X117142Y101983D01*
X117635Y100793D01*
X118405Y100474D01*
X119850Y99029D01*
X122298D01*
X124028Y100759D01*
Y100828D01*
X124506Y101983D01*
X124028Y103137D01*
Y103206D01*
X122298Y104937D01*
D02*
G37*
G36*
X111948D02*
X109501D01*
X107808Y103244D01*
X107635Y103172D01*
X107142Y101983D01*
X107635Y100793D01*
X107808Y100721D01*
X109501Y99029D01*
X111948D01*
X113500Y100581D01*
X114013Y100793D01*
X114506Y101983D01*
X114013Y103172D01*
X113500Y103384D01*
X111948Y104937D01*
D02*
G37*
G36*
X199854Y91948D02*
X199434D01*
X199136Y91650D01*
Y91230D01*
X199232Y91134D01*
Y89071D01*
X198076Y87915D01*
X157524D01*
X156681Y88758D01*
Y89445D01*
X157378D01*
X157951Y90018D01*
Y90830D01*
X157378Y91403D01*
X156566D01*
X155993Y90830D01*
Y90133D01*
X155296D01*
X154723Y89560D01*
Y88748D01*
X155296Y88175D01*
X156098D01*
X157061Y87211D01*
X157353Y87091D01*
X198247D01*
X198539Y87211D01*
X199936Y88608D01*
X200056Y88900D01*
Y91134D01*
X200152Y91230D01*
Y91650D01*
X199854Y91948D01*
D02*
G37*
G36*
X142248Y83541D02*
X141216D01*
X140487Y82812D01*
Y81780D01*
X141216Y81051D01*
X142248D01*
X142977Y81780D01*
Y82812D01*
X142248Y83541D01*
D02*
G37*
G36*
X194774Y86868D02*
X194354D01*
X194056Y86570D01*
Y86150D01*
X194152Y86054D01*
Y81451D01*
X193981Y81280D01*
X193846D01*
X193548Y80982D01*
Y80562D01*
X193846Y80264D01*
X194266D01*
X194564Y80562D01*
Y80697D01*
X194856Y80988D01*
X194976Y81280D01*
Y86054D01*
X195072Y86150D01*
Y86570D01*
X194774Y86868D01*
D02*
G37*
G36*
X141732Y79465D02*
X140240Y78847D01*
X139622Y77355D01*
X140240Y75864D01*
X141732Y75246D01*
X143224Y75864D01*
X143322Y76102D01*
X145536D01*
Y78609D01*
X143322D01*
X143224Y78847D01*
X141732Y79465D01*
D02*
G37*
G36*
X75919Y80255D02*
X73760Y79361D01*
X72866Y77202D01*
X73760Y75043D01*
X75919Y74149D01*
X78078Y75043D01*
X78972Y77202D01*
X78078Y79361D01*
X75919Y80255D01*
D02*
G37*
G36*
X96123Y80244D02*
X93964Y79349D01*
X93070Y77191D01*
X93964Y75032D01*
X96123Y74138D01*
X98282Y75032D01*
X99176Y77191D01*
X98282Y79349D01*
X96123Y80244D01*
D02*
G37*
G36*
X55737D02*
X53578Y79349D01*
X52684Y77191D01*
X53578Y75032D01*
X55737Y74138D01*
X57896Y75032D01*
X58790Y77191D01*
X57896Y79349D01*
X55737Y80244D01*
D02*
G37*
G36*
X35544D02*
X33385Y79349D01*
X32491Y77191D01*
X33385Y75032D01*
X35544Y74138D01*
X37703Y75032D01*
X38597Y77191D01*
X37703Y79349D01*
X35544Y80244D01*
D02*
G37*
G36*
X190202Y86868D02*
X189782D01*
X189484Y86570D01*
Y86150D01*
X189580Y86054D01*
Y82804D01*
X189700Y82512D01*
X198628Y73585D01*
Y73450D01*
X198926Y73152D01*
X199346D01*
X199644Y73450D01*
Y73870D01*
X199346Y74168D01*
X199211D01*
X190404Y82975D01*
Y86054D01*
X190500Y86150D01*
Y86570D01*
X190202Y86868D01*
D02*
G37*
G36*
X142222Y72954D02*
X141191D01*
X140462Y72225D01*
Y71194D01*
X141191Y70465D01*
X142222D01*
X142951Y71194D01*
Y72225D01*
X142222Y72954D01*
D02*
G37*
G36*
X151594Y78740D02*
X151174D01*
X150876Y78442D01*
Y78022D01*
X150971Y77926D01*
Y77138D01*
X150876Y77043D01*
Y76622D01*
X150930Y76568D01*
X149725Y73660D01*
X151104Y70332D01*
X154432Y68953D01*
X157760Y70332D01*
X159139Y73660D01*
X157760Y76988D01*
X154432Y78367D01*
X151902Y77319D01*
X151796Y77389D01*
Y77926D01*
X151892Y78022D01*
Y78442D01*
X151594Y78740D01*
D02*
G37*
G36*
X118738Y124386D02*
X116730D01*
Y122378D01*
X117322D01*
Y117470D01*
X117442Y117178D01*
X126588Y108033D01*
Y77354D01*
X125704Y76988D01*
X125181Y75726D01*
X123660Y74206D01*
X123540Y73914D01*
Y40093D01*
X122293Y37084D01*
X123540Y34075D01*
Y24384D01*
X123660Y24092D01*
X130144Y17609D01*
Y6604D01*
X130264Y6312D01*
X132804Y3772D01*
X133096Y3652D01*
X141903D01*
X142380Y3175D01*
X143116D01*
X143637Y3696D01*
Y4432D01*
X143116Y4953D01*
X142380D01*
X141903Y4476D01*
X133267D01*
X130968Y6775D01*
Y17780D01*
X130848Y18072D01*
X124364Y24555D01*
Y33355D01*
X124470Y33425D01*
X127000Y32377D01*
X130328Y33756D01*
X131707Y37084D01*
X130328Y40412D01*
X127000Y41791D01*
X124470Y40743D01*
X124364Y40813D01*
Y73240D01*
X124489Y73264D01*
X125704Y70332D01*
X129032Y68953D01*
X132360Y70332D01*
X133739Y73660D01*
X132360Y76988D01*
X129032Y78367D01*
X127518Y77740D01*
X127412Y77810D01*
Y108204D01*
X127292Y108496D01*
X118146Y117641D01*
Y122378D01*
X118738D01*
Y124386D01*
D02*
G37*
G36*
X173946Y60960D02*
X173526D01*
X173228Y60662D01*
Y60242D01*
X173324Y60146D01*
Y58420D01*
X173444Y58128D01*
X173832Y57741D01*
Y55170D01*
X173736Y55074D01*
Y54654D01*
X174034Y54356D01*
X174454D01*
X174752Y54654D01*
Y55074D01*
X174656Y55170D01*
Y57912D01*
X174536Y58204D01*
X174148Y58591D01*
Y60146D01*
X174244Y60242D01*
Y60662D01*
X173946Y60960D01*
D02*
G37*
G36*
X95996Y58654D02*
X93837Y57759D01*
X92943Y55601D01*
X93837Y53442D01*
X95996Y52548D01*
X98155Y53442D01*
X99049Y55601D01*
X98155Y57759D01*
X95996Y58654D01*
D02*
G37*
G36*
X75930D02*
X73771Y57759D01*
X72877Y55601D01*
X73771Y53442D01*
X75930Y52548D01*
X78089Y53442D01*
X78983Y55601D01*
X78089Y57759D01*
X75930Y58654D01*
D02*
G37*
G36*
X55737D02*
X53578Y57759D01*
X52684Y55601D01*
X53578Y53442D01*
X55737Y52548D01*
X57896Y53442D01*
X58790Y55601D01*
X57896Y57759D01*
X55737Y58654D01*
D02*
G37*
G36*
X35544D02*
X33385Y57759D01*
X32491Y55601D01*
X33385Y53442D01*
X35544Y52548D01*
X37703Y53442D01*
X38597Y55601D01*
X37703Y57759D01*
X35544Y58654D01*
D02*
G37*
G36*
X204426Y53340D02*
X204006D01*
X203708Y53042D01*
Y52622D01*
X203804Y52526D01*
Y50090D01*
X203708Y49994D01*
Y49574D01*
X204006Y49276D01*
X204426D01*
X204724Y49574D01*
Y49994D01*
X204628Y50090D01*
Y52526D01*
X204724Y52622D01*
Y53042D01*
X204426Y53340D01*
D02*
G37*
G36*
X193040Y57308D02*
X186436D01*
X186144Y57188D01*
X170396Y41440D01*
X170276Y41148D01*
Y39930D01*
X170180Y39834D01*
Y39414D01*
X170478Y39116D01*
X170898D01*
X171196Y39414D01*
Y39834D01*
X171100Y39930D01*
Y40977D01*
X186607Y56484D01*
X192869D01*
X195168Y54185D01*
Y53138D01*
X195072Y53042D01*
Y52622D01*
X195168Y52526D01*
Y46534D01*
X195072Y46438D01*
Y46018D01*
X195370Y45720D01*
X195790D01*
X196088Y46018D01*
Y46438D01*
X195992Y46534D01*
Y52526D01*
X196088Y52622D01*
Y53042D01*
X195992Y53138D01*
Y54356D01*
X195872Y54648D01*
X193332Y57188D01*
X193040Y57308D01*
D02*
G37*
G36*
X159722Y59436D02*
X159302D01*
X159004Y59138D01*
Y58718D01*
X159100Y58622D01*
Y39624D01*
X159220Y39332D01*
X163672Y34881D01*
Y10974D01*
X163576Y10878D01*
Y10458D01*
X163874Y10160D01*
X164294D01*
X164592Y10458D01*
Y10878D01*
X164496Y10974D01*
Y30453D01*
X164614Y30502D01*
X164636Y30480D01*
X165056D01*
X165354Y30778D01*
Y30913D01*
X173396Y38955D01*
X173489Y38916D01*
X173585Y38821D01*
Y35484D01*
X168073Y29972D01*
X167938D01*
X167640Y29674D01*
Y29254D01*
X167938Y28956D01*
X168281D01*
X168334Y28829D01*
X167445Y27940D01*
X167303D01*
X167005Y27642D01*
Y27222D01*
X167303Y26924D01*
X167723D01*
X168021Y27222D01*
Y27350D01*
X183439Y42768D01*
X188162D01*
X188258Y42672D01*
X188678D01*
X188976Y42970D01*
Y43390D01*
X188678Y43688D01*
X188258D01*
X188162Y43592D01*
X183268D01*
X182976Y43472D01*
X168858Y29353D01*
X168721Y29396D01*
X168712Y29445D01*
X174289Y35021D01*
X174409Y35313D01*
Y38821D01*
X174505Y38917D01*
Y39337D01*
X174207Y39635D01*
X174169Y39728D01*
X186638Y52197D01*
X186773D01*
X187071Y52495D01*
Y52915D01*
X186773Y53213D01*
X186353D01*
X186055Y52915D01*
Y52780D01*
X164771Y31496D01*
X164636D01*
X164614Y31474D01*
X164496Y31523D01*
Y35052D01*
X164376Y35344D01*
X159924Y39795D01*
Y58622D01*
X160020Y58718D01*
Y59138D01*
X159722Y59436D01*
D02*
G37*
G36*
X137709Y45054D02*
X136678D01*
X135949Y44325D01*
Y43294D01*
X136678Y42565D01*
X137709D01*
X138438Y43294D01*
Y44325D01*
X137709Y45054D01*
D02*
G37*
G36*
X143504Y42034D02*
X140996D01*
Y41437D01*
X140869Y41384D01*
X140219Y42034D01*
X139181D01*
X138506Y41359D01*
X138425Y41311D01*
X138344Y41359D01*
X137669Y42034D01*
X136631D01*
X135896Y41299D01*
Y40260D01*
X136631Y39526D01*
X137669D01*
X138344Y40200D01*
X138425Y40248D01*
X138506Y40200D01*
X139181Y39526D01*
X140219D01*
X140869Y40175D01*
X140996Y40122D01*
Y39526D01*
X143504D01*
Y42034D01*
D02*
G37*
G36*
X96123Y37064D02*
X93964Y36169D01*
X93070Y34011D01*
X93964Y31852D01*
X96123Y30958D01*
X98282Y31852D01*
X99176Y34011D01*
X98282Y36169D01*
X96123Y37064D01*
D02*
G37*
G36*
X75930D02*
X73771Y36169D01*
X72877Y34011D01*
X73771Y31852D01*
X75930Y30958D01*
X78089Y31852D01*
X78983Y34011D01*
X78089Y36169D01*
X75930Y37064D01*
D02*
G37*
G36*
X55737D02*
X53578Y36169D01*
X52684Y34011D01*
X53578Y31852D01*
X55737Y30958D01*
X57896Y31852D01*
X58790Y34011D01*
X57896Y36169D01*
X55737Y37064D01*
D02*
G37*
G36*
X35544D02*
X33385Y36169D01*
X32491Y34011D01*
X33385Y31852D01*
X35544Y30958D01*
X37703Y31852D01*
X38597Y34011D01*
X37703Y36169D01*
X35544Y37064D01*
D02*
G37*
G36*
X159722Y33020D02*
X159302D01*
X159004Y32722D01*
Y32587D01*
X157188Y30772D01*
X157068Y30480D01*
Y27738D01*
X156972Y27642D01*
Y27222D01*
X157270Y26924D01*
X157690D01*
X157988Y27222D01*
Y27642D01*
X157892Y27738D01*
Y30309D01*
X159587Y32004D01*
X159722D01*
X160020Y32302D01*
Y32722D01*
X159722Y33020D01*
D02*
G37*
G36*
X161126Y21336D02*
X160706D01*
X160408Y21038D01*
Y20903D01*
X157405Y17900D01*
X157270D01*
X156972Y17602D01*
Y17182D01*
X157270Y16884D01*
X157690D01*
X157988Y17182D01*
Y17317D01*
X160991Y20320D01*
X161126D01*
X161424Y20618D01*
Y21038D01*
X161126Y21336D01*
D02*
G37*
G36*
X99187Y16769D02*
X99123Y16743D01*
X99060Y16769D01*
X96901Y15875D01*
X96052Y13824D01*
X96007Y13717D01*
X95890D01*
X95845Y13824D01*
X94996Y15875D01*
X92837Y16769D01*
X90678Y15875D01*
X89784Y13716D01*
X90678Y11557D01*
X92837Y10663D01*
X94996Y11557D01*
X95845Y13608D01*
X95890Y13715D01*
X96007D01*
X96052Y13608D01*
X96901Y11557D01*
X99060Y10663D01*
X99123Y10689D01*
X99187Y10663D01*
X101346Y11557D01*
X102240Y13716D01*
X101346Y15875D01*
X99187Y16769D01*
D02*
G37*
G36*
X199925Y70342D02*
X199504D01*
X199206Y70044D01*
Y69909D01*
X194574Y65277D01*
X155797D01*
X155505Y65156D01*
X150838Y60490D01*
X150718Y60198D01*
Y57614D01*
X150151Y57048D01*
Y56351D01*
X149454D01*
X148881Y55778D01*
Y54966D01*
X149448Y54400D01*
Y44196D01*
X149568Y43904D01*
X151811Y41661D01*
X151787Y41537D01*
X149072Y40412D01*
X147693Y37084D01*
X149072Y33756D01*
X152400Y32377D01*
X155728Y33756D01*
X156853Y36471D01*
X156977Y36495D01*
X162148Y31325D01*
Y10974D01*
X162052Y10878D01*
Y10458D01*
X162350Y10160D01*
X162770D01*
X163068Y10458D01*
Y10878D01*
X162972Y10974D01*
Y31496D01*
X162852Y31788D01*
X156790Y37849D01*
X155728Y40412D01*
X153165Y41474D01*
X150272Y44367D01*
Y54400D01*
X150839Y54966D01*
Y55663D01*
X151536D01*
X152109Y56236D01*
Y57048D01*
X151542Y57614D01*
Y60027D01*
X155968Y64452D01*
X194745D01*
X195036Y64573D01*
X199789Y69326D01*
X199925D01*
X200222Y69624D01*
Y70044D01*
X199925Y70342D01*
D02*
G37*
G36*
X188170Y96012D02*
X187750D01*
X187452Y95714D01*
Y95294D01*
X187750Y94996D01*
X188170D01*
X188266Y95092D01*
X199981D01*
X200756Y94317D01*
Y38779D01*
X172618Y10642D01*
X172498Y10350D01*
Y8518D01*
X172380Y8470D01*
X172151Y8699D01*
X171257D01*
X170625Y8067D01*
Y7173D01*
X171257Y6541D01*
X172151D01*
X172380Y6770D01*
X172498Y6722D01*
Y6457D01*
X172175Y6135D01*
X172151Y6159D01*
X171257D01*
X170625Y5527D01*
Y4633D01*
X170854Y4404D01*
X170806Y4286D01*
X170062D01*
X170014Y4404D01*
X170243Y4633D01*
Y5527D01*
X169611Y6159D01*
X168717D01*
X168085Y5527D01*
Y4633D01*
X168314Y4404D01*
X168266Y4286D01*
X168001D01*
X167679Y4609D01*
X167703Y4633D01*
Y5527D01*
X167071Y6159D01*
X166177D01*
X165545Y5527D01*
Y4633D01*
X166177Y4001D01*
X167071D01*
X167095Y4025D01*
X167538Y3582D01*
X167830Y3462D01*
X174744D01*
X175035Y3582D01*
X185204Y13751D01*
X185324Y14042D01*
Y14053D01*
X206032Y34760D01*
X206152Y35052D01*
Y60452D01*
X206032Y60744D01*
X204216Y62559D01*
Y62694D01*
X203918Y62992D01*
X203498D01*
X203200Y62694D01*
Y62274D01*
X203498Y61976D01*
X203633D01*
X205328Y60281D01*
Y35223D01*
X184620Y14516D01*
X184500Y14224D01*
Y14213D01*
X175440Y5154D01*
X175323Y5203D01*
Y5527D01*
X174691Y6159D01*
X173797D01*
X173165Y5527D01*
Y4633D01*
X173394Y4404D01*
X173346Y4286D01*
X172602D01*
X172554Y4404D01*
X172783Y4633D01*
Y5527D01*
X172759Y5551D01*
X173202Y5994D01*
X173322Y6286D01*
Y6541D01*
X175323D01*
Y8699D01*
X173322D01*
Y10179D01*
X201460Y38316D01*
X201580Y38608D01*
Y94488D01*
X201460Y94780D01*
X200444Y95796D01*
X200152Y95916D01*
X188266D01*
X188170Y96012D01*
D02*
G37*
G36*
X169611Y8699D02*
X168717D01*
X168085Y8067D01*
Y7173D01*
X168717Y6541D01*
X169611D01*
X170243Y7173D01*
Y8067D01*
X169611Y8699D01*
D02*
G37*
G36*
X164531D02*
X163637D01*
X163005Y8067D01*
Y7173D01*
X163637Y6541D01*
X164531D01*
X165163Y7173D01*
Y8067D01*
X164531Y8699D01*
D02*
G37*
G36*
X159451D02*
X158557D01*
X157925Y8067D01*
Y7173D01*
X158557Y6541D01*
X159451D01*
X160083Y7173D01*
Y8067D01*
X159451Y8699D01*
D02*
G37*
G36*
X164531Y6159D02*
X163637D01*
X163005Y5527D01*
Y4633D01*
X163637Y4001D01*
X164531D01*
X165163Y4633D01*
Y5527D01*
X164531Y6159D01*
D02*
G37*
G36*
X159451D02*
X158557D01*
X157925Y5527D01*
Y4633D01*
X158557Y4001D01*
X159451D01*
X160083Y4633D01*
Y5527D01*
X159451Y6159D01*
D02*
G37*
G36*
X156911D02*
X156017D01*
X155385Y5527D01*
Y4633D01*
X156017Y4001D01*
X156911D01*
X157543Y4633D01*
Y5527D01*
X156911Y6159D01*
D02*
G37*
%LPD*%
D15*
X184912Y14224D02*
X205740Y35052D01*
X167520Y27432D02*
X183268Y43180D01*
X167513Y27432D02*
X167520D01*
X173997Y35313D02*
Y39127D01*
X168148Y29464D02*
X173997Y35313D01*
X194056Y80772D02*
X194564Y81280D01*
Y86360D01*
X204216Y49784D02*
Y52832D01*
X203708Y62484D02*
X205740Y60452D01*
Y35052D02*
Y60452D01*
X172910Y10350D02*
X201168Y38608D01*
X200152Y95504D02*
X201168Y94488D01*
Y38608D02*
Y94488D01*
X187960Y95504D02*
X200152D01*
X184912Y14042D02*
Y14224D01*
X174744Y3874D02*
X184912Y14042D01*
X167830Y3874D02*
X174744D01*
X166624Y5080D02*
X167830Y3874D01*
X189992Y82804D02*
X199136Y73660D01*
X189992Y82804D02*
Y86360D01*
X195580Y46228D02*
Y52832D01*
Y54356D01*
X193040Y56896D02*
X195580Y54356D01*
X186436Y56896D02*
X193040D01*
X170688Y41148D02*
X186436Y56896D01*
X170688Y39624D02*
Y41148D01*
X157480Y30480D02*
X159512Y32512D01*
X157480Y27432D02*
Y30480D01*
X164846Y30988D02*
X186563Y52705D01*
X183268Y43180D02*
X188468D01*
X157480Y17392D02*
X160916Y20828D01*
X133096Y4064D02*
X142748D01*
X130556Y6604D02*
X133096Y4064D01*
X130556Y6604D02*
Y17780D01*
X123952Y24384D02*
X130556Y17780D01*
X123952Y24384D02*
Y73914D01*
X127000Y76962D02*
Y108204D01*
X123952Y73914D02*
X127000Y76962D01*
X117734Y117470D02*
X127000Y108204D01*
X117734Y117470D02*
Y123382D01*
X157353Y87503D02*
X198247D01*
X155702Y89154D02*
X157353Y87503D01*
X198247D02*
X199644Y88900D01*
Y91440D01*
X172910Y6286D02*
Y10350D01*
X171704Y5080D02*
X172910Y6286D01*
X159512Y39624D02*
Y58928D01*
Y39624D02*
X164084Y35052D01*
Y10668D02*
Y35052D01*
X162560Y10668D02*
Y31496D01*
X149860Y44196D02*
X162560Y31496D01*
X149860Y44196D02*
Y55372D01*
X151130Y56642D02*
Y60198D01*
X155797Y64865D01*
X194745D01*
X199714Y69834D01*
X151384Y76832D02*
Y78232D01*
X151384Y78232D01*
X151384Y76832D02*
X151384Y76832D01*
X173736Y58420D02*
Y60452D01*
Y58420D02*
X174244Y57912D01*
Y54864D02*
Y57912D01*
D26*
X121074Y101983D02*
D03*
X110725D02*
D03*
D31*
X129032Y73660D02*
D03*
X127000Y37084D02*
D03*
D32*
X154432Y73660D02*
D03*
X152400Y37084D02*
D03*
D33*
X144282Y77355D02*
D03*
X142250Y40779D02*
D03*
D34*
X141732Y77355D02*
D03*
X139182D02*
D03*
X137150Y40779D02*
D03*
X139700D02*
D03*
D35*
X115824Y123382D02*
D03*
X113914D02*
D03*
D36*
X117734D02*
D03*
D37*
X120824Y101983D02*
D03*
X110824D02*
D03*
D40*
X75930Y34011D02*
D03*
X55737D02*
D03*
X35544D02*
D03*
X149860Y55372D02*
D03*
X151130Y56642D02*
D03*
X152400Y55372D02*
D03*
X155702Y89154D02*
D03*
X156972Y90424D02*
D03*
X158242Y89154D02*
D03*
X55737Y55601D02*
D03*
X95996D02*
D03*
X96123Y77191D02*
D03*
X75930D02*
D03*
X55737D02*
D03*
X35544D02*
D03*
Y55601D02*
D03*
X75930D02*
D03*
X96123Y34011D02*
D03*
D41*
X83430D02*
D03*
X63237D02*
D03*
X43044D02*
D03*
X63237Y55601D02*
D03*
X103496D02*
D03*
X103623Y77191D02*
D03*
X83430D02*
D03*
X63237D02*
D03*
X43044D02*
D03*
Y55601D02*
D03*
X83430D02*
D03*
X103623Y34011D02*
D03*
D54*
X38176Y116688D02*
D03*
X38100Y97790D02*
D03*
D55*
X38176Y110338D02*
D03*
X46482Y13716D02*
D03*
X38100Y91440D02*
D03*
X99187Y13716D02*
D03*
D56*
X40132D02*
D03*
X92837D02*
D03*
D57*
X161544Y5080D02*
D03*
Y7620D02*
D03*
X164084Y5080D02*
D03*
Y7620D02*
D03*
X171704Y5080D02*
D03*
Y7620D02*
D03*
X174244Y5080D02*
D03*
X169164Y7620D02*
D03*
Y5080D02*
D03*
X166624Y7620D02*
D03*
Y5080D02*
D03*
X159004Y7620D02*
D03*
X156464D02*
D03*
X159004Y5080D02*
D03*
X156464D02*
D03*
D58*
X174244Y7620D02*
D03*
D59*
X201168Y7112D02*
D03*
X29464Y123444D02*
D03*
X29972Y6604D02*
D03*
X201168Y123444D02*
D03*
D60*
X167513Y27432D02*
D03*
X168148Y29464D02*
D03*
X173997Y39127D02*
D03*
X194056Y80772D02*
D03*
X204216Y52832D02*
D03*
Y49784D02*
D03*
Y52832D02*
D03*
X203708Y62484D02*
D03*
X199136Y73660D02*
D03*
X189992Y86360D02*
D03*
X195580Y46228D02*
D03*
Y52832D02*
D03*
X170688Y39624D02*
D03*
X159512Y32512D02*
D03*
X157480Y27432D02*
D03*
X186563Y52705D02*
D03*
X188468Y43180D02*
D03*
X160916Y20828D02*
D03*
X157480Y17392D02*
D03*
X164846Y30988D02*
D03*
X199644Y91440D02*
D03*
X187960Y95504D02*
D03*
X194564Y86360D02*
D03*
X162560Y10668D02*
D03*
X164084D02*
D03*
X159512Y58928D02*
D03*
X199714Y69834D02*
D03*
X151384Y76832D02*
D03*
X151384Y78232D02*
D03*
X173736Y60452D02*
D03*
X174244Y54864D02*
D03*
D61*
X142748Y4064D02*
D03*
D62*
X137193Y43810D02*
D03*
X141706Y71710D02*
D03*
X141732Y82296D02*
D03*
D63*
X60960Y108966D02*
D03*
M02*
