G04*
G04 #@! TF.GenerationSoftware,Altium Limited,Altium Designer,21.5.1 (32)*
G04*
G04 Layer_Color=8421504*
%FSLAX43Y43*%
%MOMM*%
G71*
G04*
G04 #@! TF.SameCoordinates,33522A81-C26F-4337-840D-2BD66AE4F990*
G04*
G04*
G04 #@! TF.FilePolarity,Positive*
G04*
G01*
G75*
%ADD16R,1.600X3.000*%
%ADD17R,5.800X6.200*%
%ADD18R,1.000X1.300*%
%ADD19R,1.300X1.000*%
%ADD20O,2.100X0.600*%
%ADD21R,1.874X0.543*%
G04:AMPARAMS|DCode=22|XSize=1.874mm|YSize=0.543mm|CornerRadius=0.272mm|HoleSize=0mm|Usage=FLASHONLY|Rotation=0.000|XOffset=0mm|YOffset=0mm|HoleType=Round|Shape=RoundedRectangle|*
%AMROUNDEDRECTD22*
21,1,1.874,0.000,0,0,0.0*
21,1,1.331,0.543,0,0,0.0*
1,1,0.543,0.665,0.000*
1,1,0.543,-0.665,0.000*
1,1,0.543,-0.665,0.000*
1,1,0.543,0.665,0.000*
%
%ADD22ROUNDEDRECTD22*%
%ADD23R,1.520X0.600*%
D16*
X166374Y59016D02*
D03*
X161794D02*
D03*
D17*
X164084Y51816D02*
D03*
D18*
X172688Y50292D02*
D03*
X170688D02*
D03*
X172704Y54864D02*
D03*
X170704D02*
D03*
X172212Y64008D02*
D03*
X170212D02*
D03*
X191500Y71120D02*
D03*
X189500D02*
D03*
X191500Y66040D02*
D03*
X189500D02*
D03*
X204724Y47244D02*
D03*
X202724D02*
D03*
X190484Y45720D02*
D03*
X188484D02*
D03*
X170196Y67056D02*
D03*
X172196D02*
D03*
X189246Y75692D02*
D03*
X191246D02*
D03*
D19*
X167640Y43164D02*
D03*
Y41164D02*
D03*
X163576Y43312D02*
D03*
Y45312D02*
D03*
X137922Y7890D02*
D03*
Y9890D02*
D03*
X147828Y15732D02*
D03*
Y13732D02*
D03*
X142494Y9890D02*
D03*
Y7890D02*
D03*
X147828Y9890D02*
D03*
Y7890D02*
D03*
X197104Y53440D02*
D03*
Y51440D02*
D03*
X207010Y51440D02*
D03*
Y53440D02*
D03*
X206502Y62214D02*
D03*
Y60214D02*
D03*
X197612Y44974D02*
D03*
Y46974D02*
D03*
X170688Y77184D02*
D03*
Y75184D02*
D03*
X166624Y75200D02*
D03*
Y77200D02*
D03*
X184150Y89932D02*
D03*
Y91932D02*
D03*
X203200Y90186D02*
D03*
Y92186D02*
D03*
X187706Y89932D02*
D03*
Y91932D02*
D03*
X168148Y93472D02*
D03*
Y95472D02*
D03*
X201676Y67834D02*
D03*
Y69834D02*
D03*
X202184Y53340D02*
D03*
Y51340D02*
D03*
X201676Y63484D02*
D03*
Y61484D02*
D03*
X137922Y15732D02*
D03*
Y13732D02*
D03*
X142748Y15732D02*
D03*
Y13732D02*
D03*
X168148Y88392D02*
D03*
Y86392D02*
D03*
D20*
X184915Y58039D02*
D03*
Y59309D02*
D03*
Y60579D02*
D03*
Y61849D02*
D03*
Y63119D02*
D03*
Y64389D02*
D03*
Y65659D02*
D03*
Y66929D02*
D03*
X175765Y58039D02*
D03*
Y59309D02*
D03*
Y60579D02*
D03*
Y61849D02*
D03*
Y63119D02*
D03*
Y64389D02*
D03*
Y65659D02*
D03*
Y66929D02*
D03*
D21*
X192532Y91694D02*
D03*
D22*
Y90424D02*
D03*
Y89154D02*
D03*
Y87884D02*
D03*
X197164D02*
D03*
Y89154D02*
D03*
Y90424D02*
D03*
Y91694D02*
D03*
D23*
X193494Y50165D02*
D03*
Y51435D02*
D03*
Y52705D02*
D03*
Y53975D02*
D03*
X188014Y50165D02*
D03*
Y51435D02*
D03*
Y52705D02*
D03*
Y53975D02*
D03*
M02*
