G04*
G04 #@! TF.GenerationSoftware,Altium Limited,Altium Designer,21.5.1 (32)*
G04*
G04 Layer_Color=8388736*
%FSLAX43Y43*%
%MOMM*%
G71*
G04*
G04 #@! TF.SameCoordinates,33522A81-C26F-4337-840D-2BD66AE4F990*
G04*
G04*
G04 #@! TF.FilePolarity,Positive*
G04*
G01*
G75*
%ADD11C,0.150*%
%ADD13C,0.200*%
D11*
X88930Y34011D02*
G03*
X88930Y34011I-9250J0D01*
G01*
X68737D02*
G03*
X68737Y34011I-9250J0D01*
G01*
X48544D02*
G03*
X48544Y34011I-9250J0D01*
G01*
X68737Y55601D02*
G03*
X68737Y55601I-9250J0D01*
G01*
X108996D02*
G03*
X108996Y55601I-9250J0D01*
G01*
X109123Y77191D02*
G03*
X109123Y77191I-9250J0D01*
G01*
X88930D02*
G03*
X88930Y77191I-9250J0D01*
G01*
X68737D02*
G03*
X68737Y77191I-9250J0D01*
G01*
X48544D02*
G03*
X48544Y77191I-9250J0D01*
G01*
Y55601D02*
G03*
X48544Y55601I-9250J0D01*
G01*
X88930D02*
G03*
X88930Y55601I-9250J0D01*
G01*
X109123Y34011D02*
G03*
X109123Y34011I-9250J0D01*
G01*
D13*
X148527Y57753D02*
X153734D01*
X148527Y53562D02*
Y57753D01*
Y53562D02*
X153734D01*
Y57753D01*
X154368Y91535D02*
X159576D01*
X154368Y87344D02*
Y91535D01*
Y87344D02*
X159576D01*
Y91535D01*
X192898Y92239D02*
X196798D01*
Y87339D02*
Y92239D01*
X192898Y87339D02*
X196798D01*
X192898D02*
Y92239D01*
M02*
