G04*
G04 #@! TF.GenerationSoftware,Altium Limited,Altium Designer,21.5.1 (32)*
G04*
G04 Layer_Physical_Order=1*
G04 Layer_Color=255*
%FSLAX43Y43*%
%MOMM*%
G71*
G04*
G04 #@! TF.SameCoordinates,449709A0-46AC-47EF-B127-1EA7B65E703A*
G04*
G04*
G04 #@! TF.FilePolarity,Positive*
G04*
G01*
G75*
%ADD13C,0.254*%
%ADD21R,1.300X1.000*%
%ADD22R,1.000X1.300*%
%ADD23O,2.100X0.600*%
%ADD24O,2.100X0.350*%
%ADD25R,1.520X0.600*%
%ADD26O,1.850X0.700*%
%ADD27R,1.300X0.700*%
%ADD28R,0.508X2.032*%
%ADD29O,0.508X2.032*%
G04:AMPARAMS|DCode=30|XSize=0.3mm|YSize=1.45mm|CornerRadius=0.05mm|HoleSize=0mm|Usage=FLASHONLY|Rotation=90.000|XOffset=0mm|YOffset=0mm|HoleType=Round|Shape=RoundedRectangle|*
%AMROUNDEDRECTD30*
21,1,0.300,1.351,0,0,90.0*
21,1,0.201,1.450,0,0,90.0*
1,1,0.099,0.676,0.101*
1,1,0.099,0.676,-0.101*
1,1,0.099,-0.676,-0.101*
1,1,0.099,-0.676,0.101*
%
%ADD30ROUNDEDRECTD30*%
G04:AMPARAMS|DCode=31|XSize=0.3mm|YSize=1.45mm|CornerRadius=0.05mm|HoleSize=0mm|Usage=FLASHONLY|Rotation=0.000|XOffset=0mm|YOffset=0mm|HoleType=Round|Shape=RoundedRectangle|*
%AMROUNDEDRECTD31*
21,1,0.300,1.351,0,0,0.0*
21,1,0.201,1.450,0,0,0.0*
1,1,0.099,0.101,-0.676*
1,1,0.099,-0.101,-0.676*
1,1,0.099,-0.101,0.676*
1,1,0.099,0.101,0.676*
%
%ADD31ROUNDEDRECTD31*%
%ADD32R,0.850X0.410*%
%ADD33R,1.900X3.200*%
%ADD34R,1.900X0.900*%
%ADD35R,2.920X2.850*%
%ADD36R,2.500X2.000*%
%ADD37R,2.250X0.500*%
%ADD38O,2.100X0.700*%
%ADD39R,1.306X1.058*%
%ADD40R,0.800X0.800*%
%ADD41R,0.800X0.800*%
%ADD42R,5.800X6.200*%
%ADD43R,1.600X3.000*%
%ADD44R,2.350X2.200*%
%ADD45R,1.400X2.100*%
%ADD48C,5.400*%
%ADD76C,1.500*%
%ADD77R,1.500X1.500*%
G04:AMPARAMS|DCode=78|XSize=6.6mm|YSize=2.6mm|CornerRadius=1.3mm|HoleSize=0mm|Usage=FLASHONLY|Rotation=90.000|XOffset=0mm|YOffset=0mm|HoleType=Round|Shape=RoundedRectangle|*
%AMROUNDEDRECTD78*
21,1,6.600,0.000,0,0,90.0*
21,1,4.000,2.600,0,0,90.0*
1,1,2.600,0.000,2.000*
1,1,2.600,0.000,-2.000*
1,1,2.600,0.000,-2.000*
1,1,2.600,0.000,2.000*
%
%ADD78ROUNDEDRECTD78*%
%ADD79C,1.450*%
%ADD83R,2.000X2.000*%
%ADD84C,2.000*%
%ADD85R,3.700X3.700*%
%ADD86C,3.700*%
%ADD94R,1.450X1.450*%
%ADD101C,1.016*%
%ADD102C,1.270*%
%ADD103C,1.800*%
%ADD104R,1.800X1.800*%
%ADD105R,1.500X1.500*%
G04:AMPARAMS|DCode=106|XSize=1.016mm|YSize=1.016mm|CornerRadius=0.254mm|HoleSize=0mm|Usage=FLASHONLY|Rotation=90.000|XOffset=0mm|YOffset=0mm|HoleType=Round|Shape=RoundedRectangle|*
%AMROUNDEDRECTD106*
21,1,1.016,0.508,0,0,90.0*
21,1,0.508,1.016,0,0,90.0*
1,1,0.508,0.254,0.254*
1,1,0.508,0.254,-0.254*
1,1,0.508,-0.254,-0.254*
1,1,0.508,-0.254,0.254*
%
%ADD106ROUNDEDRECTD106*%
%ADD107C,1.400*%
%ADD108R,1.400X1.400*%
%ADD109C,1.200*%
%ADD110R,1.200X1.200*%
%ADD111R,1.500X1.500*%
%ADD112C,1.650*%
%ADD113R,1.650X1.650*%
%ADD114C,4.800*%
%ADD115R,1.500X1.500*%
%ADD116C,1.350*%
%ADD117R,1.350X1.350*%
%ADD118C,5.080*%
%ADD119C,0.254*%
%ADD120C,0.508*%
%ADD121C,1.270*%
G36*
X196283Y127194D02*
X196732Y127048D01*
X197152Y126834D01*
X197534Y126556D01*
X197868Y126222D01*
X198146Y125840D01*
X198360Y125420D01*
X198506Y124970D01*
X198580Y124504D01*
Y124268D01*
X198580Y120268D01*
Y120083D01*
X198535Y119716D01*
X198444Y119357D01*
X198311Y119012D01*
X198136Y118686D01*
X197922Y118384D01*
X197673Y118111D01*
X197392Y117870D01*
X197238Y117768D01*
X197238Y117768D01*
X193922Y117768D01*
X193768Y117870D01*
X193487Y118111D01*
X193238Y118384D01*
X193024Y118686D01*
X192849Y119012D01*
X192716Y119357D01*
X192625Y119716D01*
X192580Y120083D01*
X192580Y120268D01*
Y124268D01*
Y124504D01*
X192654Y124970D01*
X192800Y125420D01*
X193014Y125840D01*
X193292Y126222D01*
X193626Y126556D01*
X194008Y126834D01*
X194428Y127048D01*
X194878Y127194D01*
X195344Y127268D01*
X195816D01*
X196283Y127194D01*
D02*
G37*
G36*
X197238Y116768D02*
X197392Y116666D01*
X197673Y116425D01*
X197922Y116152D01*
X198136Y115850D01*
X198311Y115524D01*
X198444Y115179D01*
X198535Y114820D01*
X198580Y114453D01*
Y114268D01*
X198580Y114268D01*
X198580Y110268D01*
Y110032D01*
X198506Y109565D01*
X198360Y109116D01*
X198146Y108696D01*
X197868Y108314D01*
X197534Y107980D01*
X197152Y107702D01*
X196732Y107488D01*
X196283Y107342D01*
X195816Y107268D01*
X195344D01*
X194878Y107342D01*
X194428Y107488D01*
X194008Y107702D01*
X193626Y107980D01*
X193292Y108314D01*
X193014Y108696D01*
X192800Y109116D01*
X192654Y109565D01*
X192580Y110032D01*
Y110268D01*
X192580D01*
Y114268D01*
Y114453D01*
X192625Y114820D01*
X192716Y115179D01*
X192849Y115524D01*
X193024Y115850D01*
X193238Y116152D01*
X193487Y116425D01*
X193768Y116666D01*
X193922Y116768D01*
X193922Y116768D01*
X197238Y116768D01*
D02*
G37*
D13*
X261791Y289098D02*
X261874Y289015D01*
X237474Y77708D02*
X237744Y77978D01*
X236674Y77708D02*
X237474D01*
X235817Y77200D02*
X237760D01*
X238125Y76835D01*
X237744Y77978D02*
X243205D01*
X243967Y78740D01*
X245342D02*
X245491Y78889D01*
X243967Y78740D02*
X245342D01*
X245491Y78889D02*
Y84074D01*
X244983Y84582D02*
X245491Y84074D01*
X244812Y84582D02*
X244983D01*
X242802Y86592D02*
X242824Y86614D01*
X242802Y86592D02*
X244812Y84582D01*
X242824Y86614D02*
Y100700D01*
X217170Y65024D02*
Y67310D01*
X217932Y68072D02*
Y69088D01*
X217170Y67310D02*
X217932Y68072D01*
Y69088D02*
X219044Y70200D01*
X220367D01*
X222869Y91796D02*
Y99416D01*
X237760Y93218D02*
X238027Y93485D01*
X237760Y86766D02*
X238027Y87033D01*
X222602Y111112D02*
Y114389D01*
X237887Y116230D02*
X238027Y116091D01*
X222602Y122009D02*
X222869Y122276D01*
X222602Y99682D02*
Y102959D01*
Y103492D02*
Y106769D01*
X222996Y87884D02*
Y88034D01*
X237887Y108610D02*
X238027Y108471D01*
X237887Y104800D02*
X238027Y104940D01*
X222602Y114922D02*
Y118199D01*
Y129375D02*
X222869Y129642D01*
X222602Y88428D02*
X222996Y88034D01*
X222602Y122542D02*
X222869Y122276D01*
X222623Y91423D02*
X222996Y91796D01*
X237760Y97180D02*
X238027Y96914D01*
X237744Y89916D02*
X238027Y89633D01*
Y112560D02*
Y116091D01*
X222602Y125819D02*
X222869Y126086D01*
X238027Y104940D02*
Y108471D01*
X222602Y118732D02*
Y122009D01*
Y107302D02*
Y110579D01*
Y111112D02*
X222869Y110846D01*
X237887Y112420D02*
X238027Y112560D01*
X222602Y126352D02*
X222869Y126086D01*
X222602Y118199D02*
X222869Y118466D01*
X237760Y116230D02*
Y131064D01*
X222602Y126352D02*
Y129375D01*
Y114922D02*
X222869Y114656D01*
X237760Y97180D02*
Y104800D01*
X222602Y122542D02*
Y125819D01*
Y91124D02*
X222623Y91144D01*
X237760Y89916D02*
Y93218D01*
X222602Y118732D02*
X222869Y118466D01*
X222602Y110579D02*
X222869Y110846D01*
X222602Y107302D02*
X222869Y107036D01*
X222602Y114389D02*
X222869Y114656D01*
X222602Y102959D02*
X222869Y103226D01*
X222623Y91144D02*
Y91423D01*
X222602Y106769D02*
X222869Y107036D01*
X237760Y108610D02*
Y112420D01*
Y131064D02*
X238014Y131318D01*
X222602Y99682D02*
X222869Y99416D01*
X238027Y87033D02*
Y89633D01*
X222602Y103492D02*
X222869Y103226D01*
X238027Y93485D02*
Y96914D01*
X222602Y88428D02*
Y91124D01*
X238125Y75311D02*
X238760Y74676D01*
X238125Y75311D02*
Y76835D01*
X250493Y34041D02*
X250520Y34068D01*
X246416Y65808D02*
Y74908D01*
X244348Y74168D02*
X245088Y74908D01*
X246416D01*
X244348Y72390D02*
Y74168D01*
X243586Y71628D02*
X244348Y72390D01*
X242554Y71628D02*
X243586D01*
X240654Y73544D02*
Y74676D01*
X241046Y73152D02*
X242062D01*
X240654Y73544D02*
X241046Y73152D01*
X242554Y71628D02*
Y72660D01*
X242062Y73152D02*
X242554Y72660D01*
X238760Y74676D02*
X240654D01*
X386610Y247142D02*
X388128Y248660D01*
X389288D01*
X386461Y246993D02*
X386610Y247142D01*
X386610D01*
X382905Y238506D02*
Y239786D01*
X383646Y240527D01*
Y242310D01*
Y242316D02*
X383882D01*
X381635D02*
X383646D01*
X379459Y243580D02*
X383888D01*
X379349Y243470D02*
X379459Y243580D01*
X383882Y242316D02*
X383888Y242310D01*
X380989Y241670D02*
X381635Y242316D01*
X379349Y241670D02*
X380989D01*
X383667Y237744D02*
X384545D01*
X382905Y238506D02*
X383667Y237744D01*
X386345Y237744D02*
X386461Y237860D01*
Y246993D01*
X395943Y242200D02*
X399415D01*
X395827Y242316D02*
X395943Y242200D01*
X389294Y242316D02*
X393827D01*
X389288Y242310D02*
X389294Y242316D01*
D21*
X114554Y65040D02*
D03*
Y67040D02*
D03*
X113993Y113775D02*
D03*
Y115775D02*
D03*
X184404Y101362D02*
D03*
Y103362D02*
D03*
X183642Y71750D02*
D03*
Y69750D02*
D03*
X245872Y100600D02*
D03*
Y102600D02*
D03*
X242824Y100600D02*
D03*
Y102600D02*
D03*
X479044Y108580D02*
D03*
Y106580D02*
D03*
X471932Y108580D02*
D03*
Y106580D02*
D03*
X509397Y108580D02*
D03*
Y106580D02*
D03*
X503555Y108580D02*
D03*
Y106580D02*
D03*
X565658Y108580D02*
D03*
Y106580D02*
D03*
X559816Y108580D02*
D03*
Y106580D02*
D03*
X369062Y108580D02*
D03*
Y106580D02*
D03*
X363220Y108580D02*
D03*
Y106580D02*
D03*
X380746Y108580D02*
D03*
Y106580D02*
D03*
X399923Y108580D02*
D03*
Y106580D02*
D03*
X634873Y108580D02*
D03*
Y106580D02*
D03*
X693293Y108580D02*
D03*
Y106580D02*
D03*
X687451Y108580D02*
D03*
Y106580D02*
D03*
X681609Y108580D02*
D03*
Y106580D02*
D03*
X704977Y108580D02*
D03*
Y106580D02*
D03*
X219456Y270780D02*
D03*
Y272780D02*
D03*
X227076D02*
D03*
Y270780D02*
D03*
X215900Y266176D02*
D03*
Y264176D02*
D03*
X238506Y290740D02*
D03*
Y288740D02*
D03*
X261874Y288915D02*
D03*
Y290915D02*
D03*
X245085Y293102D02*
D03*
Y291102D02*
D03*
X299974Y298295D02*
D03*
Y296295D02*
D03*
X294132Y298295D02*
D03*
Y296295D02*
D03*
X399415Y242300D02*
D03*
Y240300D02*
D03*
X370205Y243824D02*
D03*
Y241824D02*
D03*
X365125Y243824D02*
D03*
Y241824D02*
D03*
X379349Y241570D02*
D03*
Y243570D02*
D03*
X398145Y227308D02*
D03*
Y225308D02*
D03*
X224358Y38338D02*
D03*
Y36338D02*
D03*
X211947Y70474D02*
D03*
Y68474D02*
D03*
X214808Y65424D02*
D03*
Y63424D02*
D03*
X226898Y36338D02*
D03*
Y38338D02*
D03*
X215138Y68596D02*
D03*
Y70596D02*
D03*
X208712Y63536D02*
D03*
Y65536D02*
D03*
X227584Y59304D02*
D03*
Y57304D02*
D03*
X224790Y59304D02*
D03*
Y57304D02*
D03*
X221996Y59166D02*
D03*
Y57166D02*
D03*
X219456Y59050D02*
D03*
Y57050D02*
D03*
X227584Y62500D02*
D03*
Y64500D02*
D03*
X224536Y62500D02*
D03*
Y64500D02*
D03*
X222250Y62500D02*
D03*
Y64500D02*
D03*
X219964Y62500D02*
D03*
Y64500D02*
D03*
X237804Y36862D02*
D03*
Y38862D02*
D03*
X215697Y38490D02*
D03*
Y36490D02*
D03*
X186198Y116311D02*
D03*
Y114311D02*
D03*
X111760Y67294D02*
D03*
Y65294D02*
D03*
X247710Y36608D02*
D03*
Y38608D02*
D03*
X113522Y101367D02*
D03*
Y103367D02*
D03*
X233426Y87138D02*
D03*
Y89138D02*
D03*
X231394Y87138D02*
D03*
Y89138D02*
D03*
X226822Y87000D02*
D03*
Y89000D02*
D03*
X229108Y89022D02*
D03*
Y87022D02*
D03*
X217170Y65024D02*
D03*
Y63024D02*
D03*
X223012Y272780D02*
D03*
Y270780D02*
D03*
X231140D02*
D03*
Y272780D02*
D03*
X212344Y266176D02*
D03*
Y264176D02*
D03*
X145796Y240300D02*
D03*
Y242300D02*
D03*
X142240Y240300D02*
D03*
Y242300D02*
D03*
X138684Y240300D02*
D03*
Y242300D02*
D03*
X295656Y240300D02*
D03*
Y242300D02*
D03*
X292100Y240300D02*
D03*
Y242300D02*
D03*
X191516Y240792D02*
D03*
Y242792D02*
D03*
X187452Y240792D02*
D03*
Y242792D02*
D03*
X185420Y233696D02*
D03*
Y235696D02*
D03*
X181356Y233696D02*
D03*
Y235696D02*
D03*
X258699Y289005D02*
D03*
Y291005D02*
D03*
X248031Y298803D02*
D03*
Y296803D02*
D03*
X174498Y137430D02*
D03*
Y139430D02*
D03*
X221818Y36338D02*
D03*
Y38338D02*
D03*
X212039Y63602D02*
D03*
Y65602D02*
D03*
X213141Y36744D02*
D03*
Y38744D02*
D03*
X209839Y36982D02*
D03*
Y38982D02*
D03*
X210347Y57032D02*
D03*
Y55032D02*
D03*
X250520Y34068D02*
D03*
Y36068D02*
D03*
X213157Y57286D02*
D03*
Y55286D02*
D03*
X231978Y33814D02*
D03*
Y35814D02*
D03*
D22*
X255116Y102616D02*
D03*
X253116D02*
D03*
X242554Y74676D02*
D03*
X240554D02*
D03*
X615934Y108469D02*
D03*
X613934D02*
D03*
X207756Y266192D02*
D03*
X205756D02*
D03*
X202284Y266192D02*
D03*
X200284D02*
D03*
X245856Y270764D02*
D03*
X243856D02*
D03*
X260080Y237744D02*
D03*
X258080D02*
D03*
X183996Y238252D02*
D03*
X181996D02*
D03*
X257064Y240792D02*
D03*
X259064D02*
D03*
X181848Y241554D02*
D03*
X179848D02*
D03*
X241324Y293891D02*
D03*
X239324D02*
D03*
X241513Y298438D02*
D03*
X239513D02*
D03*
X386445Y237744D02*
D03*
X384445D02*
D03*
X250614Y38728D02*
D03*
X252614D02*
D03*
X238042Y32782D02*
D03*
X236042D02*
D03*
X235788Y30496D02*
D03*
X237788D02*
D03*
X235904Y34814D02*
D03*
X237904D02*
D03*
X242300Y78994D02*
D03*
X240300D02*
D03*
X242300Y83312D02*
D03*
X240300D02*
D03*
X242300Y81026D02*
D03*
X240300D02*
D03*
X242300Y76962D02*
D03*
X240300D02*
D03*
X214106Y73660D02*
D03*
X212106D02*
D03*
X206010Y76708D02*
D03*
X208010D02*
D03*
X251444Y78994D02*
D03*
X249444D02*
D03*
X214106Y77978D02*
D03*
X212106D02*
D03*
X214106Y80010D02*
D03*
X212106D02*
D03*
X242554Y71628D02*
D03*
X240554D02*
D03*
X222869Y129642D02*
D03*
X220869D02*
D03*
X222869Y126086D02*
D03*
X220869D02*
D03*
X222869Y122276D02*
D03*
X220869D02*
D03*
X222869Y118466D02*
D03*
X220869D02*
D03*
X222869Y114656D02*
D03*
X220869D02*
D03*
X222869Y110846D02*
D03*
X220869D02*
D03*
X222869Y107036D02*
D03*
X220869D02*
D03*
X222869Y103226D02*
D03*
X220869D02*
D03*
X222869Y99416D02*
D03*
X220869D02*
D03*
X222869Y95606D02*
D03*
X220869D02*
D03*
X222996Y91796D02*
D03*
X220996D02*
D03*
X222996Y87884D02*
D03*
X220996D02*
D03*
X240014Y131318D02*
D03*
X238014D02*
D03*
X239760Y86766D02*
D03*
X237760D02*
D03*
X239744Y89916D02*
D03*
X237744D02*
D03*
X239760Y93218D02*
D03*
X237760D02*
D03*
X239760Y97180D02*
D03*
X237760D02*
D03*
X239887Y100990D02*
D03*
X237887D02*
D03*
X239887Y104800D02*
D03*
X237887D02*
D03*
X239887Y108610D02*
D03*
X237887D02*
D03*
X239887Y112420D02*
D03*
X237887D02*
D03*
X239887Y116230D02*
D03*
X237887D02*
D03*
X239887Y120040D02*
D03*
X237887D02*
D03*
X239887Y123850D02*
D03*
X237887D02*
D03*
X239887Y127660D02*
D03*
X237887D02*
D03*
X359394Y108215D02*
D03*
X357394D02*
D03*
X376920D02*
D03*
X374920D02*
D03*
X396097D02*
D03*
X394097D02*
D03*
X286861Y242570D02*
D03*
X284861D02*
D03*
X281019D02*
D03*
X279019D02*
D03*
X261544Y294222D02*
D03*
X259544D02*
D03*
X225358Y297981D02*
D03*
X223358D02*
D03*
X241589Y300648D02*
D03*
X239589D02*
D03*
X395827Y242316D02*
D03*
X393827D02*
D03*
X394573Y226943D02*
D03*
X392573D02*
D03*
X441436Y250057D02*
D03*
X439436D02*
D03*
X208375Y70109D02*
D03*
X206375D02*
D03*
X208010Y74422D02*
D03*
X206010D02*
D03*
X213750Y60604D02*
D03*
X211750D02*
D03*
D23*
X153419Y66675D02*
D03*
Y65405D02*
D03*
Y67945D02*
D03*
Y62865D02*
D03*
Y64135D02*
D03*
Y61595D02*
D03*
Y59055D02*
D03*
Y60325D02*
D03*
X144269Y62865D02*
D03*
Y64135D02*
D03*
Y67945D02*
D03*
Y65405D02*
D03*
Y66675D02*
D03*
Y59055D02*
D03*
Y60325D02*
D03*
Y61595D02*
D03*
X153419Y102489D02*
D03*
Y101219D02*
D03*
Y103759D02*
D03*
Y98679D02*
D03*
Y99949D02*
D03*
Y97409D02*
D03*
Y94869D02*
D03*
Y96139D02*
D03*
X144269Y98679D02*
D03*
Y99949D02*
D03*
Y103759D02*
D03*
Y101219D02*
D03*
Y102489D02*
D03*
Y94869D02*
D03*
Y96139D02*
D03*
Y97409D02*
D03*
D24*
X235200Y296497D02*
D03*
Y295847D02*
D03*
Y297147D02*
D03*
Y294547D02*
D03*
Y293897D02*
D03*
Y295197D02*
D03*
Y298447D02*
D03*
Y297797D02*
D03*
Y291947D02*
D03*
Y292597D02*
D03*
Y290647D02*
D03*
Y289997D02*
D03*
Y291297D02*
D03*
Y293247D02*
D03*
X228300Y294547D02*
D03*
Y293897D02*
D03*
Y295197D02*
D03*
Y297797D02*
D03*
Y298447D02*
D03*
Y296497D02*
D03*
Y295847D02*
D03*
Y297147D02*
D03*
Y290647D02*
D03*
Y291297D02*
D03*
Y289997D02*
D03*
Y293247D02*
D03*
Y291947D02*
D03*
Y292597D02*
D03*
D25*
X240792Y274574D02*
D03*
Y272034D02*
D03*
Y273304D02*
D03*
Y270764D02*
D03*
X235312D02*
D03*
Y273304D02*
D03*
Y274574D02*
D03*
Y272034D02*
D03*
D26*
X389288Y248660D02*
D03*
Y249930D02*
D03*
Y246120D02*
D03*
Y247390D02*
D03*
Y244850D02*
D03*
Y242310D02*
D03*
Y243580D02*
D03*
X383888Y246120D02*
D03*
Y249930D02*
D03*
Y247390D02*
D03*
Y248660D02*
D03*
Y242310D02*
D03*
Y243580D02*
D03*
Y244850D02*
D03*
D27*
X234124Y40574D02*
D03*
Y38674D02*
D03*
X231724Y39624D02*
D03*
Y40574D02*
D03*
Y38674D02*
D03*
X244380Y35011D02*
D03*
Y33111D02*
D03*
X241980Y34061D02*
D03*
Y35011D02*
D03*
Y33111D02*
D03*
D28*
X215173Y48920D02*
D03*
D29*
X213903D02*
D03*
X211363D02*
D03*
X212633D02*
D03*
X213903Y42316D02*
D03*
X215173D02*
D03*
X211363D02*
D03*
X212633D02*
D03*
X210093Y48920D02*
D03*
X207553D02*
D03*
X208823D02*
D03*
Y42316D02*
D03*
X210093D02*
D03*
X207553D02*
D03*
D30*
X235817Y80700D02*
D03*
Y81200D02*
D03*
Y79700D02*
D03*
Y80200D02*
D03*
Y81700D02*
D03*
Y82200D02*
D03*
Y77200D02*
D03*
Y77700D02*
D03*
Y76200D02*
D03*
Y76700D02*
D03*
Y78700D02*
D03*
Y79200D02*
D03*
Y78200D02*
D03*
Y73700D02*
D03*
Y74200D02*
D03*
Y75200D02*
D03*
Y75700D02*
D03*
Y74700D02*
D03*
Y71200D02*
D03*
Y71700D02*
D03*
Y70200D02*
D03*
Y70700D02*
D03*
Y72700D02*
D03*
Y73200D02*
D03*
Y72200D02*
D03*
X220367Y80200D02*
D03*
Y79200D02*
D03*
Y79700D02*
D03*
Y81700D02*
D03*
Y82200D02*
D03*
Y80700D02*
D03*
Y81200D02*
D03*
Y76700D02*
D03*
Y77200D02*
D03*
Y75700D02*
D03*
Y76200D02*
D03*
Y78200D02*
D03*
Y78700D02*
D03*
Y77700D02*
D03*
Y73700D02*
D03*
Y74200D02*
D03*
Y74700D02*
D03*
Y75200D02*
D03*
Y71200D02*
D03*
Y71700D02*
D03*
Y70200D02*
D03*
Y70700D02*
D03*
Y72700D02*
D03*
Y73200D02*
D03*
Y72200D02*
D03*
D31*
X234092Y83925D02*
D03*
X233592D02*
D03*
X229592D02*
D03*
X229092D02*
D03*
X230592D02*
D03*
X230092D02*
D03*
X227592D02*
D03*
X227092D02*
D03*
X228592D02*
D03*
X228092D02*
D03*
X232092D02*
D03*
X231592D02*
D03*
X233092D02*
D03*
X232592D02*
D03*
X231092D02*
D03*
X229592Y68475D02*
D03*
X229092D02*
D03*
X230592D02*
D03*
X230092D02*
D03*
X227592D02*
D03*
X227092D02*
D03*
X228592D02*
D03*
X228092D02*
D03*
X233092D02*
D03*
X232592D02*
D03*
X234092D02*
D03*
X233592D02*
D03*
X231592D02*
D03*
X231092D02*
D03*
X232092D02*
D03*
X224092Y83925D02*
D03*
X223592D02*
D03*
X225092D02*
D03*
X224592D02*
D03*
X222092D02*
D03*
X223092D02*
D03*
X222592D02*
D03*
X226092D02*
D03*
X225592D02*
D03*
X226592D02*
D03*
X223092Y68475D02*
D03*
X224092D02*
D03*
X223592D02*
D03*
X222592D02*
D03*
X222092D02*
D03*
X225592D02*
D03*
X225092D02*
D03*
X226592D02*
D03*
X226092D02*
D03*
X224592D02*
D03*
D32*
X323143Y180532D02*
D03*
Y181182D02*
D03*
Y178482D02*
D03*
X320493Y179132D02*
D03*
Y181182D02*
D03*
Y178482D02*
D03*
D33*
X428038Y224149D02*
D03*
D34*
X421338D02*
D03*
Y226449D02*
D03*
Y221849D02*
D03*
D35*
X416384Y220980D02*
D03*
X402004D02*
D03*
D36*
X271926Y298684D02*
D03*
Y289784D02*
D03*
X266476Y298684D02*
D03*
Y289784D02*
D03*
D37*
X266351Y293434D02*
D03*
Y294234D02*
D03*
Y295834D02*
D03*
Y295034D02*
D03*
Y292634D02*
D03*
D38*
X256396Y297143D02*
D03*
Y294603D02*
D03*
Y295873D02*
D03*
Y293333D02*
D03*
X251096Y294603D02*
D03*
Y297143D02*
D03*
Y295873D02*
D03*
Y293333D02*
D03*
D39*
X261406Y297524D02*
D03*
X259853D02*
D03*
D40*
X539369Y108203D02*
D03*
Y106703D02*
D03*
X533527Y108203D02*
D03*
Y106703D02*
D03*
X657987Y108203D02*
D03*
Y106703D02*
D03*
X652145Y108203D02*
D03*
Y106703D02*
D03*
X646303Y108203D02*
D03*
Y106703D02*
D03*
X669671Y108203D02*
D03*
Y106703D02*
D03*
X282194Y297918D02*
D03*
Y296418D02*
D03*
X276352Y297918D02*
D03*
Y296418D02*
D03*
D41*
X254750Y99568D02*
D03*
X253250D02*
D03*
D42*
X314055Y240417D02*
D03*
X197612Y240792D02*
D03*
X248920Y89408D02*
D03*
X422275Y247904D02*
D03*
D43*
X311765Y233217D02*
D03*
X316345D02*
D03*
X195322Y233592D02*
D03*
X199902D02*
D03*
X251210Y96608D02*
D03*
X246630D02*
D03*
X419985Y240704D02*
D03*
X424565D02*
D03*
D44*
X352679Y243209D02*
D03*
Y237359D02*
D03*
D45*
X246416Y65808D02*
D03*
Y74908D02*
D03*
X250916D02*
D03*
Y65808D02*
D03*
X202148Y70844D02*
D03*
Y61744D02*
D03*
X197648Y70844D02*
D03*
Y61744D02*
D03*
D48*
X195580Y122367D02*
D03*
Y112018D02*
D03*
D76*
X169164Y31750D02*
D03*
Y34290D02*
D03*
X420116Y107707D02*
D03*
Y105167D02*
D03*
Y102627D02*
D03*
Y100087D02*
D03*
X412496Y105167D02*
D03*
Y102627D02*
D03*
Y100087D02*
D03*
X216980Y119178D02*
D03*
Y117268D02*
D03*
X232410Y140462D02*
D03*
Y143002D02*
D03*
X328676Y181356D02*
D03*
X324866Y58431D02*
D03*
Y55891D02*
D03*
Y60971D02*
D03*
Y50811D02*
D03*
Y53351D02*
D03*
Y45731D02*
D03*
Y48271D02*
D03*
Y111771D02*
D03*
Y109231D02*
D03*
Y114311D02*
D03*
Y104151D02*
D03*
Y106691D02*
D03*
Y99071D02*
D03*
Y101611D02*
D03*
Y83831D02*
D03*
Y81291D02*
D03*
Y86371D02*
D03*
Y76211D02*
D03*
Y78751D02*
D03*
Y71131D02*
D03*
Y73671D02*
D03*
X223520Y27443D02*
D03*
X226060D02*
D03*
X220980D02*
D03*
X228600D02*
D03*
X215900D02*
D03*
X213360D02*
D03*
X218440D02*
D03*
X245389Y299251D02*
D03*
X249682Y84582D02*
D03*
X325726Y140171D02*
D03*
Y134631D02*
D03*
Y131861D02*
D03*
Y137401D02*
D03*
X322886Y136016D02*
D03*
Y138786D02*
D03*
Y133246D02*
D03*
Y130476D02*
D03*
X382397Y274574D02*
D03*
X379857D02*
D03*
X377317D02*
D03*
X355092Y250190D02*
D03*
X357632D02*
D03*
X360172D02*
D03*
X312420Y33020D02*
D03*
D77*
X169164Y29210D02*
D03*
X216980Y115358D02*
D03*
X232410Y137922D02*
D03*
X328676Y178816D02*
D03*
X324866Y43191D02*
D03*
Y96531D02*
D03*
Y68591D02*
D03*
X325726Y129091D02*
D03*
X312420Y30480D02*
D03*
D78*
X195580Y122268D02*
D03*
Y112268D02*
D03*
D79*
X184404Y62484D02*
D03*
X183134Y63754D02*
D03*
Y61214D02*
D03*
X185690Y108707D02*
D03*
X184420Y109977D02*
D03*
Y107437D02*
D03*
X114316Y60457D02*
D03*
X113046Y59187D02*
D03*
X114316Y57917D02*
D03*
X115046Y109479D02*
D03*
X113776Y108209D02*
D03*
X115046Y106939D02*
D03*
X33640Y103378D02*
D03*
X53833D02*
D03*
X73899D02*
D03*
X94092D02*
D03*
X33915Y81500D02*
D03*
X54108D02*
D03*
X74301D02*
D03*
X94494D02*
D03*
X33767Y58980D02*
D03*
X53960D02*
D03*
X74153D02*
D03*
X94346D02*
D03*
D83*
X171589Y61966D02*
D03*
X171196Y110236D02*
D03*
X126029Y67933D02*
D03*
X127000Y114320D02*
D03*
D84*
X171589Y67066D02*
D03*
Y64516D02*
D03*
X171196Y115336D02*
D03*
Y112786D02*
D03*
X126029Y65383D02*
D03*
Y62833D02*
D03*
X127000Y111770D02*
D03*
Y109220D02*
D03*
D85*
X167894Y77216D02*
D03*
X167501Y125486D02*
D03*
X129725Y52683D02*
D03*
X130695Y99070D02*
D03*
D86*
X167894Y51816D02*
D03*
X167501Y100086D02*
D03*
X129725Y78083D02*
D03*
X130695Y124470D02*
D03*
D94*
X41140Y103378D02*
D03*
X61333D02*
D03*
X81399D02*
D03*
X101592D02*
D03*
X41415Y81500D02*
D03*
X61608D02*
D03*
X81801D02*
D03*
X101994D02*
D03*
X41267Y58980D02*
D03*
X61460D02*
D03*
X81653D02*
D03*
X101846D02*
D03*
D101*
X362492Y250283D02*
Y250625D01*
X362415Y250702D02*
Y251544D01*
X362492Y250283D02*
X362585Y250190D01*
X362415Y250702D02*
X362492Y250625D01*
X362415Y251544D02*
X363855Y252984D01*
X374015D01*
X377069Y249930D01*
X383888D01*
X379851Y247390D02*
X383888D01*
X371475Y239014D02*
X379851Y247390D01*
X360640Y239014D02*
X371475D01*
X365125Y250190D02*
X366395Y248920D01*
Y247904D02*
Y248920D01*
X360045Y241554D02*
X366395Y247904D01*
X360045Y239609D02*
Y241554D01*
Y239609D02*
X360640Y239014D01*
D102*
X358660Y250305D02*
X358775Y250190D01*
X362585D01*
X352679Y243209D02*
X352754D01*
X353219Y243674D01*
Y244634D01*
X355727Y247142D01*
X353739Y249130D02*
X355727Y247142D01*
X362349D01*
X365081Y249874D02*
Y250146D01*
X353739Y249130D02*
Y250146D01*
X353695Y250190D02*
X353739Y250146D01*
X362349Y247142D02*
X365081Y249874D01*
X365125Y243724D02*
X370205D01*
X370205Y243724D01*
Y250190D01*
X365081Y250146D02*
X365125Y250190D01*
X358660Y250305D02*
Y251829D01*
X357505Y252984D02*
X358660Y251829D01*
X352425Y252984D02*
X357505D01*
X351155Y251714D02*
X352425Y252984D01*
X351155Y250190D02*
Y251714D01*
D103*
X37084Y139827D02*
D03*
X250952Y143256D02*
D03*
Y127254D02*
D03*
X37084Y119761D02*
D03*
D104*
Y146177D02*
D03*
X250952Y136906D02*
D03*
Y120904D02*
D03*
X37084Y126111D02*
D03*
D105*
X412496Y107707D02*
D03*
X231140Y27443D02*
D03*
D106*
X385064Y108458D02*
D03*
X405384Y108723D02*
D03*
X422910D02*
D03*
X430276D02*
D03*
X457454D02*
D03*
X464566D02*
D03*
X485394D02*
D03*
X514985D02*
D03*
X526415D02*
D03*
X545211D02*
D03*
X552450D02*
D03*
X571246D02*
D03*
X577850D02*
D03*
X589280D02*
D03*
X602107D02*
D03*
X608076D02*
D03*
X619252D02*
D03*
X640461D02*
D03*
X663829D02*
D03*
X675513D02*
D03*
X698881D02*
D03*
X710565D02*
D03*
D107*
X499999Y105929D02*
D03*
Y108529D02*
D03*
X494411Y105929D02*
D03*
Y108529D02*
D03*
X631317Y105929D02*
D03*
Y108529D02*
D03*
X250190Y102422D02*
D03*
Y105022D02*
D03*
D108*
X499999Y103329D02*
D03*
X494411D02*
D03*
X631317D02*
D03*
X250190Y99822D02*
D03*
D109*
X343773Y180689D02*
D03*
Y182689D02*
D03*
D110*
Y178689D02*
D03*
D111*
X245389Y296711D02*
D03*
X249682Y82042D02*
D03*
D112*
X196088Y32004D02*
D03*
X198628D02*
D03*
X193548D02*
D03*
X191008D02*
D03*
X188468D02*
D03*
X201168Y29464D02*
D03*
X193548D02*
D03*
X191008D02*
D03*
X198628D02*
D03*
X196088D02*
D03*
X185928D02*
D03*
Y32004D02*
D03*
X183388D02*
D03*
Y29464D02*
D03*
X188468D02*
D03*
D113*
X201168Y32004D02*
D03*
D114*
X324306Y147131D02*
D03*
Y122131D02*
D03*
D115*
X374777Y274574D02*
D03*
X362712Y250190D02*
D03*
D116*
X434046Y245866D02*
D03*
D117*
X429046D02*
D03*
D118*
X147066Y164592D02*
D03*
D119*
X211430Y40259D02*
D03*
D03*
D120*
D03*
D121*
D03*
D03*
M02*
