G04*
G04 #@! TF.GenerationSoftware,Altium Limited,Altium Designer,21.5.1 (32)*
G04*
G04 Layer_Color=65535*
%FSLAX43Y43*%
%MOMM*%
G71*
G04*
G04 #@! TF.SameCoordinates,449709A0-46AC-47EF-B127-1EA7B65E703A*
G04*
G04*
G04 #@! TF.FilePolarity,Positive*
G04*
G01*
G75*
%ADD10C,0.250*%
%ADD11C,0.200*%
%ADD12C,0.600*%
%ADD13C,0.254*%
%ADD14C,0.178*%
%ADD15C,0.150*%
%ADD16C,0.400*%
%ADD17C,0.102*%
%ADD18C,0.178*%
%ADD19C,0.127*%
%ADD20C,0.152*%
D10*
X28659Y146177D02*
G03*
X28659Y146177I-125J0D01*
G01*
X412621Y109007D02*
G03*
X412621Y109007I-125J0D01*
G01*
X218430Y115368D02*
G03*
X218430Y115368I-125J0D01*
G01*
X144394Y68795D02*
G03*
X144394Y68795I-125J0D01*
G01*
Y104609D02*
G03*
X144394Y104609I-125J0D01*
G01*
X228425Y299172D02*
G03*
X228425Y299172I-125J0D01*
G01*
X240917Y269914D02*
G03*
X240917Y269914I-125J0D01*
G01*
X384013Y250830D02*
G03*
X384013Y250830I-125J0D01*
G01*
X231849Y41474D02*
G03*
X231849Y41474I-125J0D01*
G01*
X242105Y35911D02*
G03*
X242105Y35911I-125J0D01*
G01*
X220492Y82900D02*
G03*
X220492Y82900I-125J0D01*
G01*
X319643Y178482D02*
G03*
X319643Y178482I-125J0D01*
G01*
X500124Y102079D02*
G03*
X500124Y102079I-125J0D01*
G01*
X494536D02*
G03*
X494536Y102079I-125J0D01*
G01*
X631442D02*
G03*
X631442Y102079I-125J0D01*
G01*
X250315Y98572D02*
G03*
X250315Y98572I-125J0D01*
G01*
X173992Y61991D02*
G03*
X173992Y61991I-125J0D01*
G01*
X173598Y110261D02*
G03*
X173598Y110261I-125J0D01*
G01*
X123877Y67908D02*
G03*
X123877Y67908I-125J0D01*
G01*
X124848Y114295D02*
G03*
X124848Y114295I-125J0D01*
G01*
X421463Y227449D02*
G03*
X421463Y227449I-125J0D01*
G01*
X259627Y136906D02*
G03*
X259627Y136906I-125J0D01*
G01*
Y120904D02*
G03*
X259627Y120904I-125J0D01*
G01*
X28659Y126111D02*
G03*
X28659Y126111I-125J0D01*
G01*
X264801Y292634D02*
G03*
X264801Y292634I-125J0D01*
G01*
X251221Y298043D02*
G03*
X251221Y298043I-125J0D01*
G01*
X310540Y233217D02*
G03*
X310540Y233217I-125J0D01*
G01*
X194097Y233592D02*
G03*
X194097Y233592I-125J0D01*
G01*
X252685Y96608D02*
G03*
X252685Y96608I-125J0D01*
G01*
X418760Y240704D02*
G03*
X418760Y240704I-125J0D01*
G01*
D11*
X415671Y108797D02*
G03*
X416941Y108797I635J0D01*
G01*
X184520Y60478D02*
G03*
X184520Y64490I-1341J2006D01*
G01*
X185806Y106701D02*
G03*
X185806Y110713I-1341J2006D01*
G01*
X112930Y61193D02*
G03*
X112930Y57181I1341J-2006D01*
G01*
X113660Y110215D02*
G03*
X113660Y106203I1341J-2006D01*
G01*
X501334Y107863D02*
G03*
X500993Y108058I-1335J-1934D01*
G01*
X501099Y103852D02*
G03*
X501334Y103995I-1100J2077D01*
G01*
X499005Y108058D02*
G03*
X498899Y103852I994J-2129D01*
G01*
X495746Y107863D02*
G03*
X495405Y108058I-1335J-1934D01*
G01*
X495511Y103852D02*
G03*
X495746Y103995I-1100J2077D01*
G01*
X493417Y108058D02*
G03*
X493311Y103852I994J-2129D01*
G01*
X632652Y107863D02*
G03*
X632311Y108058I-1335J-1934D01*
G01*
X632417Y103852D02*
G03*
X632652Y103995I-1100J2077D01*
G01*
X630323Y108058D02*
G03*
X630217Y103852I994J-2129D01*
G01*
X251525Y104356D02*
G03*
X251184Y104551I-1335J-1934D01*
G01*
X251290Y100345D02*
G03*
X251525Y100488I-1100J2077D01*
G01*
X249196Y104551D02*
G03*
X249090Y100345I994J-2129D01*
G01*
X436546Y245866D02*
G03*
X436546Y245866I-5000J0D01*
G01*
X29184Y136652D02*
Y149352D01*
Y136652D02*
X41684D01*
X29184Y149352D02*
X41684D01*
X41684Y136652D02*
Y149352D01*
X113604Y64240D02*
X115504D01*
Y67840D01*
X113604Y64240D02*
Y67840D01*
X115504D01*
X113043Y112975D02*
X114943D01*
Y116575D01*
X113043Y112975D02*
Y116575D01*
X114943D01*
X183454Y100562D02*
X185354D01*
Y104162D01*
X183454Y100562D02*
Y104162D01*
X185354D01*
X182692Y72550D02*
X184592D01*
X182692Y68950D02*
Y72550D01*
X184592Y68950D02*
Y72550D01*
X182692Y68950D02*
X184592D01*
X255916Y101666D02*
Y103566D01*
X252316D02*
X255916D01*
X252316Y101666D02*
X255916D01*
X252316D02*
Y103566D01*
X244922Y99800D02*
X246822D01*
Y103400D01*
X244922Y99800D02*
Y103400D01*
X246822D01*
X241874Y99800D02*
X243774D01*
Y103400D01*
X241874Y99800D02*
Y103400D01*
X243774D01*
X416941Y108797D02*
X418956D01*
Y98997D02*
Y108797D01*
X413656Y98997D02*
Y108797D01*
X415671D01*
X413656Y98997D02*
X418956D01*
X200839Y122318D02*
X213939D01*
Y112218D02*
Y122318D01*
X200839Y112218D02*
Y122318D01*
Y112218D02*
X213939D01*
X145719Y68650D02*
X151969D01*
Y58350D02*
Y68650D01*
X145719Y58350D02*
Y68650D01*
Y58350D02*
X151969D01*
X145719Y104464D02*
X151969D01*
Y94164D02*
Y104464D01*
X145719Y94164D02*
Y104464D01*
Y94164D02*
X151969D01*
X229750Y299472D02*
X233750D01*
Y288972D02*
Y299472D01*
X229750Y288972D02*
Y299472D01*
Y288972D02*
X233750D01*
X236472Y275119D02*
X239632D01*
Y270219D02*
Y275119D01*
X236472Y270219D02*
X239632D01*
X236472D02*
Y275119D01*
X385213Y250495D02*
X387963D01*
Y241745D02*
Y250495D01*
X385213Y241745D02*
Y250495D01*
Y241745D02*
X387963D01*
X232774Y41174D02*
X233074D01*
Y38074D02*
Y41174D01*
X232774Y38074D02*
Y41174D01*
Y38074D02*
X233074D01*
X181292Y60674D02*
Y64294D01*
X182578Y106897D02*
Y110517D01*
X116157Y57377D02*
Y60997D01*
X243030Y35611D02*
X243330D01*
Y32511D02*
Y35611D01*
X243030Y32511D02*
Y35611D01*
Y32511D02*
X243330D01*
X116888Y106399D02*
Y110019D01*
X234692Y69600D02*
Y82800D01*
X221492D02*
X234692D01*
X221492Y69600D02*
X234692D01*
X221492D02*
Y82800D01*
X323418Y179087D02*
Y179927D01*
X321315Y181432D02*
X322321D01*
X321315Y178232D02*
X322321D01*
X320218Y179737D02*
Y180577D01*
X243354Y73726D02*
Y75626D01*
X239754D02*
X243354D01*
X239754Y73726D02*
X243354D01*
X239754D02*
Y75626D01*
X478094Y109380D02*
X479994D01*
X478094Y105780D02*
Y109380D01*
X479994Y105780D02*
Y109380D01*
X478094Y105780D02*
X479994D01*
X470982Y109380D02*
X472882D01*
X470982Y105780D02*
Y109380D01*
X472882Y105780D02*
Y109380D01*
X470982Y105780D02*
X472882D01*
X508447Y109380D02*
X510347D01*
X508447Y105780D02*
Y109380D01*
X510347Y105780D02*
Y109380D01*
X508447Y105780D02*
X510347D01*
X502605Y109380D02*
X504505D01*
X502605Y105780D02*
Y109380D01*
X504505Y105780D02*
Y109380D01*
X502605Y105780D02*
X504505D01*
X564708Y109380D02*
X566608D01*
X564708Y105780D02*
Y109380D01*
X566608Y105780D02*
Y109380D01*
X564708Y105780D02*
X566608D01*
X558866Y109380D02*
X560766D01*
X558866Y105780D02*
Y109380D01*
X560766Y105780D02*
Y109380D01*
X558866Y105780D02*
X560766D01*
X368112Y109380D02*
X370012D01*
X368112Y105780D02*
Y109380D01*
X370012Y105780D02*
Y109380D01*
X368112Y105780D02*
X370012D01*
X362270Y109380D02*
X364170D01*
X362270Y105780D02*
Y109380D01*
X364170Y105780D02*
Y109380D01*
X362270Y105780D02*
X364170D01*
X379796Y109380D02*
X381696D01*
X379796Y105780D02*
Y109380D01*
X381696Y105780D02*
Y109380D01*
X379796Y105780D02*
X381696D01*
X398973Y109380D02*
X400873D01*
X398973Y105780D02*
Y109380D01*
X400873Y105780D02*
Y109380D01*
X398973Y105780D02*
X400873D01*
X616734Y107519D02*
Y109419D01*
X613134D02*
X616734D01*
X613134Y107519D02*
X616734D01*
X613134D02*
Y109419D01*
X633923Y109380D02*
X635823D01*
X633923Y105780D02*
Y109380D01*
X635823Y105780D02*
Y109380D01*
X633923Y105780D02*
X635823D01*
X692343Y109380D02*
X694243D01*
X692343Y105780D02*
Y109380D01*
X694243Y105780D02*
Y109380D01*
X692343Y105780D02*
X694243D01*
X686501Y109380D02*
X688401D01*
X686501Y105780D02*
Y109380D01*
X688401Y105780D02*
Y109380D01*
X686501Y105780D02*
X688401D01*
X680659Y109380D02*
X682559D01*
X680659Y105780D02*
Y109380D01*
X682559Y105780D02*
Y109380D01*
X680659Y105780D02*
X682559D01*
X704027Y109380D02*
X705927D01*
X704027Y105780D02*
Y109380D01*
X705927Y105780D02*
Y109380D01*
X704027Y105780D02*
X705927D01*
X218506Y269980D02*
X220406D01*
Y273580D01*
X218506Y269980D02*
Y273580D01*
X220406D01*
X226126D02*
X228026D01*
X226126Y269980D02*
Y273580D01*
X228026Y269980D02*
Y273580D01*
X226126Y269980D02*
X228026D01*
X214950Y266976D02*
X216850D01*
X214950Y263376D02*
Y266976D01*
X216850Y263376D02*
Y266976D01*
X214950Y263376D02*
X216850D01*
X208556Y265242D02*
Y267142D01*
X204956D02*
X208556D01*
X204956Y265242D02*
X208556D01*
X204956D02*
Y267142D01*
X203084Y265242D02*
Y267142D01*
X199484D02*
X203084D01*
X199484Y265242D02*
X203084D01*
X199484D02*
Y267142D01*
X246656Y269814D02*
Y271714D01*
X243056D02*
X246656D01*
X243056Y269814D02*
X246656D01*
X243056D02*
Y271714D01*
X260880Y236794D02*
Y238694D01*
X257280D02*
X260880D01*
X257280Y236794D02*
X260880D01*
X257280D02*
Y238694D01*
X184796Y237302D02*
Y239202D01*
X181196D02*
X184796D01*
X181196Y237302D02*
X184796D01*
X181196D02*
Y239202D01*
X256264Y239842D02*
Y241742D01*
Y239842D02*
X259864D01*
X256264Y241742D02*
X259864D01*
Y239842D02*
Y241742D01*
X182648Y240604D02*
Y242504D01*
X179048D02*
X182648D01*
X179048Y240604D02*
X182648D01*
X179048D02*
Y242504D01*
X242124Y292941D02*
Y294841D01*
X238524D02*
X242124D01*
X238524Y292941D02*
X242124D01*
X238524D02*
Y294841D01*
X237556Y291540D02*
X239456D01*
X237556Y287940D02*
Y291540D01*
X239456Y287940D02*
Y291540D01*
X237556Y287940D02*
X239456D01*
X260924Y288115D02*
X262824D01*
Y291715D01*
X260924Y288115D02*
Y291715D01*
X262824D01*
X244135Y293902D02*
X246035D01*
X244135Y290302D02*
Y293902D01*
X246035Y290302D02*
Y293902D01*
X244135Y290302D02*
X246035D01*
X242313Y297488D02*
Y299388D01*
X238713D02*
X242313D01*
X238713Y297488D02*
X242313D01*
X238713D02*
Y299388D01*
X299024Y299095D02*
X300924D01*
X299024Y295495D02*
Y299095D01*
X300924Y295495D02*
Y299095D01*
X299024Y295495D02*
X300924D01*
X293182Y299095D02*
X295082D01*
X293182Y295495D02*
Y299095D01*
X295082Y295495D02*
Y299095D01*
X293182Y295495D02*
X295082D01*
X398465Y243100D02*
X400365D01*
X398465Y239500D02*
Y243100D01*
X400365Y239500D02*
Y243100D01*
X398465Y239500D02*
X400365D01*
X369255Y244624D02*
X371155D01*
X369255Y241024D02*
Y244624D01*
X371155Y241024D02*
Y244624D01*
X369255Y241024D02*
X371155D01*
X364175Y244624D02*
X366075D01*
X364175Y241024D02*
Y244624D01*
X366075Y241024D02*
Y244624D01*
X364175Y241024D02*
X366075D01*
X378399Y240770D02*
X380299D01*
Y244370D01*
X378399Y240770D02*
Y244370D01*
X380299D01*
X387245Y236794D02*
Y238694D01*
X383645D02*
X387245D01*
X383645Y236794D02*
X387245D01*
X383645D02*
Y238694D01*
X397195Y228108D02*
X399095D01*
X397195Y224508D02*
Y228108D01*
X399095Y224508D02*
Y228108D01*
X397195Y224508D02*
X399095D01*
X223408Y39138D02*
X225308D01*
X223408Y35538D02*
Y39138D01*
X225308Y35538D02*
Y39138D01*
X223408Y35538D02*
X225308D01*
X210997Y71274D02*
X212897D01*
X210997Y67674D02*
Y71274D01*
X212897Y67674D02*
Y71274D01*
X210997Y67674D02*
X212897D01*
X213858Y66224D02*
X215758D01*
X213858Y62624D02*
Y66224D01*
X215758Y62624D02*
Y66224D01*
X213858Y62624D02*
X215758D01*
X225948Y35538D02*
X227848D01*
Y39138D01*
X225948Y35538D02*
Y39138D01*
X227848D01*
X214188Y67796D02*
X216088D01*
Y71396D01*
X214188Y67796D02*
Y71396D01*
X216088D01*
X207762Y62736D02*
X209662D01*
Y66336D01*
X207762Y62736D02*
Y66336D01*
X209662D01*
X226634Y60104D02*
X228534D01*
X226634Y56504D02*
Y60104D01*
X228534Y56504D02*
Y60104D01*
X226634Y56504D02*
X228534D01*
X223840Y60104D02*
X225740D01*
X223840Y56504D02*
Y60104D01*
X225740Y56504D02*
Y60104D01*
X223840Y56504D02*
X225740D01*
X221046Y59966D02*
X222946D01*
X221046Y56366D02*
Y59966D01*
X222946Y56366D02*
Y59966D01*
X221046Y56366D02*
X222946D01*
X218506Y59850D02*
X220406D01*
X218506Y56250D02*
Y59850D01*
X220406Y56250D02*
Y59850D01*
X218506Y56250D02*
X220406D01*
X226634Y61700D02*
X228534D01*
Y65300D01*
X226634Y61700D02*
Y65300D01*
X228534D01*
X223586Y61700D02*
X225486D01*
Y65300D01*
X223586Y61700D02*
Y65300D01*
X225486D01*
X221300Y61700D02*
X223200D01*
Y65300D01*
X221300Y61700D02*
Y65300D01*
X223200D01*
X219014Y61700D02*
X220914D01*
Y65300D01*
X219014Y61700D02*
Y65300D01*
X220914D01*
X236854Y36062D02*
X238754D01*
Y39662D01*
X236854Y36062D02*
Y39662D01*
X238754D01*
X214747Y39290D02*
X216647D01*
X214747Y35690D02*
Y39290D01*
X216647Y35690D02*
Y39290D01*
X214747Y35690D02*
X216647D01*
X185248Y117111D02*
X187148D01*
X185248Y113511D02*
Y117111D01*
X187148Y113511D02*
Y117111D01*
X185248Y113511D02*
X187148D01*
X110810Y68094D02*
X112710D01*
X110810Y64494D02*
Y68094D01*
X112710Y64494D02*
Y68094D01*
X110810Y64494D02*
X112710D01*
X246760Y35808D02*
X248660D01*
Y39408D01*
X246760Y35808D02*
Y39408D01*
X248660D01*
X249814Y37778D02*
Y39678D01*
Y37778D02*
X253414D01*
X249814Y39678D02*
X253414D01*
Y37778D02*
Y39678D01*
X238842Y31832D02*
Y33732D01*
X235242D02*
X238842D01*
X235242Y31832D02*
X238842D01*
X235242D02*
Y33732D01*
X234988Y29546D02*
Y31446D01*
Y29546D02*
X238588D01*
X234988Y31446D02*
X238588D01*
Y29546D02*
Y31446D01*
X112572Y100567D02*
X114472D01*
Y104167D01*
X112572Y100567D02*
Y104167D01*
X114472D01*
X235104Y33864D02*
Y35764D01*
Y33864D02*
X238704D01*
X235104Y35764D02*
X238704D01*
Y33864D02*
Y35764D01*
X243100Y78044D02*
Y79944D01*
X239500D02*
X243100D01*
X239500Y78044D02*
X243100D01*
X239500D02*
Y79944D01*
X243100Y82362D02*
Y84262D01*
X239500D02*
X243100D01*
X239500Y82362D02*
X243100D01*
X239500D02*
Y84262D01*
X243100Y80076D02*
Y81976D01*
X239500D02*
X243100D01*
X239500Y80076D02*
X243100D01*
X239500D02*
Y81976D01*
X243100Y76012D02*
Y77912D01*
X239500D02*
X243100D01*
X239500Y76012D02*
X243100D01*
X239500D02*
Y77912D01*
X214906Y72710D02*
Y74610D01*
X211306D02*
X214906D01*
X211306Y72710D02*
X214906D01*
X211306D02*
Y74610D01*
X205210Y75758D02*
Y77658D01*
Y75758D02*
X208810D01*
X205210Y77658D02*
X208810D01*
Y75758D02*
Y77658D01*
X252244Y78044D02*
Y79944D01*
X248644D02*
X252244D01*
X248644Y78044D02*
X252244D01*
X248644D02*
Y79944D01*
X232476Y86338D02*
X234376D01*
Y89938D01*
X232476Y86338D02*
Y89938D01*
X234376D01*
X214906Y77028D02*
Y78928D01*
X211306D02*
X214906D01*
X211306Y77028D02*
X214906D01*
X211306D02*
Y78928D01*
X214906Y79060D02*
Y80960D01*
X211306D02*
X214906D01*
X211306Y79060D02*
X214906D01*
X211306D02*
Y80960D01*
X230444Y86338D02*
X232344D01*
Y89938D01*
X230444Y86338D02*
Y89938D01*
X232344D01*
X225872Y86200D02*
X227772D01*
Y89800D01*
X225872Y86200D02*
Y89800D01*
X227772D01*
X228158Y89822D02*
X230058D01*
X228158Y86222D02*
Y89822D01*
X230058Y86222D02*
Y89822D01*
X228158Y86222D02*
X230058D01*
X501334Y103995D02*
Y107863D01*
X495746Y103995D02*
Y107863D01*
X632652Y103995D02*
Y107863D01*
X251525Y100488D02*
Y104356D01*
X168642Y69716D02*
X173242D01*
X168642Y59316D02*
X173242D01*
X168642D02*
Y69716D01*
X180394Y43516D02*
Y85516D01*
X173242Y59316D02*
Y69716D01*
X155394Y85516D02*
X180394D01*
X155394Y43516D02*
X180394D01*
X155394D02*
Y85516D01*
X168249Y117986D02*
X172848D01*
X168249Y107586D02*
X172848D01*
X168249D02*
Y117986D01*
X180001Y91786D02*
Y133786D01*
X172848Y107586D02*
Y117986D01*
X155001Y133786D02*
X180001D01*
X155001Y91786D02*
X180001D01*
X155001D02*
Y133786D01*
X142225Y44383D02*
Y86383D01*
X128977Y60183D02*
Y70583D01*
X117225Y86383D02*
X142225D01*
X124377Y70583D02*
X128977D01*
X124377Y60183D02*
Y70583D01*
Y60183D02*
X128977D01*
X117225Y44383D02*
X142225D01*
X117225D02*
Y86383D01*
X143195Y90770D02*
Y132770D01*
X129947Y106570D02*
Y116970D01*
X118196Y132770D02*
X143195D01*
X125348Y116970D02*
X129947D01*
X125348Y106570D02*
Y116970D01*
Y106570D02*
X129947D01*
X118196Y90770D02*
X143195D01*
X118196D02*
Y132770D01*
X426788Y220799D02*
Y227499D01*
X422588D02*
X426788D01*
X422588Y220799D02*
X426788D01*
X422588D02*
Y227499D01*
X326136Y41921D02*
Y62241D01*
X323596D02*
X326136D01*
X323596Y41921D02*
X326136D01*
X323596D02*
Y62241D01*
X326136Y95261D02*
Y115581D01*
X323596D02*
X326136D01*
X323596Y95261D02*
X326136D01*
X323596D02*
Y115581D01*
X326136Y67321D02*
Y87641D01*
X323596D02*
X326136D01*
X323596Y67321D02*
X326136D01*
X323596D02*
Y87641D01*
X232410Y26173D02*
Y28713D01*
X212090D02*
X232410D01*
X212090Y26173D02*
X232410D01*
X212090D02*
Y28713D01*
X413798Y228600D02*
X418370Y224028D01*
X418338D02*
X418370D01*
X404717Y228600D02*
X413798D01*
X418338Y221591D02*
Y224028D01*
Y219202D02*
Y221591D01*
X413671Y213360D02*
X418338Y219202D01*
X400145Y224028D02*
X404717Y228600D01*
X400145Y224028D02*
X400177D01*
Y219202D02*
X404590Y213360D01*
X413671D01*
X400177Y219202D02*
Y224028D01*
X258852Y133731D02*
Y146431D01*
X246352D02*
X258852D01*
X246352Y133731D02*
X258852D01*
X246352Y133731D02*
Y146431D01*
X258852Y117729D02*
Y130429D01*
X246352D02*
X258852D01*
X246352Y117729D02*
X258852D01*
X246352Y117729D02*
Y130429D01*
X41684Y116586D02*
Y129286D01*
X29184Y129286D02*
X41684D01*
X29184Y116586D02*
X41684D01*
X29184D02*
Y129286D01*
X202588Y28119D02*
Y33349D01*
X181968D02*
X202588D01*
X181968Y28119D02*
X202588D01*
X181968D02*
Y33349D01*
X314806Y150031D02*
X327306D01*
Y119231D02*
Y150031D01*
X314806Y119231D02*
X327306D01*
X314806D02*
Y150031D01*
X268126Y298084D02*
X270276D01*
X273576D02*
X274906D01*
Y290384D02*
Y298084D01*
X273576Y290384D02*
X274906D01*
X268126D02*
X270276D01*
X265706Y296484D02*
Y297284D01*
Y291184D02*
Y291984D01*
X252546Y297738D02*
X254946D01*
Y292738D02*
Y297738D01*
X252546Y292738D02*
Y297738D01*
Y292738D02*
X254946D01*
X259200Y298453D02*
X262059D01*
X259200Y296594D02*
X262059D01*
X317325Y236017D02*
Y237164D01*
X310785Y236017D02*
X317325D01*
X310785D02*
Y237164D01*
X200882Y236392D02*
Y237539D01*
X194342Y236392D02*
X200882D01*
X194342D02*
Y237539D01*
X252190Y92661D02*
Y93808D01*
X245650D02*
X252190D01*
X245650Y92661D02*
Y93808D01*
X425545Y243504D02*
Y244651D01*
X419005Y243504D02*
Y244651D01*
Y243504D02*
X425545D01*
X243354Y70678D02*
Y72578D01*
X239754D02*
X243354D01*
X239754Y70678D02*
X243354D01*
X239754D02*
Y72578D01*
X218120Y62224D02*
Y65824D01*
X216220D02*
X218120D01*
X216220Y62224D02*
X218120D01*
X216220D02*
Y65824D01*
X223669Y128692D02*
Y130592D01*
X220069D02*
X223669D01*
X220069Y128692D02*
X223669D01*
X220069D02*
Y130592D01*
X223669Y125136D02*
Y127036D01*
X220069D02*
X223669D01*
X220069Y125136D02*
X223669D01*
X220069D02*
Y127036D01*
X223669Y121326D02*
Y123226D01*
X220069D02*
X223669D01*
X220069Y121326D02*
X223669D01*
X220069D02*
Y123226D01*
X223669Y117516D02*
Y119416D01*
X220069D02*
X223669D01*
X220069Y117516D02*
X223669D01*
X220069D02*
Y119416D01*
X223669Y113706D02*
Y115606D01*
X220069D02*
X223669D01*
X220069Y113706D02*
X223669D01*
X220069D02*
Y115606D01*
X223669Y109896D02*
Y111796D01*
X220069D02*
X223669D01*
X220069Y109896D02*
X223669D01*
X220069D02*
Y111796D01*
X223669Y106086D02*
Y107986D01*
X220069D02*
X223669D01*
X220069Y106086D02*
X223669D01*
X220069D02*
Y107986D01*
X223669Y102276D02*
Y104176D01*
X220069D02*
X223669D01*
X220069Y102276D02*
X223669D01*
X220069D02*
Y104176D01*
X223669Y98466D02*
Y100366D01*
X220069D02*
X223669D01*
X220069Y98466D02*
X223669D01*
X220069D02*
Y100366D01*
X223669Y94656D02*
Y96556D01*
X220069D02*
X223669D01*
X220069Y94656D02*
X223669D01*
X220069D02*
Y96556D01*
X223796Y90846D02*
Y92746D01*
X220196D02*
X223796D01*
X220196Y90846D02*
X223796D01*
X220196D02*
Y92746D01*
X223796Y86934D02*
Y88834D01*
X220196D02*
X223796D01*
X220196Y86934D02*
X223796D01*
X220196D02*
Y88834D01*
X240814Y130368D02*
Y132268D01*
X237214D02*
X240814D01*
X237214Y130368D02*
X240814D01*
X237214D02*
Y132268D01*
X240560Y85816D02*
Y87716D01*
X236960D02*
X240560D01*
X236960Y85816D02*
X240560D01*
X236960D02*
Y87716D01*
X240544Y88966D02*
Y90866D01*
X236944D02*
X240544D01*
X236944Y88966D02*
X240544D01*
X236944D02*
Y90866D01*
X240560Y92268D02*
Y94168D01*
X236960D02*
X240560D01*
X236960Y92268D02*
X240560D01*
X236960D02*
Y94168D01*
X240560Y96230D02*
Y98130D01*
X236960D02*
X240560D01*
X236960Y96230D02*
X240560D01*
X236960D02*
Y98130D01*
X240687Y100040D02*
Y101940D01*
X237087D02*
X240687D01*
X237087Y100040D02*
X240687D01*
X237087D02*
Y101940D01*
X240687Y103850D02*
Y105750D01*
X237087D02*
X240687D01*
X237087Y103850D02*
X240687D01*
X237087D02*
Y105750D01*
X240687Y107660D02*
Y109560D01*
X237087D02*
X240687D01*
X237087Y107660D02*
X240687D01*
X237087D02*
Y109560D01*
X240687Y111470D02*
Y113370D01*
X237087D02*
X240687D01*
X237087Y111470D02*
X240687D01*
X237087D02*
Y113370D01*
X240687Y115280D02*
Y117180D01*
X237087D02*
X240687D01*
X237087Y115280D02*
X240687D01*
X237087D02*
Y117180D01*
X240687Y119090D02*
Y120990D01*
X237087D02*
X240687D01*
X237087Y119090D02*
X240687D01*
X237087D02*
Y120990D01*
X240687Y122900D02*
Y124800D01*
X237087D02*
X240687D01*
X237087Y122900D02*
X240687D01*
X237087D02*
Y124800D01*
X240687Y126710D02*
Y128610D01*
X237087D02*
X240687D01*
X237087Y126710D02*
X240687D01*
X237087D02*
Y128610D01*
X360194Y107265D02*
Y109165D01*
X356594D02*
X360194D01*
X356594Y107265D02*
X360194D01*
X356594D02*
Y109165D01*
X377720Y107265D02*
Y109165D01*
X374120D02*
X377720D01*
X374120Y107265D02*
X377720D01*
X374120D02*
Y109165D01*
X396897Y107265D02*
Y109165D01*
X393297D02*
X396897D01*
X393297Y107265D02*
X396897D01*
X393297D02*
Y109165D01*
X223962Y269980D02*
Y273580D01*
X222062D02*
X223962D01*
X222062Y269980D02*
X223962D01*
X222062D02*
Y273580D01*
X232090Y269980D02*
Y273580D01*
X230190D02*
X232090D01*
X230190Y269980D02*
X232090D01*
X230190D02*
Y273580D01*
X213294Y263376D02*
Y266976D01*
X211394D02*
X213294D01*
X211394Y263376D02*
X213294D01*
X211394D02*
Y266976D01*
X146746Y239500D02*
Y243100D01*
X144846D02*
X146746D01*
X144846Y239500D02*
X146746D01*
X144846D02*
Y243100D01*
X143190Y239500D02*
Y243100D01*
X141290D02*
X143190D01*
X141290Y239500D02*
X143190D01*
X141290D02*
Y243100D01*
X139634Y239500D02*
Y243100D01*
X137734D02*
X139634D01*
X137734Y239500D02*
X139634D01*
X137734D02*
Y243100D01*
X296606Y239500D02*
Y243100D01*
X294706D02*
X296606D01*
X294706Y239500D02*
X296606D01*
X294706D02*
Y243100D01*
X293050Y239500D02*
Y243100D01*
X291150D02*
X293050D01*
X291150Y239500D02*
X293050D01*
X291150D02*
Y243100D01*
X287661Y241620D02*
Y243520D01*
X284061D02*
X287661D01*
X284061Y241620D02*
X287661D01*
X284061D02*
Y243520D01*
X281819Y241620D02*
Y243520D01*
X278219D02*
X281819D01*
X278219Y241620D02*
X281819D01*
X278219D02*
Y243520D01*
X192466Y239992D02*
Y243592D01*
X190566D02*
X192466D01*
X190566Y239992D02*
X192466D01*
X190566D02*
Y243592D01*
X188402Y239992D02*
Y243592D01*
X186502D02*
X188402D01*
X186502Y239992D02*
X188402D01*
X186502D02*
Y243592D01*
X186370Y232896D02*
Y236496D01*
X184470D02*
X186370D01*
X184470Y232896D02*
X186370D01*
X184470D02*
Y236496D01*
X182306Y232896D02*
Y236496D01*
X180406D02*
X182306D01*
X180406Y232896D02*
X182306D01*
X180406D02*
Y236496D01*
X262344Y293272D02*
Y295172D01*
X258744D02*
X262344D01*
X258744Y293272D02*
X262344D01*
X258744D02*
Y295172D01*
X226158Y297031D02*
Y298931D01*
X222558D02*
X226158D01*
X222558Y297031D02*
X226158D01*
X222558D02*
Y298931D01*
X259649Y288205D02*
Y291805D01*
X257749D02*
X259649D01*
X257749Y288205D02*
X259649D01*
X257749D02*
Y291805D01*
X248981Y296003D02*
Y299603D01*
X247081D02*
X248981D01*
X247081Y296003D02*
X248981D01*
X247081D02*
Y299603D01*
X242389Y299698D02*
Y301598D01*
X238789D02*
X242389D01*
X238789Y299698D02*
X242389D01*
X238789D02*
Y301598D01*
X175448Y136630D02*
Y140230D01*
X173548D02*
X175448D01*
X173548Y136630D02*
X175448D01*
X173548D02*
Y140230D01*
X44265Y97278D02*
Y109478D01*
X64458Y97278D02*
Y109478D01*
X84524Y97278D02*
Y109478D01*
X104717Y97278D02*
Y109478D01*
X44540Y75400D02*
Y87600D01*
X64733Y75400D02*
Y87600D01*
X84926Y75400D02*
Y87600D01*
X105119Y75400D02*
Y87600D01*
X44392Y52880D02*
Y65080D01*
X64585Y52880D02*
Y65080D01*
X84778Y52880D02*
Y65080D01*
X104971Y52880D02*
Y65080D01*
X396627Y241366D02*
Y243266D01*
X393027D02*
X396627D01*
X393027Y241366D02*
X396627D01*
X393027D02*
Y243266D01*
X354254Y244084D02*
X354979D01*
Y236484D02*
Y244084D01*
X354254Y236484D02*
X354979D01*
X350379Y244084D02*
X351104D01*
X350379Y236484D02*
X351104D01*
X350379D02*
Y244084D01*
X395373Y225993D02*
Y227893D01*
X391773D02*
X395373D01*
X391773Y225993D02*
X395373D01*
X391773D02*
Y227893D01*
X442236Y249107D02*
Y251007D01*
X438636D02*
X442236D01*
X438636Y249107D02*
X442236D01*
X438636D02*
Y251007D01*
X428129Y247620D02*
Y248620D01*
X427629Y248120D02*
X428629D01*
X222768Y35538D02*
Y39138D01*
X220868D02*
X222768D01*
X220868Y35538D02*
X222768D01*
X220868D02*
Y39138D01*
X209175Y69159D02*
Y71059D01*
X205575D02*
X209175D01*
X205575Y69159D02*
X209175D01*
X205575D02*
Y71059D01*
X212989Y62802D02*
Y66402D01*
X211089D02*
X212989D01*
X211089Y62802D02*
X212989D01*
X211089D02*
Y66402D01*
X214091Y35944D02*
Y39544D01*
X212191D02*
X214091D01*
X212191Y35944D02*
X214091D01*
X212191D02*
Y39544D01*
X210789Y36182D02*
Y39782D01*
X208889D02*
X210789D01*
X208889Y36182D02*
X210789D01*
X208889D02*
Y39782D01*
X211297Y54232D02*
Y57832D01*
X209397D02*
X211297D01*
X209397Y54232D02*
X211297D01*
X209397D02*
Y57832D01*
X251470Y33268D02*
Y36868D01*
X249570D02*
X251470D01*
X249570Y33268D02*
X251470D01*
X249570D02*
Y36868D01*
X214107Y54486D02*
Y58086D01*
X212207D02*
X214107D01*
X212207Y54486D02*
X214107D01*
X212207D02*
Y58086D01*
X232928Y33014D02*
Y36614D01*
X231028D02*
X232928D01*
X231028Y33014D02*
X232928D01*
X231028D02*
Y36614D01*
X208810Y73472D02*
Y75372D01*
X205210D02*
X208810D01*
X205210Y73472D02*
X208810D01*
X205210D02*
Y75372D01*
X214550Y59654D02*
Y61554D01*
X210950D02*
X214550D01*
X210950Y59654D02*
X214550D01*
X210950D02*
Y61554D01*
D12*
X414956Y107797D02*
G03*
X414956Y107797I-300J0D01*
G01*
X147019Y67650D02*
G03*
X147019Y67650I-300J0D01*
G01*
Y103464D02*
G03*
X147019Y103464I-300J0D01*
G01*
X231050Y298472D02*
G03*
X231050Y298472I-300J0D01*
G01*
X238927Y271169D02*
G03*
X238927Y271169I-300J0D01*
G01*
X386513Y249520D02*
G03*
X386513Y249520I-300J0D01*
G01*
X222792Y81800D02*
G03*
X222792Y81800I-300J0D01*
G01*
X253846Y296738D02*
G03*
X253846Y296738I-300J0D01*
G01*
D13*
X215173Y47015D02*
G03*
X215173Y47015I-127J0D01*
G01*
X250016Y70358D02*
G03*
X250016Y70358I-1350J0D01*
G01*
X201248Y66294D02*
G03*
X201248Y66294I-1350J0D01*
G01*
X166624Y27940D02*
Y35560D01*
Y27940D02*
X172466D01*
Y35560D01*
X166624D02*
X172466D01*
X215681Y43713D02*
Y47523D01*
X206918D02*
X215554D01*
X206918Y43713D02*
X215554D01*
X206918D02*
Y47523D01*
X235712Y136652D02*
Y144272D01*
X229870D02*
X235712D01*
X229870Y136652D02*
X235712D01*
X229870D02*
Y144272D01*
X331851Y177546D02*
Y182626D01*
X326136Y177546D02*
X331851D01*
X326136Y182626D02*
X331851D01*
X326136Y177546D02*
Y182626D01*
X338973Y180189D02*
X342773D01*
X338973Y183189D02*
X342773D01*
X338973Y182189D02*
X342773D01*
X338973Y181189D02*
X342773D01*
X344773Y176589D02*
Y184789D01*
X342773Y176589D02*
Y184789D01*
X338973Y179189D02*
X342773D01*
X338973Y178189D02*
X342773D01*
X338473Y182689D02*
X338973Y183189D01*
X337573Y184789D02*
X344773D01*
X338473Y180689D02*
X338973Y181189D01*
X338473Y182689D02*
X338973Y182189D01*
X338473Y180689D02*
X338973Y180189D01*
X338473Y178689D02*
X338973Y179189D01*
X337573Y176589D02*
X344773D01*
X337573D02*
Y184789D01*
X338473Y178689D02*
X338973Y178189D01*
X246659Y295441D02*
Y300521D01*
X244119D02*
X246659D01*
X244119Y295441D02*
X246659D01*
X244119D02*
Y300521D01*
X250952Y80772D02*
Y85852D01*
X248412D02*
X250952D01*
X248412Y80772D02*
X250952D01*
X248412D02*
Y85852D01*
X373507Y253873D02*
X383677D01*
X373507D02*
Y275971D01*
X383677D01*
Y254000D02*
Y275844D01*
X353812Y270891D02*
X363982D01*
Y248793D02*
Y270891D01*
X353812Y248793D02*
X363982D01*
X353812Y248920D02*
Y270764D01*
X245999Y67818D02*
Y72898D01*
Y67818D02*
X251333D01*
Y72898D01*
X245999D02*
X251333D01*
X197231Y63754D02*
X202565D01*
Y68834D01*
X197231D02*
X202565D01*
X197231Y63754D02*
Y68834D01*
X174244Y37019D02*
X174371Y37146D01*
Y37400D01*
X174244Y37527D01*
X174117D01*
X173990Y37400D01*
Y37146D01*
X173863Y37019D01*
X173736D01*
X173609Y37146D01*
Y37400D01*
X173736Y37527D01*
X173609Y36638D02*
Y36384D01*
X173736Y36257D01*
X173990D01*
X174117Y36384D01*
Y36638D01*
X173990Y36765D01*
X173736D01*
X173609Y36638D01*
Y36003D02*
Y35750D01*
Y35876D01*
X174371D01*
Y36003D01*
X174117Y35242D02*
Y34988D01*
X173990Y34861D01*
X173609D01*
Y35242D01*
X173736Y35369D01*
X173863Y35242D01*
Y34861D01*
X174117Y34607D02*
X173609D01*
X173863D01*
X173990Y34480D01*
X174117Y34353D01*
Y34226D01*
X173609Y32956D02*
Y32703D01*
X173736Y32576D01*
X173990D01*
X174117Y32703D01*
Y32956D01*
X173990Y33083D01*
X173736D01*
X173609Y32956D01*
X174117Y32322D02*
X173609D01*
X173863D01*
X173990Y32195D01*
X174117Y32068D01*
Y31941D01*
X173609Y30798D02*
X174117D01*
X174371Y30544D01*
X174117Y30290D01*
X173609D01*
X173990D01*
Y30798D01*
X174117Y29529D02*
Y29909D01*
X173990Y30036D01*
X173736D01*
X173609Y29909D01*
Y29529D01*
X174117Y28767D02*
Y29148D01*
X173990Y29275D01*
X173736D01*
X173609Y29148D01*
Y28767D01*
X174117Y28513D02*
X173736D01*
X173609Y28386D01*
Y28005D01*
X174117D01*
D14*
X325520Y32420D02*
G03*
X324920Y33020I-600J0D01*
G01*
Y30480D02*
G03*
X325520Y31080I0J600D01*
G01*
D15*
X46640Y103378D02*
G03*
X46640Y103378I-9250J0D01*
G01*
X66833D02*
G03*
X66833Y103378I-9250J0D01*
G01*
X86899D02*
G03*
X86899Y103378I-9250J0D01*
G01*
X107092D02*
G03*
X107092Y103378I-9250J0D01*
G01*
X46915Y81500D02*
G03*
X46915Y81500I-9250J0D01*
G01*
X67108D02*
G03*
X67108Y81500I-9250J0D01*
G01*
X87301D02*
G03*
X87301Y81500I-9250J0D01*
G01*
X107494D02*
G03*
X107494Y81500I-9250J0D01*
G01*
X46767Y58980D02*
G03*
X46767Y58980I-9250J0D01*
G01*
X66960D02*
G03*
X66960Y58980I-9250J0D01*
G01*
X87153D02*
G03*
X87153Y58980I-9250J0D01*
G01*
X107346D02*
G03*
X107346Y58980I-9250J0D01*
G01*
D16*
X538969Y109103D02*
X539769D01*
X533127D02*
X533927D01*
X657587D02*
X658387D01*
X651745D02*
X652545D01*
X645903D02*
X646703D01*
X669271D02*
X670071D01*
X281794Y298818D02*
X282594D01*
X275952D02*
X276752D01*
X252350Y99168D02*
Y99968D01*
X350379Y244809D02*
X354979D01*
D17*
X317320Y34550D02*
X330120D01*
Y28950D02*
Y34550D01*
X317320Y28950D02*
X330120D01*
D18*
X325520Y31080D02*
Y32420D01*
X324466Y32639D02*
X324847Y33020D01*
X324466Y33401D02*
X324847Y33020D01*
X317354Y30861D02*
X324466D01*
Y30099D02*
X324847Y30480D01*
X324466Y30861D02*
X324847Y30480D01*
X317354Y30099D02*
X324466D01*
X317354Y32639D02*
X324466D01*
X317320Y33020D02*
X324920D01*
X317320Y30480D02*
X324920D01*
X314120Y34550D02*
X317320D01*
X317354Y33401D02*
X324466D01*
X317320Y28956D02*
Y34550D01*
X314120Y28956D02*
X317320D01*
X314120D02*
Y34550D01*
D19*
X29175Y151435D02*
X28921D01*
X29048D01*
Y150800D01*
X28921Y150673D01*
X28794D01*
X28667Y150800D01*
X29937Y151435D02*
X29429D01*
Y151054D01*
X29683Y151181D01*
X29810D01*
X29937Y151054D01*
Y150800D01*
X29810Y150673D01*
X29556D01*
X29429Y150800D01*
X412013Y110653D02*
Y110018D01*
X412140Y109891D01*
X412394D01*
X412521Y110018D01*
Y110653D01*
X413283Y109891D02*
X412775D01*
X413283Y110399D01*
Y110526D01*
X413156Y110653D01*
X412902D01*
X412775Y110526D01*
X414045Y109891D02*
X413537D01*
X414045Y110399D01*
Y110526D01*
X413918Y110653D01*
X413664D01*
X413537Y110526D01*
X190981Y107438D02*
X191616D01*
X191743Y107565D01*
Y107819D01*
X191616Y107946D01*
X190981D01*
X191743Y108200D02*
Y108454D01*
Y108327D01*
X190981D01*
X191108Y108200D01*
Y108835D02*
X190981Y108962D01*
Y109216D01*
X191108Y109343D01*
X191235D01*
X191362Y109216D01*
X191489Y109343D01*
X191616D01*
X191743Y109216D01*
Y108962D01*
X191616Y108835D01*
X191489D01*
X191362Y108962D01*
X191235Y108835D01*
X191108D01*
X191362Y108962D02*
Y109216D01*
X143323Y70434D02*
Y69799D01*
X143450Y69672D01*
X143704D01*
X143831Y69799D01*
Y70434D01*
X144085Y69672D02*
X144338D01*
X144212D01*
Y70434D01*
X144085Y70307D01*
X145227Y70434D02*
X144973Y70307D01*
X144719Y70053D01*
Y69799D01*
X144846Y69672D01*
X145100D01*
X145227Y69799D01*
Y69926D01*
X145100Y70053D01*
X144719D01*
X143323Y106248D02*
Y105613D01*
X143450Y105486D01*
X143704D01*
X143831Y105613D01*
Y106248D01*
X144085Y105486D02*
X144338D01*
X144212D01*
Y106248D01*
X144085Y106121D01*
X145227Y106248D02*
X144719D01*
Y105867D01*
X144973Y105994D01*
X145100D01*
X145227Y105867D01*
Y105613D01*
X145100Y105486D01*
X144846D01*
X144719Y105613D01*
X227355Y301142D02*
Y300507D01*
X227482Y300380D01*
X227736D01*
X227863Y300507D01*
Y301142D01*
X228117Y300380D02*
X228371D01*
X228244D01*
Y301142D01*
X228117Y301015D01*
X229133Y300380D02*
Y301142D01*
X228752Y300761D01*
X229260D01*
X241744Y268351D02*
Y268986D01*
X241617Y269113D01*
X241363D01*
X241236Y268986D01*
Y268351D01*
X240982Y269113D02*
X240729D01*
X240855D01*
Y268351D01*
X240982Y268478D01*
X240348D02*
X240221Y268351D01*
X239967D01*
X239840Y268478D01*
Y268605D01*
X239967Y268732D01*
X240094D01*
X239967D01*
X239840Y268859D01*
Y268986D01*
X239967Y269113D01*
X240221D01*
X240348Y268986D01*
X382829Y252476D02*
Y251841D01*
X382956Y251714D01*
X383210D01*
X383337Y251841D01*
Y252476D01*
X383591Y251714D02*
X383844D01*
X383717D01*
Y252476D01*
X383591Y252349D01*
X384733Y251714D02*
X384225D01*
X384733Y252222D01*
Y252349D01*
X384606Y252476D01*
X384352D01*
X384225Y252349D01*
X230918Y43129D02*
Y42494D01*
X231045Y42367D01*
X231298D01*
X231425Y42494D01*
Y43129D01*
X231679Y42367D02*
X231933D01*
X231806D01*
Y43129D01*
X231679Y43002D01*
X232314Y42367D02*
X232568D01*
X232441D01*
Y43129D01*
X232314Y43002D01*
X207172Y51435D02*
Y50800D01*
X207299Y50673D01*
X207553D01*
X207680Y50800D01*
Y51435D01*
X207934Y50800D02*
X208061Y50673D01*
X208315D01*
X208442Y50800D01*
Y51308D01*
X208315Y51435D01*
X208061D01*
X207934Y51308D01*
Y51181D01*
X208061Y51054D01*
X208442D01*
X185344Y58293D02*
Y58928D01*
X185217Y59055D01*
X184963D01*
X184836Y58928D01*
Y58293D01*
X184582Y58420D02*
X184455Y58293D01*
X184201D01*
X184074Y58420D01*
Y58547D01*
X184201Y58674D01*
X184074Y58801D01*
Y58928D01*
X184201Y59055D01*
X184455D01*
X184582Y58928D01*
Y58801D01*
X184455Y58674D01*
X184582Y58547D01*
Y58420D01*
X184455Y58674D02*
X184201D01*
X186630Y104516D02*
Y105151D01*
X186503Y105278D01*
X186249D01*
X186122Y105151D01*
Y104516D01*
X185868D02*
X185360D01*
Y104643D01*
X185868Y105151D01*
Y105278D01*
X112125Y63378D02*
Y62743D01*
X112252Y62616D01*
X112506D01*
X112633Y62743D01*
Y63378D01*
X113395D02*
X113141Y63251D01*
X112887Y62997D01*
Y62743D01*
X113014Y62616D01*
X113268D01*
X113395Y62743D01*
Y62870D01*
X113268Y62997D01*
X112887D01*
X241173Y37566D02*
Y36932D01*
X241300Y36805D01*
X241554D01*
X241681Y36932D01*
Y37566D01*
X242443D02*
X241935D01*
Y37185D01*
X242189Y37312D01*
X242316D01*
X242443Y37185D01*
Y36932D01*
X242316Y36805D01*
X242062D01*
X241935Y36932D01*
X112836Y112400D02*
Y111765D01*
X112963Y111638D01*
X113217D01*
X113344Y111765D01*
Y112400D01*
X113979Y111638D02*
Y112400D01*
X113598Y112019D01*
X114106D01*
X219710Y85725D02*
Y85090D01*
X219837Y84963D01*
X220091D01*
X220218Y85090D01*
Y85725D01*
X220472Y84963D02*
X220726D01*
X220599D01*
Y85725D01*
X220472Y85598D01*
X383947Y110464D02*
X384201D01*
X384074D01*
Y109703D01*
X383947D01*
X384201D01*
X384581D02*
Y110210D01*
X384962D01*
X385089Y110083D01*
Y109703D01*
X385343Y110210D02*
X385597Y109703D01*
X385851Y110210D01*
X386105Y110464D02*
Y109703D01*
Y110083D01*
X386613D01*
Y110464D01*
Y109703D01*
X386994Y110210D02*
X387248D01*
X387375Y110083D01*
Y109703D01*
X386994D01*
X386867Y109830D01*
X386994Y109957D01*
X387375D01*
X387629Y109703D02*
X387882D01*
X387755D01*
Y110464D01*
X387629D01*
X388263Y109703D02*
X388517D01*
X388390D01*
Y110464D01*
X388263D01*
X404838Y110729D02*
Y109968D01*
X405219D01*
X405346Y110095D01*
Y110222D01*
X405219Y110348D01*
X404838D01*
X405219D01*
X405346Y110475D01*
Y110602D01*
X405219Y110729D01*
X404838D01*
X405600D02*
Y109968D01*
Y110348D01*
X406108D01*
Y110729D01*
Y109968D01*
X406488Y110475D02*
X406742D01*
X406869Y110348D01*
Y109968D01*
X406488D01*
X406362Y110095D01*
X406488Y110222D01*
X406869D01*
X407123Y109968D02*
X407377D01*
X407250D01*
Y110729D01*
X407123D01*
X407758Y109968D02*
X408012D01*
X407885D01*
Y110729D01*
X407758D01*
X422402Y110617D02*
X422910D01*
X422656D01*
Y109855D01*
X423164Y110617D02*
X423672D01*
Y110490D01*
X423164Y109982D01*
Y109855D01*
X423672D01*
X424434D02*
X423926D01*
X424434Y110363D01*
Y110490D01*
X424307Y110617D01*
X424053D01*
X423926Y110490D01*
X430492Y110729D02*
X431000D01*
X430746D01*
Y109968D01*
X431254Y110729D02*
X431761D01*
Y110602D01*
X431254Y110095D01*
Y109968D01*
X431761D01*
X432015D02*
X432269D01*
X432142D01*
Y110729D01*
X432015Y110602D01*
X453836Y110680D02*
Y109919D01*
X454217D01*
X454344Y110046D01*
Y110173D01*
X454217Y110299D01*
X453836D01*
X454217D01*
X454344Y110426D01*
Y110553D01*
X454217Y110680D01*
X453836D01*
X454597Y109792D02*
X455105D01*
X455359Y109919D02*
Y110426D01*
X455613Y110680D01*
X455867Y110426D01*
Y109919D01*
Y110299D01*
X455359D01*
X456121Y110680D02*
Y109919D01*
X456502D01*
X456629Y110046D01*
Y110553D01*
X456502Y110680D01*
X456121D01*
X457391Y110553D02*
X457264Y110680D01*
X457010D01*
X456883Y110553D01*
Y110046D01*
X457010Y109919D01*
X457264D01*
X457391Y110046D01*
X457644Y109792D02*
X458152D01*
X458914Y110553D02*
X458787Y110680D01*
X458533D01*
X458406Y110553D01*
Y110046D01*
X458533Y109919D01*
X458787D01*
X458914Y110046D01*
X459168Y110426D02*
Y110046D01*
X459295Y109919D01*
X459676D01*
Y110426D01*
X459930D02*
Y109919D01*
Y110173D01*
X460057Y110299D01*
X460184Y110426D01*
X460311D01*
X460691D02*
Y109919D01*
Y110173D01*
X460818Y110299D01*
X460945Y110426D01*
X461072D01*
X460503Y107632D02*
X460757D01*
X460630D01*
Y106871D01*
X460503D01*
X460757D01*
X461138D02*
Y107378D01*
X461519D01*
X461646Y107251D01*
Y106871D01*
X461900Y107378D02*
X462154Y106871D01*
X462408Y107378D01*
X462662Y106744D02*
X463170D01*
X463423Y106871D02*
Y107378D01*
X463677Y107632D01*
X463931Y107378D01*
Y106871D01*
Y107251D01*
X463423D01*
X464185Y107632D02*
Y106871D01*
X464566D01*
X464693Y106998D01*
Y107505D01*
X464566Y107632D01*
X464185D01*
X465455Y107505D02*
X465328Y107632D01*
X465074D01*
X464947Y107505D01*
Y106998D01*
X465074Y106871D01*
X465328D01*
X465455Y106998D01*
X465709Y106744D02*
X466217D01*
X466978Y107505D02*
X466851Y107632D01*
X466597D01*
X466470Y107505D01*
Y106998D01*
X466597Y106871D01*
X466851D01*
X466978Y106998D01*
X467232Y107378D02*
Y106998D01*
X467359Y106871D01*
X467740D01*
Y107378D01*
X467994D02*
Y106871D01*
Y107125D01*
X468121Y107251D01*
X468248Y107378D01*
X468375D01*
X468756D02*
Y106871D01*
Y107125D01*
X468883Y107251D01*
X469010Y107378D01*
X469137D01*
X483261Y110856D02*
X483515D01*
X483388D01*
Y110095D01*
X483261D01*
X483515D01*
X483896D02*
Y110856D01*
X484404Y110095D01*
Y110856D01*
X484658D02*
Y110348D01*
X484911Y110095D01*
X485165Y110348D01*
Y110856D01*
X485419Y109968D02*
X485927D01*
X486181Y110856D02*
X486689D01*
X486435D01*
Y110095D01*
X487324D02*
X487070D01*
X486943Y110222D01*
Y110475D01*
X487070Y110602D01*
X487324D01*
X487451Y110475D01*
Y110348D01*
X486943D01*
X487705Y110095D02*
Y110602D01*
X487832D01*
X487958Y110475D01*
Y110095D01*
Y110475D01*
X488085Y110602D01*
X488212Y110475D01*
Y110095D01*
X488466Y109841D02*
Y110602D01*
X488847D01*
X488974Y110475D01*
Y110222D01*
X488847Y110095D01*
X488466D01*
X489609D02*
Y110856D01*
X489228Y110475D01*
X489736D01*
X512852Y110856D02*
X513106D01*
X512979D01*
Y110095D01*
X512852D01*
X513106D01*
X513487D02*
Y110856D01*
X513995Y110095D01*
Y110856D01*
X514249D02*
Y110348D01*
X514503Y110095D01*
X514756Y110348D01*
Y110856D01*
X515010Y109968D02*
X515518D01*
X515772Y110856D02*
X516280D01*
X516026D01*
Y110095D01*
X516915D02*
X516661D01*
X516534Y110222D01*
Y110475D01*
X516661Y110602D01*
X516915D01*
X517042Y110475D01*
Y110348D01*
X516534D01*
X517296Y110095D02*
Y110602D01*
X517423D01*
X517549Y110475D01*
Y110095D01*
Y110475D01*
X517676Y110602D01*
X517803Y110475D01*
Y110095D01*
X518057Y109841D02*
Y110602D01*
X518438D01*
X518565Y110475D01*
Y110222D01*
X518438Y110095D01*
X518057D01*
X518819Y110729D02*
X518946Y110856D01*
X519200D01*
X519327Y110729D01*
Y110602D01*
X519200Y110475D01*
X519073D01*
X519200D01*
X519327Y110348D01*
Y110222D01*
X519200Y110095D01*
X518946D01*
X518819Y110222D01*
X524282Y110856D02*
X524536D01*
X524409D01*
Y110095D01*
X524282D01*
X524536D01*
X524917D02*
Y110856D01*
X525425Y110095D01*
Y110856D01*
X525679D02*
Y110348D01*
X525932Y110095D01*
X526186Y110348D01*
Y110856D01*
X526440Y109968D02*
X526948D01*
X527202Y110856D02*
X527710D01*
X527456D01*
Y110095D01*
X528345D02*
X528091D01*
X527964Y110222D01*
Y110475D01*
X528091Y110602D01*
X528345D01*
X528472Y110475D01*
Y110348D01*
X527964D01*
X528726Y110095D02*
Y110602D01*
X528853D01*
X528979Y110475D01*
Y110095D01*
Y110475D01*
X529106Y110602D01*
X529233Y110475D01*
Y110095D01*
X529487Y109841D02*
Y110602D01*
X529868D01*
X529995Y110475D01*
Y110222D01*
X529868Y110095D01*
X529487D01*
X530757D02*
X530249D01*
X530757Y110602D01*
Y110729D01*
X530630Y110856D01*
X530376D01*
X530249Y110729D01*
X543205Y110856D02*
X543459D01*
X543332D01*
Y110095D01*
X543205D01*
X543459D01*
X543840D02*
Y110856D01*
X544348Y110095D01*
Y110856D01*
X544602D02*
Y110348D01*
X544855Y110095D01*
X545109Y110348D01*
Y110856D01*
X545363Y109968D02*
X545871D01*
X546125Y110856D02*
X546633D01*
X546379D01*
Y110095D01*
X547268D02*
X547014D01*
X546887Y110222D01*
Y110475D01*
X547014Y110602D01*
X547268D01*
X547395Y110475D01*
Y110348D01*
X546887D01*
X547649Y110095D02*
Y110602D01*
X547776D01*
X547902Y110475D01*
Y110095D01*
Y110475D01*
X548029Y110602D01*
X548156Y110475D01*
Y110095D01*
X548410Y109841D02*
Y110602D01*
X548791D01*
X548918Y110475D01*
Y110222D01*
X548791Y110095D01*
X548410D01*
X549172D02*
X549426D01*
X549299D01*
Y110856D01*
X549172Y110729D01*
X552221D02*
X552729D01*
X552475D01*
Y109968D01*
X552983D02*
Y110729D01*
X553364D01*
X553491Y110602D01*
Y110348D01*
X553364Y110222D01*
X552983D01*
X553745Y109968D02*
X553999D01*
X553872D01*
Y110729D01*
X553745Y110602D01*
X554888Y109968D02*
X554380D01*
X554888Y110475D01*
Y110602D01*
X554761Y110729D01*
X554507D01*
X554380Y110602D01*
X571017Y110729D02*
X571525D01*
X571271D01*
Y109968D01*
X571779D02*
Y110729D01*
X572160D01*
X572287Y110602D01*
Y110348D01*
X572160Y110222D01*
X571779D01*
X572541Y109968D02*
X572795D01*
X572668D01*
Y110729D01*
X572541Y110602D01*
X573176Y109968D02*
X573430D01*
X573303D01*
Y110729D01*
X573176Y110602D01*
X577621Y110729D02*
X578129D01*
X577875D01*
Y109968D01*
X578383D02*
Y110729D01*
X578764D01*
X578891Y110602D01*
Y110348D01*
X578764Y110222D01*
X578383D01*
X579145Y109968D02*
X579399D01*
X579272D01*
Y110729D01*
X579145Y110602D01*
X579780D02*
X579907Y110729D01*
X580161D01*
X580288Y110602D01*
Y110095D01*
X580161Y109968D01*
X579907D01*
X579780Y110095D01*
Y110602D01*
X589051Y110729D02*
X589559D01*
X589305D01*
Y109968D01*
X589813D02*
Y110729D01*
X590194D01*
X590321Y110602D01*
Y110348D01*
X590194Y110222D01*
X589813D01*
X590575Y110095D02*
X590702Y109968D01*
X590956D01*
X591083Y110095D01*
Y110602D01*
X590956Y110729D01*
X590702D01*
X590575Y110602D01*
Y110475D01*
X590702Y110348D01*
X591083D01*
X601878Y110729D02*
X602386D01*
X602132D01*
Y109968D01*
X602640D02*
Y110729D01*
X603021D01*
X603148Y110602D01*
Y110348D01*
X603021Y110222D01*
X602640D01*
X603402Y110602D02*
X603529Y110729D01*
X603783D01*
X603910Y110602D01*
Y110475D01*
X603783Y110348D01*
X603910Y110222D01*
Y110095D01*
X603783Y109968D01*
X603529D01*
X603402Y110095D01*
Y110222D01*
X603529Y110348D01*
X603402Y110475D01*
Y110602D01*
X603529Y110348D02*
X603783D01*
X607847Y110729D02*
X608355D01*
X608101D01*
Y109968D01*
X608609D02*
Y110729D01*
X608990D01*
X609117Y110602D01*
Y110348D01*
X608990Y110222D01*
X608609D01*
X609371Y110729D02*
X609879D01*
Y110602D01*
X609371Y110095D01*
Y109968D01*
X619023Y110729D02*
X619531D01*
X619277D01*
Y109968D01*
X619785D02*
Y110729D01*
X620166D01*
X620293Y110602D01*
Y110348D01*
X620166Y110222D01*
X619785D01*
X621055Y110729D02*
X620801Y110602D01*
X620547Y110348D01*
Y110095D01*
X620674Y109968D01*
X620928D01*
X621055Y110095D01*
Y110222D01*
X620928Y110348D01*
X620547D01*
X640232Y110729D02*
X640740D01*
X640486D01*
Y109968D01*
X640994D02*
Y110729D01*
X641375D01*
X641502Y110602D01*
Y110348D01*
X641375Y110222D01*
X640994D01*
X642264Y110729D02*
X641756D01*
Y110348D01*
X642010Y110475D01*
X642137D01*
X642264Y110348D01*
Y110095D01*
X642137Y109968D01*
X641883D01*
X641756Y110095D01*
X663600Y110729D02*
X664108D01*
X663854D01*
Y109968D01*
X664362D02*
Y110729D01*
X664743D01*
X664870Y110602D01*
Y110348D01*
X664743Y110222D01*
X664362D01*
X665505Y109968D02*
Y110729D01*
X665124Y110348D01*
X665632D01*
X675284Y110729D02*
X675792D01*
X675538D01*
Y109968D01*
X676046D02*
Y110729D01*
X676427D01*
X676554Y110602D01*
Y110348D01*
X676427Y110222D01*
X676046D01*
X676808Y110602D02*
X676935Y110729D01*
X677189D01*
X677316Y110602D01*
Y110475D01*
X677189Y110348D01*
X677062D01*
X677189D01*
X677316Y110222D01*
Y110095D01*
X677189Y109968D01*
X676935D01*
X676808Y110095D01*
X698652Y110729D02*
X699160D01*
X698906D01*
Y109968D01*
X699414D02*
Y110729D01*
X699795D01*
X699922Y110602D01*
Y110348D01*
X699795Y110222D01*
X699414D01*
X700684Y109968D02*
X700176D01*
X700684Y110475D01*
Y110602D01*
X700557Y110729D01*
X700303D01*
X700176Y110602D01*
X710336Y110729D02*
X710844D01*
X710590D01*
Y109968D01*
X711098D02*
Y110729D01*
X711479D01*
X711606Y110602D01*
Y110348D01*
X711479Y110222D01*
X711098D01*
X711860Y109968D02*
X712114D01*
X711987D01*
Y110729D01*
X711860Y110602D01*
X319650Y182956D02*
X320157D01*
X319904D01*
Y182194D01*
X320411D02*
X320665D01*
X320538D01*
Y182956D01*
X320411Y182829D01*
X243597Y76263D02*
X244359D01*
Y75882D01*
X244232Y75755D01*
X243978D01*
X243851Y75882D01*
Y76263D01*
Y76009D02*
X243597Y75755D01*
Y75501D02*
Y75248D01*
Y75375D01*
X244359D01*
X244232Y75501D01*
Y74867D02*
X244359Y74740D01*
Y74486D01*
X244232Y74359D01*
X243724D01*
X243597Y74486D01*
Y74740D01*
X243724Y74867D01*
X244232D01*
X243597Y73597D02*
Y74105D01*
X244105Y73597D01*
X244232D01*
X244359Y73724D01*
Y73978D01*
X244232Y74105D01*
X478561Y109917D02*
Y110679D01*
X478942D01*
X479069Y110552D01*
Y110298D01*
X478942Y110171D01*
X478561D01*
X478815D02*
X479069Y109917D01*
X479323D02*
X479577D01*
X479450D01*
Y110679D01*
X479323Y110552D01*
X479958D02*
X480085Y110679D01*
X480339D01*
X480466Y110552D01*
Y110044D01*
X480339Y109917D01*
X480085D01*
X479958Y110044D01*
Y110552D01*
X480720Y109917D02*
X480974D01*
X480847D01*
Y110679D01*
X480720Y110552D01*
X471449Y109917D02*
Y110679D01*
X471830D01*
X471957Y110552D01*
Y110298D01*
X471830Y110171D01*
X471449D01*
X471703D02*
X471957Y109917D01*
X472211D02*
X472465D01*
X472338D01*
Y110679D01*
X472211Y110552D01*
X472846D02*
X472973Y110679D01*
X473227D01*
X473354Y110552D01*
Y110044D01*
X473227Y109917D01*
X472973D01*
X472846Y110044D01*
Y110552D01*
X473608D02*
X473735Y110679D01*
X473989D01*
X474116Y110552D01*
Y110044D01*
X473989Y109917D01*
X473735D01*
X473608Y110044D01*
Y110552D01*
X508914Y109917D02*
Y110679D01*
X509295D01*
X509422Y110552D01*
Y110298D01*
X509295Y110171D01*
X508914D01*
X509168D02*
X509422Y109917D01*
X509676Y110044D02*
X509803Y109917D01*
X510057D01*
X510184Y110044D01*
Y110552D01*
X510057Y110679D01*
X509803D01*
X509676Y110552D01*
Y110425D01*
X509803Y110298D01*
X510184D01*
X510438Y110044D02*
X510565Y109917D01*
X510819D01*
X510946Y110044D01*
Y110552D01*
X510819Y110679D01*
X510565D01*
X510438Y110552D01*
Y110425D01*
X510565Y110298D01*
X510946D01*
X503072Y109917D02*
Y110679D01*
X503453D01*
X503580Y110552D01*
Y110298D01*
X503453Y110171D01*
X503072D01*
X503326D02*
X503580Y109917D01*
X503834Y110044D02*
X503961Y109917D01*
X504215D01*
X504342Y110044D01*
Y110552D01*
X504215Y110679D01*
X503961D01*
X503834Y110552D01*
Y110425D01*
X503961Y110298D01*
X504342D01*
X504596Y110552D02*
X504723Y110679D01*
X504977D01*
X505104Y110552D01*
Y110425D01*
X504977Y110298D01*
X505104Y110171D01*
Y110044D01*
X504977Y109917D01*
X504723D01*
X504596Y110044D01*
Y110171D01*
X504723Y110298D01*
X504596Y110425D01*
Y110552D01*
X504723Y110298D02*
X504977D01*
X565175Y109917D02*
Y110679D01*
X565556D01*
X565683Y110552D01*
Y110298D01*
X565556Y110171D01*
X565175D01*
X565429D02*
X565683Y109917D01*
X565937Y110044D02*
X566064Y109917D01*
X566318D01*
X566445Y110044D01*
Y110552D01*
X566318Y110679D01*
X566064D01*
X565937Y110552D01*
Y110425D01*
X566064Y110298D01*
X566445D01*
X566699Y110679D02*
X567207D01*
Y110552D01*
X566699Y110044D01*
Y109917D01*
X559333D02*
Y110679D01*
X559714D01*
X559841Y110552D01*
Y110298D01*
X559714Y110171D01*
X559333D01*
X559587D02*
X559841Y109917D01*
X560095Y110044D02*
X560222Y109917D01*
X560476D01*
X560603Y110044D01*
Y110552D01*
X560476Y110679D01*
X560222D01*
X560095Y110552D01*
Y110425D01*
X560222Y110298D01*
X560603D01*
X561365Y110679D02*
X561111Y110552D01*
X560857Y110298D01*
Y110044D01*
X560984Y109917D01*
X561238D01*
X561365Y110044D01*
Y110171D01*
X561238Y110298D01*
X560857D01*
X368579Y109917D02*
Y110679D01*
X368960D01*
X369087Y110552D01*
Y110298D01*
X368960Y110171D01*
X368579D01*
X368833D02*
X369087Y109917D01*
X369341Y110044D02*
X369468Y109917D01*
X369722D01*
X369849Y110044D01*
Y110552D01*
X369722Y110679D01*
X369468D01*
X369341Y110552D01*
Y110425D01*
X369468Y110298D01*
X369849D01*
X370611Y110679D02*
X370103D01*
Y110298D01*
X370357Y110425D01*
X370484D01*
X370611Y110298D01*
Y110044D01*
X370484Y109917D01*
X370230D01*
X370103Y110044D01*
X362737Y109917D02*
Y110679D01*
X363118D01*
X363245Y110552D01*
Y110298D01*
X363118Y110171D01*
X362737D01*
X362991D02*
X363245Y109917D01*
X363499Y110044D02*
X363626Y109917D01*
X363880D01*
X364007Y110044D01*
Y110552D01*
X363880Y110679D01*
X363626D01*
X363499Y110552D01*
Y110425D01*
X363626Y110298D01*
X364007D01*
X364642Y109917D02*
Y110679D01*
X364261Y110298D01*
X364769D01*
X380263Y109917D02*
Y110679D01*
X380644D01*
X380771Y110552D01*
Y110298D01*
X380644Y110171D01*
X380263D01*
X380517D02*
X380771Y109917D01*
X381025Y110044D02*
X381152Y109917D01*
X381406D01*
X381533Y110044D01*
Y110552D01*
X381406Y110679D01*
X381152D01*
X381025Y110552D01*
Y110425D01*
X381152Y110298D01*
X381533D01*
X381787Y110552D02*
X381914Y110679D01*
X382168D01*
X382295Y110552D01*
Y110425D01*
X382168Y110298D01*
X382041D01*
X382168D01*
X382295Y110171D01*
Y110044D01*
X382168Y109917D01*
X381914D01*
X381787Y110044D01*
X399440Y109917D02*
Y110679D01*
X399821D01*
X399948Y110552D01*
Y110298D01*
X399821Y110171D01*
X399440D01*
X399694D02*
X399948Y109917D01*
X400202Y110044D02*
X400329Y109917D01*
X400583D01*
X400710Y110044D01*
Y110552D01*
X400583Y110679D01*
X400329D01*
X400202Y110552D01*
Y110425D01*
X400329Y110298D01*
X400710D01*
X401472Y109917D02*
X400964D01*
X401472Y110425D01*
Y110552D01*
X401345Y110679D01*
X401091D01*
X400964Y110552D01*
X613613Y109968D02*
Y110729D01*
X613994D01*
X614121Y110602D01*
Y110348D01*
X613994Y110222D01*
X613613D01*
X613867D02*
X614121Y109968D01*
X614375Y110095D02*
X614502Y109968D01*
X614756D01*
X614883Y110095D01*
Y110602D01*
X614756Y110729D01*
X614502D01*
X614375Y110602D01*
Y110475D01*
X614502Y110348D01*
X614883D01*
X615137Y109968D02*
X615391D01*
X615264D01*
Y110729D01*
X615137Y110602D01*
X634390Y109917D02*
Y110679D01*
X634771D01*
X634898Y110552D01*
Y110298D01*
X634771Y110171D01*
X634390D01*
X634644D02*
X634898Y109917D01*
X635152Y110044D02*
X635279Y109917D01*
X635533D01*
X635660Y110044D01*
Y110552D01*
X635533Y110679D01*
X635279D01*
X635152Y110552D01*
Y110425D01*
X635279Y110298D01*
X635660D01*
X635914Y110552D02*
X636041Y110679D01*
X636295D01*
X636422Y110552D01*
Y110044D01*
X636295Y109917D01*
X636041D01*
X635914Y110044D01*
Y110552D01*
X692810Y109917D02*
Y110679D01*
X693191D01*
X693318Y110552D01*
Y110298D01*
X693191Y110171D01*
X692810D01*
X693064D02*
X693318Y109917D01*
X693572Y110552D02*
X693699Y110679D01*
X693953D01*
X694080Y110552D01*
Y110425D01*
X693953Y110298D01*
X694080Y110171D01*
Y110044D01*
X693953Y109917D01*
X693699D01*
X693572Y110044D01*
Y110171D01*
X693699Y110298D01*
X693572Y110425D01*
Y110552D01*
X693699Y110298D02*
X693953D01*
X694334Y110044D02*
X694461Y109917D01*
X694715D01*
X694842Y110044D01*
Y110552D01*
X694715Y110679D01*
X694461D01*
X694334Y110552D01*
Y110425D01*
X694461Y110298D01*
X694842D01*
X686968Y109917D02*
Y110679D01*
X687349D01*
X687476Y110552D01*
Y110298D01*
X687349Y110171D01*
X686968D01*
X687222D02*
X687476Y109917D01*
X687730Y110552D02*
X687857Y110679D01*
X688111D01*
X688238Y110552D01*
Y110425D01*
X688111Y110298D01*
X688238Y110171D01*
Y110044D01*
X688111Y109917D01*
X687857D01*
X687730Y110044D01*
Y110171D01*
X687857Y110298D01*
X687730Y110425D01*
Y110552D01*
X687857Y110298D02*
X688111D01*
X688492Y110552D02*
X688619Y110679D01*
X688873D01*
X689000Y110552D01*
Y110425D01*
X688873Y110298D01*
X689000Y110171D01*
Y110044D01*
X688873Y109917D01*
X688619D01*
X688492Y110044D01*
Y110171D01*
X688619Y110298D01*
X688492Y110425D01*
Y110552D01*
X688619Y110298D02*
X688873D01*
X681126Y109917D02*
Y110679D01*
X681507D01*
X681634Y110552D01*
Y110298D01*
X681507Y110171D01*
X681126D01*
X681380D02*
X681634Y109917D01*
X681888Y110552D02*
X682015Y110679D01*
X682269D01*
X682396Y110552D01*
Y110425D01*
X682269Y110298D01*
X682396Y110171D01*
Y110044D01*
X682269Y109917D01*
X682015D01*
X681888Y110044D01*
Y110171D01*
X682015Y110298D01*
X681888Y110425D01*
Y110552D01*
X682015Y110298D02*
X682269D01*
X682650Y110679D02*
X683158D01*
Y110552D01*
X682650Y110044D01*
Y109917D01*
X704494D02*
Y110679D01*
X704875D01*
X705002Y110552D01*
Y110298D01*
X704875Y110171D01*
X704494D01*
X704748D02*
X705002Y109917D01*
X705256Y110552D02*
X705383Y110679D01*
X705637D01*
X705764Y110552D01*
Y110425D01*
X705637Y110298D01*
X705764Y110171D01*
Y110044D01*
X705637Y109917D01*
X705383D01*
X705256Y110044D01*
Y110171D01*
X705383Y110298D01*
X705256Y110425D01*
Y110552D01*
X705383Y110298D02*
X705637D01*
X706526Y110679D02*
X706272Y110552D01*
X706018Y110298D01*
Y110044D01*
X706145Y109917D01*
X706399D01*
X706526Y110044D01*
Y110171D01*
X706399Y110298D01*
X706018D01*
X218441Y274055D02*
Y274817D01*
X218821D01*
X218948Y274690D01*
Y274436D01*
X218821Y274309D01*
X218441D01*
X218694D02*
X218948Y274055D01*
X219202Y274817D02*
X219710D01*
Y274690D01*
X219202Y274182D01*
Y274055D01*
X219964Y274817D02*
X220472D01*
Y274690D01*
X219964Y274182D01*
Y274055D01*
X227584Y269621D02*
Y268859D01*
X227203D01*
X227076Y268986D01*
Y269240D01*
X227203Y269367D01*
X227584D01*
X227330D02*
X227076Y269621D01*
X226822Y268859D02*
X226314D01*
Y268986D01*
X226822Y269494D01*
Y269621D01*
X225552Y268859D02*
X225806Y268986D01*
X226060Y269240D01*
Y269494D01*
X225933Y269621D01*
X225679D01*
X225552Y269494D01*
Y269367D01*
X225679Y269240D01*
X226060D01*
X214884Y267335D02*
Y268097D01*
X215265D01*
X215392Y267970D01*
Y267716D01*
X215265Y267589D01*
X214884D01*
X215138D02*
X215392Y267335D01*
X215646Y268097D02*
X216154D01*
Y267970D01*
X215646Y267462D01*
Y267335D01*
X216916Y268097D02*
X216408D01*
Y267716D01*
X216662Y267843D01*
X216789D01*
X216916Y267716D01*
Y267462D01*
X216789Y267335D01*
X216535D01*
X216408Y267462D01*
X209093Y266675D02*
X209855D01*
Y266294D01*
X209728Y266167D01*
X209474D01*
X209347Y266294D01*
Y266675D01*
Y266421D02*
X209093Y266167D01*
X209855Y265913D02*
Y265405D01*
X209728D01*
X209220Y265913D01*
X209093D01*
Y264770D02*
X209855D01*
X209474Y265151D01*
Y264643D01*
X203621Y266674D02*
X204383D01*
Y266294D01*
X204256Y266167D01*
X204002D01*
X203875Y266294D01*
Y266674D01*
Y266421D02*
X203621Y266167D01*
X204383Y265913D02*
Y265405D01*
X204256D01*
X203748Y265913D01*
X203621D01*
X204256Y265151D02*
X204383Y265024D01*
Y264770D01*
X204256Y264643D01*
X204129D01*
X204002Y264770D01*
Y264897D01*
Y264770D01*
X203875Y264643D01*
X203748D01*
X203621Y264770D01*
Y265024D01*
X203748Y265151D01*
X247193Y271247D02*
X247955D01*
Y270866D01*
X247828Y270739D01*
X247574D01*
X247447Y270866D01*
Y271247D01*
Y270993D02*
X247193Y270739D01*
X247955Y270485D02*
Y269977D01*
X247828D01*
X247320Y270485D01*
X247193D01*
Y269215D02*
Y269723D01*
X247701Y269215D01*
X247828D01*
X247955Y269342D01*
Y269596D01*
X247828Y269723D01*
X261239Y238760D02*
X262001D01*
Y238379D01*
X261874Y238252D01*
X261620D01*
X261493Y238379D01*
Y238760D01*
Y238506D02*
X261239Y238252D01*
X262001Y237490D02*
X261874Y237744D01*
X261620Y237998D01*
X261366D01*
X261239Y237871D01*
Y237617D01*
X261366Y237490D01*
X261493D01*
X261620Y237617D01*
Y237998D01*
X261366Y237236D02*
X261239Y237109D01*
Y236855D01*
X261366Y236728D01*
X261874D01*
X262001Y236855D01*
Y237109D01*
X261874Y237236D01*
X261747D01*
X261620Y237109D01*
Y236728D01*
X185155Y239268D02*
X185917D01*
Y238887D01*
X185790Y238760D01*
X185536D01*
X185409Y238887D01*
Y239268D01*
Y239014D02*
X185155Y238760D01*
X185917Y237998D02*
X185790Y238252D01*
X185536Y238506D01*
X185282D01*
X185155Y238379D01*
Y238125D01*
X185282Y237998D01*
X185409D01*
X185536Y238125D01*
Y238506D01*
X185790Y237744D02*
X185917Y237617D01*
Y237363D01*
X185790Y237236D01*
X185663D01*
X185536Y237363D01*
X185409Y237236D01*
X185282D01*
X185155Y237363D01*
Y237617D01*
X185282Y237744D01*
X185409D01*
X185536Y237617D01*
X185663Y237744D01*
X185790D01*
X185536Y237617D02*
Y237363D01*
X255727Y240300D02*
X254965D01*
Y240681D01*
X255092Y240808D01*
X255346D01*
X255473Y240681D01*
Y240300D01*
Y240554D02*
X255727Y240808D01*
X254965Y241570D02*
X255092Y241316D01*
X255346Y241062D01*
X255600D01*
X255727Y241189D01*
Y241443D01*
X255600Y241570D01*
X255473D01*
X255346Y241443D01*
Y241062D01*
X254965Y241824D02*
Y242331D01*
X255092D01*
X255600Y241824D01*
X255727D01*
X183185Y242046D02*
X183947D01*
Y241665D01*
X183820Y241538D01*
X183566D01*
X183439Y241665D01*
Y242046D01*
Y241792D02*
X183185Y241538D01*
X183947Y240776D02*
X183820Y241030D01*
X183566Y241284D01*
X183312D01*
X183185Y241157D01*
Y240903D01*
X183312Y240776D01*
X183439D01*
X183566Y240903D01*
Y241284D01*
X183947Y240015D02*
X183820Y240269D01*
X183566Y240522D01*
X183312D01*
X183185Y240396D01*
Y240142D01*
X183312Y240015D01*
X183439D01*
X183566Y240142D01*
Y240522D01*
X242647Y294374D02*
X243409D01*
Y293993D01*
X243282Y293866D01*
X243028D01*
X242901Y293993D01*
Y294374D01*
Y294120D02*
X242647Y293866D01*
X243409Y293104D02*
X243282Y293358D01*
X243028Y293612D01*
X242774D01*
X242647Y293485D01*
Y293231D01*
X242774Y293104D01*
X242901D01*
X243028Y293231D01*
Y293612D01*
X243409Y292342D02*
Y292850D01*
X243028D01*
X243155Y292596D01*
Y292469D01*
X243028Y292342D01*
X242774D01*
X242647Y292469D01*
Y292723D01*
X242774Y292850D01*
X238024Y292064D02*
Y292825D01*
X238404D01*
X238531Y292698D01*
Y292444D01*
X238404Y292318D01*
X238024D01*
X238277D02*
X238531Y292064D01*
X239293Y292825D02*
X239039Y292698D01*
X238785Y292444D01*
Y292191D01*
X238912Y292064D01*
X239166D01*
X239293Y292191D01*
Y292318D01*
X239166Y292444D01*
X238785D01*
X239928Y292064D02*
Y292825D01*
X239547Y292444D01*
X240055D01*
X260807Y292023D02*
Y292785D01*
X261188D01*
X261315Y292658D01*
Y292404D01*
X261188Y292277D01*
X260807D01*
X261061D02*
X261315Y292023D01*
X262077Y292785D02*
X261823Y292658D01*
X261569Y292404D01*
Y292150D01*
X261696Y292023D01*
X261950D01*
X262077Y292150D01*
Y292277D01*
X261950Y292404D01*
X261569D01*
X262331Y292658D02*
X262458Y292785D01*
X262712D01*
X262839Y292658D01*
Y292531D01*
X262712Y292404D01*
X262585D01*
X262712D01*
X262839Y292277D01*
Y292150D01*
X262712Y292023D01*
X262458D01*
X262331Y292150D01*
X244298Y294196D02*
Y294958D01*
X244678D01*
X244805Y294831D01*
Y294577D01*
X244678Y294450D01*
X244298D01*
X244552D02*
X244805Y294196D01*
X245567Y294958D02*
X245313Y294831D01*
X245059Y294577D01*
Y294323D01*
X245186Y294196D01*
X245440D01*
X245567Y294323D01*
Y294450D01*
X245440Y294577D01*
X245059D01*
X246329Y294196D02*
X245821D01*
X246329Y294704D01*
Y294831D01*
X246202Y294958D01*
X245948D01*
X245821Y294831D01*
X242940Y299403D02*
X243702D01*
Y299022D01*
X243575Y298895D01*
X243321D01*
X243194Y299022D01*
Y299403D01*
Y299149D02*
X242940Y298895D01*
X243702Y298133D02*
X243575Y298387D01*
X243321Y298641D01*
X243067D01*
X242940Y298514D01*
Y298260D01*
X243067Y298133D01*
X243194D01*
X243321Y298260D01*
Y298641D01*
X242940Y297879D02*
Y297625D01*
Y297752D01*
X243702D01*
X243575Y297879D01*
X299491Y299618D02*
Y300380D01*
X299872D01*
X299999Y300253D01*
Y299999D01*
X299872Y299872D01*
X299491D01*
X299745D02*
X299999Y299618D01*
X300761Y300380D02*
X300507Y300253D01*
X300253Y299999D01*
Y299745D01*
X300380Y299618D01*
X300634D01*
X300761Y299745D01*
Y299872D01*
X300634Y299999D01*
X300253D01*
X301015Y300253D02*
X301142Y300380D01*
X301396D01*
X301523Y300253D01*
Y299745D01*
X301396Y299618D01*
X301142D01*
X301015Y299745D01*
Y300253D01*
X293649Y299618D02*
Y300380D01*
X294030D01*
X294157Y300253D01*
Y299999D01*
X294030Y299872D01*
X293649D01*
X293903D02*
X294157Y299618D01*
X294919Y300380D02*
X294411D01*
Y299999D01*
X294665Y300126D01*
X294792D01*
X294919Y299999D01*
Y299745D01*
X294792Y299618D01*
X294538D01*
X294411Y299745D01*
X295173D02*
X295300Y299618D01*
X295554D01*
X295681Y299745D01*
Y300253D01*
X295554Y300380D01*
X295300D01*
X295173Y300253D01*
Y300126D01*
X295300Y299999D01*
X295681D01*
X245380Y103937D02*
Y104699D01*
X245761D01*
X245888Y104572D01*
Y104318D01*
X245761Y104191D01*
X245380D01*
X245634D02*
X245888Y103937D01*
X246650Y104699D02*
X246142D01*
Y104318D01*
X246396Y104445D01*
X246523D01*
X246650Y104318D01*
Y104064D01*
X246523Y103937D01*
X246269D01*
X246142Y104064D01*
X246904Y104572D02*
X247030Y104699D01*
X247284D01*
X247411Y104572D01*
Y104445D01*
X247284Y104318D01*
X247411Y104191D01*
Y104064D01*
X247284Y103937D01*
X247030D01*
X246904Y104064D01*
Y104191D01*
X247030Y104318D01*
X246904Y104445D01*
Y104572D01*
X247030Y104318D02*
X247284D01*
X242332Y103937D02*
Y104699D01*
X242713D01*
X242840Y104572D01*
Y104318D01*
X242713Y104191D01*
X242332D01*
X242586D02*
X242840Y103937D01*
X243602Y104699D02*
X243094D01*
Y104318D01*
X243348Y104445D01*
X243475D01*
X243602Y104318D01*
Y104064D01*
X243475Y103937D01*
X243221D01*
X243094Y104064D01*
X243856Y104699D02*
X244363D01*
Y104572D01*
X243856Y104064D01*
Y103937D01*
X252730Y103759D02*
Y104521D01*
X253111D01*
X253238Y104394D01*
Y104140D01*
X253111Y104013D01*
X252730D01*
X252984D02*
X253238Y103759D01*
X254000Y104521D02*
X253492D01*
Y104140D01*
X253746Y104267D01*
X253873D01*
X254000Y104140D01*
Y103886D01*
X253873Y103759D01*
X253619D01*
X253492Y103886D01*
X254762Y104521D02*
X254508Y104394D01*
X254254Y104140D01*
Y103886D01*
X254381Y103759D01*
X254635D01*
X254762Y103886D01*
Y104013D01*
X254635Y104140D01*
X254254D01*
X184134Y68404D02*
Y67642D01*
X183753D01*
X183626Y67769D01*
Y68023D01*
X183753Y68150D01*
X184134D01*
X183880D02*
X183626Y68404D01*
X182864Y67642D02*
X183372D01*
Y68023D01*
X183118Y67896D01*
X182991D01*
X182864Y68023D01*
Y68277D01*
X182991Y68404D01*
X183245D01*
X183372Y68277D01*
X182102Y67642D02*
X182610D01*
Y68023D01*
X182356Y67896D01*
X182229D01*
X182102Y68023D01*
Y68277D01*
X182229Y68404D01*
X182483D01*
X182610Y68277D01*
X185420Y100203D02*
Y99441D01*
X185039D01*
X184912Y99568D01*
Y99822D01*
X185039Y99949D01*
X185420D01*
X185166D02*
X184912Y100203D01*
X184150Y99441D02*
X184658D01*
Y99822D01*
X184404Y99695D01*
X184277D01*
X184150Y99822D01*
Y100076D01*
X184277Y100203D01*
X184531D01*
X184658Y100076D01*
X183515Y100203D02*
Y99441D01*
X183896Y99822D01*
X183388D01*
X114048Y68384D02*
Y69146D01*
X114429D01*
X114556Y69019D01*
Y68765D01*
X114429Y68638D01*
X114048D01*
X114302D02*
X114556Y68384D01*
X115318Y69146D02*
X114810D01*
Y68765D01*
X115064Y68892D01*
X115191D01*
X115318Y68765D01*
Y68511D01*
X115191Y68384D01*
X114937D01*
X114810Y68511D01*
X115572Y69019D02*
X115699Y69146D01*
X115953D01*
X116080Y69019D01*
Y68892D01*
X115953Y68765D01*
X115826D01*
X115953D01*
X116080Y68638D01*
Y68511D01*
X115953Y68384D01*
X115699D01*
X115572Y68511D01*
X113487Y117119D02*
Y117881D01*
X113868D01*
X113995Y117754D01*
Y117500D01*
X113868Y117373D01*
X113487D01*
X113741D02*
X113995Y117119D01*
X114757Y117881D02*
X114249D01*
Y117500D01*
X114503Y117627D01*
X114630D01*
X114757Y117500D01*
Y117246D01*
X114630Y117119D01*
X114376D01*
X114249Y117246D01*
X115519Y117119D02*
X115011D01*
X115519Y117627D01*
Y117754D01*
X115392Y117881D01*
X115138D01*
X115011Y117754D01*
X398932Y243637D02*
Y244399D01*
X399313D01*
X399440Y244272D01*
Y244018D01*
X399313Y243891D01*
X398932D01*
X399186D02*
X399440Y243637D01*
X400075D02*
Y244399D01*
X399694Y244018D01*
X400202D01*
X400456Y243764D02*
X400583Y243637D01*
X400837D01*
X400964Y243764D01*
Y244272D01*
X400837Y244399D01*
X400583D01*
X400456Y244272D01*
Y244145D01*
X400583Y244018D01*
X400964D01*
X369722Y245161D02*
Y245923D01*
X370103D01*
X370230Y245796D01*
Y245542D01*
X370103Y245415D01*
X369722D01*
X369976D02*
X370230Y245161D01*
X370865D02*
Y245923D01*
X370484Y245542D01*
X370992D01*
X371246Y245796D02*
X371373Y245923D01*
X371627D01*
X371754Y245796D01*
Y245669D01*
X371627Y245542D01*
X371754Y245415D01*
Y245288D01*
X371627Y245161D01*
X371373D01*
X371246Y245288D01*
Y245415D01*
X371373Y245542D01*
X371246Y245669D01*
Y245796D01*
X371373Y245542D02*
X371627D01*
X364642Y245161D02*
Y245923D01*
X365023D01*
X365150Y245796D01*
Y245542D01*
X365023Y245415D01*
X364642D01*
X364896D02*
X365150Y245161D01*
X365785D02*
Y245923D01*
X365404Y245542D01*
X365912D01*
X366166Y245923D02*
X366674D01*
Y245796D01*
X366166Y245288D01*
Y245161D01*
X377571Y239395D02*
Y240157D01*
X377952D01*
X378079Y240030D01*
Y239776D01*
X377952Y239649D01*
X377571D01*
X377825D02*
X378079Y239395D01*
X378714D02*
Y240157D01*
X378333Y239776D01*
X378841D01*
X379603Y240157D02*
X379349Y240030D01*
X379095Y239776D01*
Y239522D01*
X379222Y239395D01*
X379476D01*
X379603Y239522D01*
Y239649D01*
X379476Y239776D01*
X379095D01*
X384124Y239243D02*
Y240004D01*
X384505D01*
X384632Y239877D01*
Y239623D01*
X384505Y239497D01*
X384124D01*
X384378D02*
X384632Y239243D01*
X385267D02*
Y240004D01*
X384886Y239623D01*
X385394D01*
X386156Y240004D02*
X385648D01*
Y239623D01*
X385902Y239750D01*
X386029D01*
X386156Y239623D01*
Y239370D01*
X386029Y239243D01*
X385775D01*
X385648Y239370D01*
X397662Y228651D02*
Y229413D01*
X398043D01*
X398170Y229286D01*
Y229032D01*
X398043Y228905D01*
X397662D01*
X397916D02*
X398170Y228651D01*
X398805D02*
Y229413D01*
X398424Y229032D01*
X398932D01*
X399567Y228651D02*
Y229413D01*
X399186Y229032D01*
X399694D01*
X223876Y39675D02*
Y40437D01*
X224256D01*
X224383Y40310D01*
Y40056D01*
X224256Y39929D01*
X223876D01*
X224130D02*
X224383Y39675D01*
X225018D02*
Y40437D01*
X224637Y40056D01*
X225145D01*
X225399Y40310D02*
X225526Y40437D01*
X225780D01*
X225907Y40310D01*
Y40183D01*
X225780Y40056D01*
X225653D01*
X225780D01*
X225907Y39929D01*
Y39802D01*
X225780Y39675D01*
X225526D01*
X225399Y39802D01*
X211465Y71811D02*
Y72573D01*
X211845D01*
X211972Y72446D01*
Y72192D01*
X211845Y72065D01*
X211465D01*
X211718D02*
X211972Y71811D01*
X212607D02*
Y72573D01*
X212226Y72192D01*
X212734D01*
X213496Y71811D02*
X212988D01*
X213496Y72319D01*
Y72446D01*
X213369Y72573D01*
X213115D01*
X212988Y72446D01*
X213919Y66405D02*
Y67167D01*
X214300D01*
X214427Y67040D01*
Y66786D01*
X214300Y66659D01*
X213919D01*
X214173D02*
X214427Y66405D01*
X215062D02*
Y67167D01*
X214681Y66786D01*
X215189D01*
X215443Y66405D02*
X215697D01*
X215570D01*
Y67167D01*
X215443Y67040D01*
X226279Y39575D02*
Y40337D01*
X226660D01*
X226787Y40210D01*
Y39956D01*
X226660Y39829D01*
X226279D01*
X226533D02*
X226787Y39575D01*
X227422D02*
Y40337D01*
X227041Y39956D01*
X227549D01*
X227803Y40210D02*
X227930Y40337D01*
X228184D01*
X228311Y40210D01*
Y39702D01*
X228184Y39575D01*
X227930D01*
X227803Y39702D01*
Y40210D01*
X214376Y71755D02*
Y72517D01*
X214757D01*
X214884Y72390D01*
Y72136D01*
X214757Y72009D01*
X214376D01*
X214630D02*
X214884Y71755D01*
X215138Y72390D02*
X215265Y72517D01*
X215519D01*
X215646Y72390D01*
Y72263D01*
X215519Y72136D01*
X215392D01*
X215519D01*
X215646Y72009D01*
Y71882D01*
X215519Y71755D01*
X215265D01*
X215138Y71882D01*
X215900D02*
X216027Y71755D01*
X216281D01*
X216408Y71882D01*
Y72390D01*
X216281Y72517D01*
X216027D01*
X215900Y72390D01*
Y72263D01*
X216027Y72136D01*
X216408D01*
X207315Y67243D02*
Y68005D01*
X207696D01*
X207823Y67878D01*
Y67624D01*
X207696Y67497D01*
X207315D01*
X207569D02*
X207823Y67243D01*
X208077Y67878D02*
X208204Y68005D01*
X208458D01*
X208585Y67878D01*
Y67751D01*
X208458Y67624D01*
X208331D01*
X208458D01*
X208585Y67497D01*
Y67370D01*
X208458Y67243D01*
X208204D01*
X208077Y67370D01*
X208839Y67878D02*
X208966Y68005D01*
X209220D01*
X209346Y67878D01*
Y67751D01*
X209220Y67624D01*
X209346Y67497D01*
Y67370D01*
X209220Y67243D01*
X208966D01*
X208839Y67370D01*
Y67497D01*
X208966Y67624D01*
X208839Y67751D01*
Y67878D01*
X208966Y67624D02*
X209220D01*
X228854Y56029D02*
Y55267D01*
X228473D01*
X228346Y55394D01*
Y55648D01*
X228473Y55775D01*
X228854D01*
X228600D02*
X228346Y56029D01*
X228092Y55394D02*
X227965Y55267D01*
X227711D01*
X227584Y55394D01*
Y55521D01*
X227711Y55648D01*
X227838D01*
X227711D01*
X227584Y55775D01*
Y55902D01*
X227711Y56029D01*
X227965D01*
X228092Y55902D01*
X226822Y55267D02*
X227330D01*
Y55648D01*
X227076Y55521D01*
X226949D01*
X226822Y55648D01*
Y55902D01*
X226949Y56029D01*
X227203D01*
X227330Y55902D01*
X225552Y56007D02*
Y55245D01*
X225171D01*
X225044Y55372D01*
Y55626D01*
X225171Y55753D01*
X225552D01*
X225298D02*
X225044Y56007D01*
X224790Y55372D02*
X224663Y55245D01*
X224409D01*
X224282Y55372D01*
Y55499D01*
X224409Y55626D01*
X224536D01*
X224409D01*
X224282Y55753D01*
Y55880D01*
X224409Y56007D01*
X224663D01*
X224790Y55880D01*
X223647Y56007D02*
Y55245D01*
X224028Y55626D01*
X223520D01*
X223012Y55891D02*
Y55129D01*
X222631D01*
X222504Y55256D01*
Y55510D01*
X222631Y55637D01*
X223012D01*
X222758D02*
X222504Y55891D01*
X222250Y55256D02*
X222123Y55129D01*
X221869D01*
X221742Y55256D01*
Y55383D01*
X221869Y55510D01*
X221996D01*
X221869D01*
X221742Y55637D01*
Y55764D01*
X221869Y55891D01*
X222123D01*
X222250Y55764D01*
X221488Y55256D02*
X221361Y55129D01*
X221107D01*
X220980Y55256D01*
Y55383D01*
X221107Y55510D01*
X221234D01*
X221107D01*
X220980Y55637D01*
Y55764D01*
X221107Y55891D01*
X221361D01*
X221488Y55764D01*
X220218Y56145D02*
Y55383D01*
X219837D01*
X219710Y55510D01*
Y55764D01*
X219837Y55891D01*
X220218D01*
X219964D02*
X219710Y56145D01*
X219456Y55510D02*
X219329Y55383D01*
X219075D01*
X218948Y55510D01*
Y55637D01*
X219075Y55764D01*
X219202D01*
X219075D01*
X218948Y55891D01*
Y56018D01*
X219075Y56145D01*
X219329D01*
X219456Y56018D01*
X218186Y56145D02*
X218694D01*
X218186Y55637D01*
Y55510D01*
X218313Y55383D01*
X218567D01*
X218694Y55510D01*
X228346Y61341D02*
Y60579D01*
X227965D01*
X227838Y60706D01*
Y60960D01*
X227965Y61087D01*
X228346D01*
X228092D02*
X227838Y61341D01*
X227076D02*
X227584D01*
X227076Y60833D01*
Y60706D01*
X227203Y60579D01*
X227457D01*
X227584Y60706D01*
X226822Y61214D02*
X226695Y61341D01*
X226441D01*
X226314Y61214D01*
Y60706D01*
X226441Y60579D01*
X226695D01*
X226822Y60706D01*
Y60833D01*
X226695Y60960D01*
X226314D01*
X225806Y61341D02*
Y60579D01*
X225425D01*
X225298Y60706D01*
Y60960D01*
X225425Y61087D01*
X225806D01*
X225552D02*
X225298Y61341D01*
X224536D02*
X225044D01*
X224536Y60833D01*
Y60706D01*
X224663Y60579D01*
X224917D01*
X225044Y60706D01*
X224282D02*
X224155Y60579D01*
X223901D01*
X223774Y60706D01*
Y60833D01*
X223901Y60960D01*
X223774Y61087D01*
Y61214D01*
X223901Y61341D01*
X224155D01*
X224282Y61214D01*
Y61087D01*
X224155Y60960D01*
X224282Y60833D01*
Y60706D01*
X224155Y60960D02*
X223901D01*
X222758Y61595D02*
Y60833D01*
X222377D01*
X222250Y60960D01*
Y61214D01*
X222377Y61341D01*
X222758D01*
X222504D02*
X222250Y61595D01*
X221488D02*
X221996D01*
X221488Y61087D01*
Y60960D01*
X221615Y60833D01*
X221869D01*
X221996Y60960D01*
X221234Y60833D02*
X220726D01*
Y60960D01*
X221234Y61468D01*
Y61595D01*
X220472D02*
Y60833D01*
X220091D01*
X219964Y60960D01*
Y61214D01*
X220091Y61341D01*
X220472D01*
X220218D02*
X219964Y61595D01*
X219202D02*
X219710D01*
X219202Y61087D01*
Y60960D01*
X219329Y60833D01*
X219583D01*
X219710Y60960D01*
X218440Y60833D02*
X218694Y60960D01*
X218948Y61214D01*
Y61468D01*
X218821Y61595D01*
X218567D01*
X218440Y61468D01*
Y61341D01*
X218567Y61214D01*
X218948D01*
X238947Y39640D02*
X239709D01*
Y39259D01*
X239582Y39132D01*
X239328D01*
X239201Y39259D01*
Y39640D01*
Y39386D02*
X238947Y39132D01*
Y38370D02*
Y38878D01*
X239455Y38370D01*
X239582D01*
X239709Y38497D01*
Y38751D01*
X239582Y38878D01*
X239709Y37608D02*
Y38116D01*
X239328D01*
X239455Y37862D01*
Y37735D01*
X239328Y37608D01*
X239074D01*
X238947Y37735D01*
Y37989D01*
X239074Y38116D01*
X216458Y35331D02*
Y34570D01*
X216078D01*
X215951Y34696D01*
Y34950D01*
X216078Y35077D01*
X216458D01*
X216205D02*
X215951Y35331D01*
X215189D02*
X215697D01*
X215189Y34823D01*
Y34696D01*
X215316Y34570D01*
X215570D01*
X215697Y34696D01*
X214554Y35331D02*
Y34570D01*
X214935Y34950D01*
X214427D01*
X186680Y112974D02*
Y112212D01*
X186300D01*
X186173Y112339D01*
Y112593D01*
X186300Y112720D01*
X186680D01*
X186427D02*
X186173Y112974D01*
X185411D02*
X185919D01*
X185411Y112466D01*
Y112339D01*
X185538Y112212D01*
X185792D01*
X185919Y112339D01*
X185157D02*
X185030Y112212D01*
X184776D01*
X184649Y112339D01*
Y112466D01*
X184776Y112593D01*
X184903D01*
X184776D01*
X184649Y112720D01*
Y112847D01*
X184776Y112974D01*
X185030D01*
X185157Y112847D01*
X110744Y68453D02*
Y69215D01*
X111125D01*
X111252Y69088D01*
Y68834D01*
X111125Y68707D01*
X110744D01*
X110998D02*
X111252Y68453D01*
X112014D02*
X111506D01*
X112014Y68961D01*
Y69088D01*
X111887Y69215D01*
X111633D01*
X111506Y69088D01*
X112776Y68453D02*
X112268D01*
X112776Y68961D01*
Y69088D01*
X112649Y69215D01*
X112395D01*
X112268Y69088D01*
X246212Y36287D02*
X245450D01*
Y36668D01*
X245577Y36795D01*
X245831D01*
X245958Y36668D01*
Y36287D01*
Y36541D02*
X246212Y36795D01*
Y37557D02*
Y37049D01*
X245704Y37557D01*
X245577D01*
X245450Y37430D01*
Y37176D01*
X245577Y37049D01*
X246212Y37811D02*
Y38065D01*
Y37938D01*
X245450D01*
X245577Y37811D01*
X250013Y40021D02*
Y40783D01*
X250393D01*
X250520Y40656D01*
Y40402D01*
X250393Y40275D01*
X250013D01*
X250266D02*
X250520Y40021D01*
X251282D02*
X250774D01*
X251282Y40529D01*
Y40656D01*
X251155Y40783D01*
X250901D01*
X250774Y40656D01*
X251536D02*
X251663Y40783D01*
X251917D01*
X252044Y40656D01*
Y40148D01*
X251917Y40021D01*
X251663D01*
X251536Y40148D01*
Y40656D01*
X239963Y31830D02*
X239201D01*
Y32211D01*
X239328Y32338D01*
X239582D01*
X239709Y32211D01*
Y31830D01*
Y32084D02*
X239963Y32338D01*
Y32592D02*
Y32845D01*
Y32719D01*
X239201D01*
X239328Y32592D01*
X239836Y33226D02*
X239963Y33353D01*
Y33607D01*
X239836Y33734D01*
X239328D01*
X239201Y33607D01*
Y33353D01*
X239328Y33226D01*
X239455D01*
X239582Y33353D01*
Y33734D01*
X234451Y30013D02*
X233690D01*
Y30394D01*
X233817Y30521D01*
X234071D01*
X234197Y30394D01*
Y30013D01*
Y30267D02*
X234451Y30521D01*
Y30775D02*
Y31029D01*
Y30902D01*
X233690D01*
X233817Y30775D01*
Y31410D02*
X233690Y31537D01*
Y31791D01*
X233817Y31918D01*
X233944D01*
X234071Y31791D01*
X234197Y31918D01*
X234324D01*
X234451Y31791D01*
Y31537D01*
X234324Y31410D01*
X234197D01*
X234071Y31537D01*
X233944Y31410D01*
X233817D01*
X234071Y31537D02*
Y31791D01*
X112824Y98938D02*
Y99700D01*
X113205D01*
X113332Y99573D01*
Y99319D01*
X113205Y99192D01*
X112824D01*
X113078D02*
X113332Y98938D01*
X113586D02*
X113840D01*
X113713D01*
Y99700D01*
X113586Y99573D01*
X114221Y99700D02*
X114728D01*
Y99573D01*
X114221Y99065D01*
Y98938D01*
X234567Y34331D02*
X233806D01*
Y34712D01*
X233933Y34839D01*
X234187D01*
X234313Y34712D01*
Y34331D01*
Y34585D02*
X234567Y34839D01*
Y35093D02*
Y35347D01*
Y35220D01*
X233806D01*
X233933Y35093D01*
X234567Y36109D02*
X233806D01*
X234187Y35728D01*
Y36236D01*
X243459Y79946D02*
X244221D01*
Y79565D01*
X244094Y79438D01*
X243840D01*
X243713Y79565D01*
Y79946D01*
Y79692D02*
X243459Y79438D01*
Y79184D02*
Y78931D01*
Y79057D01*
X244221D01*
X244094Y79184D01*
Y78550D02*
X244221Y78423D01*
Y78169D01*
X244094Y78042D01*
X243967D01*
X243840Y78169D01*
Y78296D01*
Y78169D01*
X243713Y78042D01*
X243586D01*
X243459Y78169D01*
Y78423D01*
X243586Y78550D01*
X243459Y84264D02*
X244221D01*
Y83883D01*
X244094Y83756D01*
X243840D01*
X243713Y83883D01*
Y84264D01*
Y84010D02*
X243459Y83756D01*
Y83502D02*
Y83249D01*
Y83375D01*
X244221D01*
X244094Y83502D01*
X243459Y82360D02*
Y82868D01*
X243967Y82360D01*
X244094D01*
X244221Y82487D01*
Y82741D01*
X244094Y82868D01*
X243459Y81851D02*
X244221D01*
Y81470D01*
X244094Y81343D01*
X243840D01*
X243713Y81470D01*
Y81851D01*
Y81597D02*
X243459Y81343D01*
Y81089D02*
Y80836D01*
Y80963D01*
X244221D01*
X244094Y81089D01*
X243459Y80455D02*
Y80201D01*
Y80328D01*
X244221D01*
X244094Y80455D01*
X243459Y77914D02*
X244221D01*
Y77533D01*
X244094Y77406D01*
X243840D01*
X243713Y77533D01*
Y77914D01*
Y77660D02*
X243459Y77406D01*
Y77152D02*
Y76899D01*
Y77025D01*
X244221D01*
X244094Y77152D01*
Y76518D02*
X244221Y76391D01*
Y76137D01*
X244094Y76010D01*
X243586D01*
X243459Y76137D01*
Y76391D01*
X243586Y76518D01*
X244094D01*
X209677Y73279D02*
Y74041D01*
X210058D01*
X210185Y73914D01*
Y73660D01*
X210058Y73533D01*
X209677D01*
X209931D02*
X210185Y73279D01*
X210439Y73406D02*
X210566Y73279D01*
X210820D01*
X210947Y73406D01*
Y73914D01*
X210820Y74041D01*
X210566D01*
X210439Y73914D01*
Y73787D01*
X210566Y73660D01*
X210947D01*
X204713Y76073D02*
X203951D01*
Y76454D01*
X204078Y76581D01*
X204332D01*
X204459Y76454D01*
Y76073D01*
Y76327D02*
X204713Y76581D01*
X204078Y76835D02*
X203951Y76962D01*
Y77216D01*
X204078Y77343D01*
X204205D01*
X204332Y77216D01*
X204459Y77343D01*
X204586D01*
X204713Y77216D01*
Y76962D01*
X204586Y76835D01*
X204459D01*
X204332Y76962D01*
X204205Y76835D01*
X204078D01*
X204332Y76962D02*
Y77216D01*
X252349Y79629D02*
X253111D01*
Y79248D01*
X252984Y79121D01*
X252730D01*
X252603Y79248D01*
Y79629D01*
Y79375D02*
X252349Y79121D01*
X253111Y78867D02*
Y78359D01*
X252984D01*
X252476Y78867D01*
X252349D01*
X232791Y90297D02*
Y91059D01*
X233172D01*
X233299Y90932D01*
Y90678D01*
X233172Y90551D01*
X232791D01*
X233045D02*
X233299Y90297D01*
X234061Y91059D02*
X233807Y90932D01*
X233553Y90678D01*
Y90424D01*
X233680Y90297D01*
X233934D01*
X234061Y90424D01*
Y90551D01*
X233934Y90678D01*
X233553D01*
X209677Y77851D02*
Y78613D01*
X210058D01*
X210185Y78486D01*
Y78232D01*
X210058Y78105D01*
X209677D01*
X209931D02*
X210185Y77851D01*
X210947Y78613D02*
X210439D01*
Y78232D01*
X210693Y78359D01*
X210820D01*
X210947Y78232D01*
Y77978D01*
X210820Y77851D01*
X210566D01*
X210439Y77978D01*
X209169Y79883D02*
Y80645D01*
X209550D01*
X209677Y80518D01*
Y80264D01*
X209550Y80137D01*
X209169D01*
X209423D02*
X209677Y79883D01*
X210312D02*
Y80645D01*
X209931Y80264D01*
X210439D01*
X230759Y90043D02*
Y90805D01*
X231140D01*
X231267Y90678D01*
Y90424D01*
X231140Y90297D01*
X230759D01*
X231013D02*
X231267Y90043D01*
X231521Y90678D02*
X231648Y90805D01*
X231902D01*
X232029Y90678D01*
Y90551D01*
X231902Y90424D01*
X231775D01*
X231902D01*
X232029Y90297D01*
Y90170D01*
X231902Y90043D01*
X231648D01*
X231521Y90170D01*
X226187Y90297D02*
Y91059D01*
X226568D01*
X226695Y90932D01*
Y90678D01*
X226568Y90551D01*
X226187D01*
X226441D02*
X226695Y90297D01*
X227457D02*
X226949D01*
X227457Y90805D01*
Y90932D01*
X227330Y91059D01*
X227076D01*
X226949Y90932D01*
X228346Y90297D02*
Y91059D01*
X228727D01*
X228854Y90932D01*
Y90678D01*
X228727Y90551D01*
X228346D01*
X228600D02*
X228854Y90297D01*
X229108D02*
X229362D01*
X229235D01*
Y91059D01*
X229108Y90932D01*
X498424Y110120D02*
Y110628D01*
X498297Y110755D01*
X498043D01*
X497916Y110628D01*
Y110120D01*
X498043Y109993D01*
X498297D01*
X498170Y110247D02*
X498424Y109993D01*
X498297D02*
X498424Y110120D01*
X498678Y109993D02*
X498932D01*
X498805D01*
Y110755D01*
X498678Y110628D01*
X499313Y109993D02*
X499567D01*
X499440D01*
Y110755D01*
X499313Y110628D01*
X492836Y110120D02*
Y110628D01*
X492709Y110755D01*
X492455D01*
X492328Y110628D01*
Y110120D01*
X492455Y109993D01*
X492709D01*
X492582Y110247D02*
X492836Y109993D01*
X492709D02*
X492836Y110120D01*
X493090Y109993D02*
X493344D01*
X493217D01*
Y110755D01*
X493090Y110628D01*
X493725D02*
X493852Y110755D01*
X494106D01*
X494233Y110628D01*
Y110120D01*
X494106Y109993D01*
X493852D01*
X493725Y110120D01*
Y110628D01*
X629742Y110120D02*
Y110628D01*
X629615Y110755D01*
X629361D01*
X629234Y110628D01*
Y110120D01*
X629361Y109993D01*
X629615D01*
X629488Y110247D02*
X629742Y109993D01*
X629615D02*
X629742Y110120D01*
X629996D02*
X630123Y109993D01*
X630377D01*
X630504Y110120D01*
Y110628D01*
X630377Y110755D01*
X630123D01*
X629996Y110628D01*
Y110501D01*
X630123Y110374D01*
X630504D01*
X248606Y106613D02*
Y107121D01*
X248479Y107248D01*
X248225D01*
X248098Y107121D01*
Y106613D01*
X248225Y106486D01*
X248479D01*
X248352Y106740D02*
X248606Y106486D01*
X248479D02*
X248606Y106613D01*
X248860Y107121D02*
X248987Y107248D01*
X249240D01*
X249367Y107121D01*
Y106994D01*
X249240Y106867D01*
X249367Y106740D01*
Y106613D01*
X249240Y106486D01*
X248987D01*
X248860Y106613D01*
Y106740D01*
X248987Y106867D01*
X248860Y106994D01*
Y107121D01*
X248987Y106867D02*
X249240D01*
X179705Y42545D02*
Y42037D01*
X179832Y41910D01*
X180086D01*
X180213Y42037D01*
Y42545D01*
X180086Y42672D01*
X179832D01*
X179959Y42418D02*
X179705Y42672D01*
X179832D02*
X179705Y42545D01*
X179451Y41910D02*
X178943D01*
Y42037D01*
X179451Y42545D01*
Y42672D01*
X179324Y90830D02*
Y90323D01*
X179451Y90196D01*
X179705D01*
X179832Y90323D01*
Y90830D01*
X179705Y90957D01*
X179451D01*
X179578Y90703D02*
X179324Y90957D01*
X179451D02*
X179324Y90830D01*
X178562Y90196D02*
X178816Y90323D01*
X179070Y90577D01*
Y90830D01*
X178943Y90957D01*
X178689D01*
X178562Y90830D01*
Y90703D01*
X178689Y90577D01*
X179070D01*
X117907Y87351D02*
Y87858D01*
X117780Y87985D01*
X117526D01*
X117399Y87858D01*
Y87351D01*
X117526Y87224D01*
X117780D01*
X117653Y87478D02*
X117907Y87224D01*
X117780D02*
X117907Y87351D01*
X118668Y87985D02*
X118161D01*
Y87604D01*
X118414Y87731D01*
X118541D01*
X118668Y87604D01*
Y87351D01*
X118541Y87224D01*
X118288D01*
X118161Y87351D01*
X118872Y133731D02*
Y134239D01*
X118745Y134366D01*
X118491D01*
X118364Y134239D01*
Y133731D01*
X118491Y133604D01*
X118745D01*
X118618Y133858D02*
X118872Y133604D01*
X118745D02*
X118872Y133731D01*
X119507Y133604D02*
Y134366D01*
X119126Y133985D01*
X119634D01*
X420751Y228778D02*
Y229286D01*
X420624Y229413D01*
X420370D01*
X420243Y229286D01*
Y228778D01*
X420370Y228651D01*
X420624D01*
X420497Y228905D02*
X420751Y228651D01*
X420624D02*
X420751Y228778D01*
X421005Y228651D02*
X421259D01*
X421132D01*
Y229413D01*
X421005Y229286D01*
X230124Y145034D02*
Y145796D01*
X230505D01*
X230632Y145669D01*
Y145415D01*
X230505Y145288D01*
X230124D01*
X230886Y145034D02*
X231140D01*
X231013D01*
Y145796D01*
X230886Y145669D01*
X231521D02*
X231648Y145796D01*
X231901D01*
X232028Y145669D01*
Y145542D01*
X231901Y145415D01*
X231774D01*
X231901D01*
X232028Y145288D01*
Y145161D01*
X231901Y145034D01*
X231648D01*
X231521Y145161D01*
X326381Y183388D02*
Y184150D01*
X326761D01*
X326888Y184023D01*
Y183769D01*
X326761Y183642D01*
X326381D01*
X327142Y183388D02*
X327396D01*
X327269D01*
Y184150D01*
X327142Y184023D01*
X327777D02*
X327904Y184150D01*
X328158D01*
X328285Y184023D01*
Y183515D01*
X328158Y183388D01*
X327904D01*
X327777Y183515D01*
Y184023D01*
X323875Y62978D02*
Y63739D01*
X324256D01*
X324383Y63612D01*
Y63358D01*
X324256Y63232D01*
X323875D01*
X325145Y63739D02*
X324637D01*
Y63358D01*
X324891Y63485D01*
X325018D01*
X325145Y63358D01*
Y63105D01*
X325018Y62978D01*
X324764D01*
X324637Y63105D01*
X323875Y116318D02*
Y117079D01*
X324256D01*
X324383Y116952D01*
Y116698D01*
X324256Y116572D01*
X323875D01*
X325018Y116318D02*
Y117079D01*
X324637Y116698D01*
X325145D01*
X323875Y88378D02*
Y89139D01*
X324256D01*
X324383Y89012D01*
Y88758D01*
X324256Y88632D01*
X323875D01*
X324637Y89012D02*
X324764Y89139D01*
X325018D01*
X325145Y89012D01*
Y88885D01*
X325018Y88758D01*
X324891D01*
X325018D01*
X325145Y88632D01*
Y88505D01*
X325018Y88378D01*
X324764D01*
X324637Y88505D01*
X212369Y29450D02*
Y30211D01*
X212750D01*
X212877Y30084D01*
Y29830D01*
X212750Y29704D01*
X212369D01*
X213639Y29450D02*
X213131D01*
X213639Y29957D01*
Y30084D01*
X213512Y30211D01*
X213258D01*
X213131Y30084D01*
X400431Y230098D02*
Y229337D01*
X400939D01*
X401193D02*
X401447D01*
X401320D01*
Y230098D01*
X401193Y229971D01*
X336550Y184785D02*
Y184023D01*
Y184277D01*
X337058Y184785D01*
X336677Y184404D01*
X337058Y184023D01*
X244856Y301511D02*
X244602D01*
X244729D01*
Y300876D01*
X244602Y300749D01*
X244475D01*
X244348Y300876D01*
X245110Y300749D02*
Y301511D01*
X245491D01*
X245618Y301384D01*
Y301130D01*
X245491Y301003D01*
X245110D01*
X246380Y300749D02*
X245872D01*
X246380Y301257D01*
Y301384D01*
X246253Y301511D01*
X245999D01*
X245872Y301384D01*
X249301Y87249D02*
X249047D01*
X249174D01*
Y86614D01*
X249047Y86487D01*
X248920D01*
X248793Y86614D01*
X249555Y86487D02*
Y87249D01*
X249936D01*
X250063Y87122D01*
Y86868D01*
X249936Y86741D01*
X249555D01*
X250317Y86487D02*
X250571D01*
X250444D01*
Y87249D01*
X250317Y87122D01*
X244831Y133925D02*
Y133671D01*
Y133798D01*
X245466D01*
X245593Y133671D01*
Y133544D01*
X245466Y133417D01*
X244958Y134179D02*
X244831Y134306D01*
Y134559D01*
X244958Y134686D01*
X245085D01*
X245212Y134559D01*
X245339Y134686D01*
X245466D01*
X245593Y134559D01*
Y134306D01*
X245466Y134179D01*
X245339D01*
X245212Y134306D01*
X245085Y134179D01*
X244958D01*
X245212Y134306D02*
Y134559D01*
X244831Y117923D02*
Y117669D01*
Y117796D01*
X245466D01*
X245593Y117669D01*
Y117542D01*
X245466Y117415D01*
X244831Y118177D02*
Y118684D01*
X244958D01*
X245466Y118177D01*
X245593D01*
X29175Y131369D02*
X28921D01*
X29048D01*
Y130734D01*
X28921Y130607D01*
X28794D01*
X28667Y130734D01*
X29937Y131369D02*
X29683Y131242D01*
X29429Y130988D01*
Y130734D01*
X29556Y130607D01*
X29810D01*
X29937Y130734D01*
Y130861D01*
X29810Y130988D01*
X29429D01*
X180873Y34976D02*
X180619D01*
X180746D01*
Y34341D01*
X180619Y34214D01*
X180492D01*
X180365Y34341D01*
X181127Y34849D02*
X181254Y34976D01*
X181508D01*
X181635Y34849D01*
Y34722D01*
X181508Y34595D01*
X181381D01*
X181508D01*
X181635Y34468D01*
Y34341D01*
X181508Y34214D01*
X181254D01*
X181127Y34341D01*
X309651Y151649D02*
X309397D01*
X309524D01*
Y151014D01*
X309397Y150887D01*
X309270D01*
X309143Y151014D01*
X310413Y150887D02*
X309905D01*
X310413Y151395D01*
Y151522D01*
X310286Y151649D01*
X310032D01*
X309905Y151522D01*
X263031Y289560D02*
Y289306D01*
Y289433D01*
X263665D01*
X263792Y289306D01*
Y289179D01*
X263665Y289052D01*
X263792Y289814D02*
Y290068D01*
Y289941D01*
X263031D01*
X263158Y289814D01*
X249911Y299694D02*
X250165D01*
X250038D01*
Y298933D01*
X249911D01*
X250165D01*
X251053Y299567D02*
X250926Y299694D01*
X250672D01*
X250545Y299567D01*
Y299060D01*
X250672Y298933D01*
X250926D01*
X251053Y299060D01*
X251307Y298933D02*
X251561D01*
X251434D01*
Y299694D01*
X251307Y299567D01*
X259486Y300050D02*
X258978D01*
Y299669D01*
X259232D01*
X258978D01*
Y299288D01*
X259740Y300050D02*
Y299288D01*
X260121D01*
X260248Y299415D01*
Y299542D01*
X260121Y299669D01*
X259740D01*
X260121D01*
X260248Y299796D01*
Y299923D01*
X260121Y300050D01*
X259740D01*
X260502Y299288D02*
X260756D01*
X260629D01*
Y300050D01*
X260502Y299923D01*
X539140Y110704D02*
Y109942D01*
X539521D01*
X539648Y110069D01*
Y110577D01*
X539521Y110704D01*
X539140D01*
X540410Y110577D02*
X540283Y110704D01*
X540029D01*
X539902Y110577D01*
Y110450D01*
X540029Y110323D01*
X540283D01*
X540410Y110196D01*
Y110069D01*
X540283Y109942D01*
X540029D01*
X539902Y110069D01*
X540664D02*
X540791Y109942D01*
X541045D01*
X541172Y110069D01*
Y110577D01*
X541045Y110704D01*
X540791D01*
X540664Y110577D01*
Y110450D01*
X540791Y110323D01*
X541172D01*
X533298Y110704D02*
Y109942D01*
X533679D01*
X533806Y110069D01*
Y110577D01*
X533679Y110704D01*
X533298D01*
X534568Y110577D02*
X534441Y110704D01*
X534187D01*
X534060Y110577D01*
Y110450D01*
X534187Y110323D01*
X534441D01*
X534568Y110196D01*
Y110069D01*
X534441Y109942D01*
X534187D01*
X534060Y110069D01*
X534822Y110577D02*
X534949Y110704D01*
X535203D01*
X535330Y110577D01*
Y110450D01*
X535203Y110323D01*
X535330Y110196D01*
Y110069D01*
X535203Y109942D01*
X534949D01*
X534822Y110069D01*
Y110196D01*
X534949Y110323D01*
X534822Y110450D01*
Y110577D01*
X534949Y110323D02*
X535203D01*
X657758Y110704D02*
Y109942D01*
X658139D01*
X658266Y110069D01*
Y110577D01*
X658139Y110704D01*
X657758D01*
X659028Y110577D02*
X658901Y110704D01*
X658647D01*
X658520Y110577D01*
Y110450D01*
X658647Y110323D01*
X658901D01*
X659028Y110196D01*
Y110069D01*
X658901Y109942D01*
X658647D01*
X658520Y110069D01*
X659282Y110704D02*
X659790D01*
Y110577D01*
X659282Y110069D01*
Y109942D01*
X651916Y110704D02*
Y109942D01*
X652297D01*
X652424Y110069D01*
Y110577D01*
X652297Y110704D01*
X651916D01*
X653186Y110577D02*
X653059Y110704D01*
X652805D01*
X652678Y110577D01*
Y110450D01*
X652805Y110323D01*
X653059D01*
X653186Y110196D01*
Y110069D01*
X653059Y109942D01*
X652805D01*
X652678Y110069D01*
X653948Y110704D02*
X653694Y110577D01*
X653440Y110323D01*
Y110069D01*
X653567Y109942D01*
X653821D01*
X653948Y110069D01*
Y110196D01*
X653821Y110323D01*
X653440D01*
X646074Y110704D02*
Y109942D01*
X646455D01*
X646582Y110069D01*
Y110577D01*
X646455Y110704D01*
X646074D01*
X647344Y110577D02*
X647217Y110704D01*
X646963D01*
X646836Y110577D01*
Y110450D01*
X646963Y110323D01*
X647217D01*
X647344Y110196D01*
Y110069D01*
X647217Y109942D01*
X646963D01*
X646836Y110069D01*
X648106Y110704D02*
X647598D01*
Y110323D01*
X647852Y110450D01*
X647979D01*
X648106Y110323D01*
Y110069D01*
X647979Y109942D01*
X647725D01*
X647598Y110069D01*
X669442Y110704D02*
Y109942D01*
X669823D01*
X669950Y110069D01*
Y110577D01*
X669823Y110704D01*
X669442D01*
X670712Y110577D02*
X670585Y110704D01*
X670331D01*
X670204Y110577D01*
Y110450D01*
X670331Y110323D01*
X670585D01*
X670712Y110196D01*
Y110069D01*
X670585Y109942D01*
X670331D01*
X670204Y110069D01*
X671347Y109942D02*
Y110704D01*
X670966Y110323D01*
X671474D01*
X281965Y300406D02*
Y299644D01*
X282346D01*
X282473Y299771D01*
Y300279D01*
X282346Y300406D01*
X281965D01*
X283235Y300279D02*
X283108Y300406D01*
X282854D01*
X282727Y300279D01*
Y300152D01*
X282854Y300025D01*
X283108D01*
X283235Y299898D01*
Y299771D01*
X283108Y299644D01*
X282854D01*
X282727Y299771D01*
X283489Y300279D02*
X283616Y300406D01*
X283870D01*
X283997Y300279D01*
Y300152D01*
X283870Y300025D01*
X283743D01*
X283870D01*
X283997Y299898D01*
Y299771D01*
X283870Y299644D01*
X283616D01*
X283489Y299771D01*
X276123Y300406D02*
Y299644D01*
X276504D01*
X276631Y299771D01*
Y300279D01*
X276504Y300406D01*
X276123D01*
X277393Y300279D02*
X277266Y300406D01*
X277012D01*
X276885Y300279D01*
Y300152D01*
X277012Y300025D01*
X277266D01*
X277393Y299898D01*
Y299771D01*
X277266Y299644D01*
X277012D01*
X276885Y299771D01*
X278155Y299644D02*
X277647D01*
X278155Y300152D01*
Y300279D01*
X278028Y300406D01*
X277774D01*
X277647Y300279D01*
X256679Y100711D02*
X255917D01*
Y100330D01*
X256044Y100203D01*
X256552D01*
X256679Y100330D01*
Y100711D01*
X256552Y99441D02*
X256679Y99568D01*
Y99822D01*
X256552Y99949D01*
X256425D01*
X256298Y99822D01*
Y99568D01*
X256171Y99441D01*
X256044D01*
X255917Y99568D01*
Y99822D01*
X256044Y99949D01*
X255917Y99187D02*
Y98933D01*
Y99060D01*
X256679D01*
X256552Y99187D01*
X310540Y245034D02*
Y244272D01*
X310921D01*
X311048Y244399D01*
Y244907D01*
X310921Y245034D01*
X310540D01*
X311683Y244272D02*
Y245034D01*
X311302Y244653D01*
X311810D01*
X194097Y245409D02*
Y244647D01*
X194478D01*
X194605Y244774D01*
Y245282D01*
X194478Y245409D01*
X194097D01*
X194859Y245282D02*
X194986Y245409D01*
X195240D01*
X195367Y245282D01*
Y245155D01*
X195240Y245028D01*
X195113D01*
X195240D01*
X195367Y244901D01*
Y244774D01*
X195240Y244647D01*
X194986D01*
X194859Y244774D01*
X252435Y84791D02*
Y85553D01*
X252054D01*
X251927Y85426D01*
Y84918D01*
X252054Y84791D01*
X252435D01*
X251165Y85553D02*
X251673D01*
X251165Y85045D01*
Y84918D01*
X251292Y84791D01*
X251546D01*
X251673Y84918D01*
X418770Y252527D02*
Y251765D01*
X419151D01*
X419278Y251892D01*
Y252400D01*
X419151Y252527D01*
X418770D01*
X419532Y251765D02*
X419785D01*
X419659D01*
Y252527D01*
X419532Y252400D01*
X373888Y276860D02*
X373761Y276987D01*
X373508D01*
X373381Y276860D01*
Y276352D01*
X373508Y276225D01*
X373761D01*
X373888Y276352D01*
X374523Y276987D02*
X374269D01*
X374142Y276860D01*
Y276352D01*
X374269Y276225D01*
X374523D01*
X374650Y276352D01*
Y276860D01*
X374523Y276987D01*
X374904Y276225D02*
Y276987D01*
X375412Y276225D01*
Y276987D01*
X375666D02*
Y276479D01*
X375920Y276225D01*
X376174Y276479D01*
Y276987D01*
X376935Y276225D02*
X376428D01*
X376935Y276733D01*
Y276860D01*
X376808Y276987D01*
X376555D01*
X376428Y276860D01*
X350647Y252857D02*
X350520Y252984D01*
X350266D01*
X350139Y252857D01*
Y252349D01*
X350266Y252222D01*
X350520D01*
X350647Y252349D01*
X351282Y252984D02*
X351028D01*
X350901Y252857D01*
Y252349D01*
X351028Y252222D01*
X351282D01*
X351409Y252349D01*
Y252857D01*
X351282Y252984D01*
X351663Y252222D02*
Y252984D01*
X352170Y252222D01*
Y252984D01*
X352424D02*
Y252476D01*
X352678Y252222D01*
X352932Y252476D01*
Y252984D01*
X353186Y252222D02*
X353440D01*
X353313D01*
Y252984D01*
X353186Y252857D01*
X312445Y35915D02*
X312318Y36042D01*
X312064D01*
X311937Y35915D01*
Y35408D01*
X312064Y35281D01*
X312318D01*
X312445Y35408D01*
X313080Y36042D02*
X312826D01*
X312699Y35915D01*
Y35408D01*
X312826Y35281D01*
X313080D01*
X313207Y35408D01*
Y35915D01*
X313080Y36042D01*
X313461Y35281D02*
Y36042D01*
X313969Y35281D01*
Y36042D01*
X314223Y35281D02*
X314477D01*
X314350D01*
Y36042D01*
X314223Y35915D01*
X244094Y70930D02*
X243967Y70803D01*
Y70549D01*
X244094Y70422D01*
X244602D01*
X244729Y70549D01*
Y70803D01*
X244602Y70930D01*
X244729Y71184D02*
Y71438D01*
Y71311D01*
X243967D01*
X244094Y71184D01*
Y71818D02*
X243967Y71945D01*
Y72199D01*
X244094Y72326D01*
X244602D01*
X244729Y72199D01*
Y71945D01*
X244602Y71818D01*
X244094D01*
X244729Y72580D02*
Y72834D01*
Y72707D01*
X243967D01*
X244094Y72580D01*
X217017Y67199D02*
X216890Y67326D01*
X216637D01*
X216510Y67199D01*
Y66691D01*
X216637Y66564D01*
X216890D01*
X217017Y66691D01*
X217271Y66564D02*
X217525D01*
X217398D01*
Y67326D01*
X217271Y67199D01*
X217906D02*
X218033Y67326D01*
X218287D01*
X218414Y67199D01*
Y66691D01*
X218287Y66564D01*
X218033D01*
X217906Y66691D01*
Y67199D01*
X218668D02*
X218795Y67326D01*
X219049D01*
X219176Y67199D01*
Y66691D01*
X219049Y66564D01*
X218795D01*
X218668Y66691D01*
Y67199D01*
X224790Y130048D02*
X224917Y130175D01*
Y130429D01*
X224790Y130556D01*
X224282D01*
X224155Y130429D01*
Y130175D01*
X224282Y130048D01*
Y129794D02*
X224155Y129667D01*
Y129413D01*
X224282Y129286D01*
X224790D01*
X224917Y129413D01*
Y129667D01*
X224790Y129794D01*
X224663D01*
X224536Y129667D01*
Y129286D01*
X224282Y129032D02*
X224155Y128905D01*
Y128651D01*
X224282Y128524D01*
X224790D01*
X224917Y128651D01*
Y128905D01*
X224790Y129032D01*
X224663D01*
X224536Y128905D01*
Y128524D01*
X224790Y126492D02*
X224917Y126619D01*
Y126873D01*
X224790Y127000D01*
X224282D01*
X224155Y126873D01*
Y126619D01*
X224282Y126492D01*
Y126238D02*
X224155Y126111D01*
Y125857D01*
X224282Y125730D01*
X224790D01*
X224917Y125857D01*
Y126111D01*
X224790Y126238D01*
X224663D01*
X224536Y126111D01*
Y125730D01*
X224790Y125476D02*
X224917Y125349D01*
Y125095D01*
X224790Y124968D01*
X224663D01*
X224536Y125095D01*
X224409Y124968D01*
X224282D01*
X224155Y125095D01*
Y125349D01*
X224282Y125476D01*
X224409D01*
X224536Y125349D01*
X224663Y125476D01*
X224790D01*
X224536Y125349D02*
Y125095D01*
X224790Y122682D02*
X224917Y122809D01*
Y123063D01*
X224790Y123190D01*
X224282D01*
X224155Y123063D01*
Y122809D01*
X224282Y122682D01*
Y122428D02*
X224155Y122301D01*
Y122047D01*
X224282Y121920D01*
X224790D01*
X224917Y122047D01*
Y122301D01*
X224790Y122428D01*
X224663D01*
X224536Y122301D01*
Y121920D01*
X224917Y121666D02*
Y121158D01*
X224790D01*
X224282Y121666D01*
X224155D01*
X224790Y118872D02*
X224917Y118999D01*
Y119253D01*
X224790Y119380D01*
X224282D01*
X224155Y119253D01*
Y118999D01*
X224282Y118872D01*
Y118618D02*
X224155Y118491D01*
Y118237D01*
X224282Y118110D01*
X224790D01*
X224917Y118237D01*
Y118491D01*
X224790Y118618D01*
X224663D01*
X224536Y118491D01*
Y118110D01*
X224917Y117348D02*
X224790Y117602D01*
X224536Y117856D01*
X224282D01*
X224155Y117729D01*
Y117475D01*
X224282Y117348D01*
X224409D01*
X224536Y117475D01*
Y117856D01*
X224790Y115316D02*
X224917Y115443D01*
Y115697D01*
X224790Y115824D01*
X224282D01*
X224155Y115697D01*
Y115443D01*
X224282Y115316D01*
Y115062D02*
X224155Y114935D01*
Y114681D01*
X224282Y114554D01*
X224790D01*
X224917Y114681D01*
Y114935D01*
X224790Y115062D01*
X224663D01*
X224536Y114935D01*
Y114554D01*
X224917Y113792D02*
Y114300D01*
X224536D01*
X224663Y114046D01*
Y113919D01*
X224536Y113792D01*
X224282D01*
X224155Y113919D01*
Y114173D01*
X224282Y114300D01*
X224790Y111506D02*
X224917Y111633D01*
Y111887D01*
X224790Y112014D01*
X224282D01*
X224155Y111887D01*
Y111633D01*
X224282Y111506D01*
Y111252D02*
X224155Y111125D01*
Y110871D01*
X224282Y110744D01*
X224790D01*
X224917Y110871D01*
Y111125D01*
X224790Y111252D01*
X224663D01*
X224536Y111125D01*
Y110744D01*
X224155Y110109D02*
X224917D01*
X224536Y110490D01*
Y109982D01*
X224790Y107696D02*
X224917Y107823D01*
Y108077D01*
X224790Y108204D01*
X224282D01*
X224155Y108077D01*
Y107823D01*
X224282Y107696D01*
Y107442D02*
X224155Y107315D01*
Y107061D01*
X224282Y106934D01*
X224790D01*
X224917Y107061D01*
Y107315D01*
X224790Y107442D01*
X224663D01*
X224536Y107315D01*
Y106934D01*
X224790Y106680D02*
X224917Y106553D01*
Y106299D01*
X224790Y106172D01*
X224663D01*
X224536Y106299D01*
Y106426D01*
Y106299D01*
X224409Y106172D01*
X224282D01*
X224155Y106299D01*
Y106553D01*
X224282Y106680D01*
X224790Y103886D02*
X224917Y104013D01*
Y104267D01*
X224790Y104394D01*
X224282D01*
X224155Y104267D01*
Y104013D01*
X224282Y103886D01*
Y103632D02*
X224155Y103505D01*
Y103251D01*
X224282Y103124D01*
X224790D01*
X224917Y103251D01*
Y103505D01*
X224790Y103632D01*
X224663D01*
X224536Y103505D01*
Y103124D01*
X224155Y102362D02*
Y102870D01*
X224663Y102362D01*
X224790D01*
X224917Y102489D01*
Y102743D01*
X224790Y102870D01*
X224790Y99949D02*
X224917Y100076D01*
Y100330D01*
X224790Y100457D01*
X224282D01*
X224155Y100330D01*
Y100076D01*
X224282Y99949D01*
Y99695D02*
X224155Y99568D01*
Y99314D01*
X224282Y99187D01*
X224790D01*
X224917Y99314D01*
Y99568D01*
X224790Y99695D01*
X224663D01*
X224536Y99568D01*
Y99187D01*
X224155Y98933D02*
Y98679D01*
Y98806D01*
X224917D01*
X224790Y98933D01*
X224790Y96012D02*
X224917Y96139D01*
Y96393D01*
X224790Y96520D01*
X224282D01*
X224155Y96393D01*
Y96139D01*
X224282Y96012D01*
Y95758D02*
X224155Y95631D01*
Y95377D01*
X224282Y95250D01*
X224790D01*
X224917Y95377D01*
Y95631D01*
X224790Y95758D01*
X224663D01*
X224536Y95631D01*
Y95250D01*
X224790Y94996D02*
X224917Y94869D01*
Y94615D01*
X224790Y94488D01*
X224282D01*
X224155Y94615D01*
Y94869D01*
X224282Y94996D01*
X224790D01*
Y92202D02*
X224917Y92329D01*
Y92583D01*
X224790Y92710D01*
X224282D01*
X224155Y92583D01*
Y92329D01*
X224282Y92202D01*
X224790Y91948D02*
X224917Y91821D01*
Y91567D01*
X224790Y91440D01*
X224663D01*
X224536Y91567D01*
X224409Y91440D01*
X224282D01*
X224155Y91567D01*
Y91821D01*
X224282Y91948D01*
X224409D01*
X224536Y91821D01*
X224663Y91948D01*
X224790D01*
X224536Y91821D02*
Y91567D01*
X224282Y91186D02*
X224155Y91059D01*
Y90805D01*
X224282Y90678D01*
X224790D01*
X224917Y90805D01*
Y91059D01*
X224790Y91186D01*
X224663D01*
X224536Y91059D01*
Y90678D01*
X224790Y88392D02*
X224917Y88519D01*
Y88773D01*
X224790Y88900D01*
X224282D01*
X224155Y88773D01*
Y88519D01*
X224282Y88392D01*
X224790Y88138D02*
X224917Y88011D01*
Y87757D01*
X224790Y87630D01*
X224663D01*
X224536Y87757D01*
X224409Y87630D01*
X224282D01*
X224155Y87757D01*
Y88011D01*
X224282Y88138D01*
X224409D01*
X224536Y88011D01*
X224663Y88138D01*
X224790D01*
X224536Y88011D02*
Y87757D01*
X224790Y87376D02*
X224917Y87249D01*
Y86995D01*
X224790Y86868D01*
X224663D01*
X224536Y86995D01*
X224409Y86868D01*
X224282D01*
X224155Y86995D01*
Y87249D01*
X224282Y87376D01*
X224409D01*
X224536Y87249D01*
X224663Y87376D01*
X224790D01*
X224536Y87249D02*
Y86995D01*
X235966Y130810D02*
X235839Y130683D01*
Y130429D01*
X235966Y130302D01*
X236474D01*
X236601Y130429D01*
Y130683D01*
X236474Y130810D01*
X235966Y131064D02*
X235839Y131191D01*
Y131445D01*
X235966Y131572D01*
X236093D01*
X236220Y131445D01*
X236347Y131572D01*
X236474D01*
X236601Y131445D01*
Y131191D01*
X236474Y131064D01*
X236347D01*
X236220Y131191D01*
X236093Y131064D01*
X235966D01*
X236220Y131191D02*
Y131445D01*
X235839Y131826D02*
Y132334D01*
X235966D01*
X236474Y131826D01*
X236601D01*
X235712Y86360D02*
X235585Y86233D01*
Y85979D01*
X235712Y85852D01*
X236220D01*
X236347Y85979D01*
Y86233D01*
X236220Y86360D01*
X235712Y86614D02*
X235585Y86741D01*
Y86995D01*
X235712Y87122D01*
X235839D01*
X235966Y86995D01*
X236093Y87122D01*
X236220D01*
X236347Y86995D01*
Y86741D01*
X236220Y86614D01*
X236093D01*
X235966Y86741D01*
X235839Y86614D01*
X235712D01*
X235966Y86741D02*
Y86995D01*
X235585Y87884D02*
X235712Y87630D01*
X235966Y87376D01*
X236220D01*
X236347Y87503D01*
Y87757D01*
X236220Y87884D01*
X236093D01*
X235966Y87757D01*
Y87376D01*
X235696Y89408D02*
X235569Y89281D01*
Y89027D01*
X235696Y88900D01*
X236204D01*
X236331Y89027D01*
Y89281D01*
X236204Y89408D01*
X235696Y89662D02*
X235569Y89789D01*
Y90043D01*
X235696Y90170D01*
X235823D01*
X235950Y90043D01*
X236077Y90170D01*
X236204D01*
X236331Y90043D01*
Y89789D01*
X236204Y89662D01*
X236077D01*
X235950Y89789D01*
X235823Y89662D01*
X235696D01*
X235950Y89789D02*
Y90043D01*
X235569Y90932D02*
Y90424D01*
X235950D01*
X235823Y90678D01*
Y90805D01*
X235950Y90932D01*
X236204D01*
X236331Y90805D01*
Y90551D01*
X236204Y90424D01*
X235712Y92710D02*
X235585Y92583D01*
Y92329D01*
X235712Y92202D01*
X236220D01*
X236347Y92329D01*
Y92583D01*
X236220Y92710D01*
X235712Y92964D02*
X235585Y93091D01*
Y93345D01*
X235712Y93472D01*
X235839D01*
X235966Y93345D01*
X236093Y93472D01*
X236220D01*
X236347Y93345D01*
Y93091D01*
X236220Y92964D01*
X236093D01*
X235966Y93091D01*
X235839Y92964D01*
X235712D01*
X235966Y93091D02*
Y93345D01*
X236347Y94107D02*
X235585D01*
X235966Y93726D01*
Y94234D01*
X235712Y96774D02*
X235585Y96647D01*
Y96393D01*
X235712Y96266D01*
X236220D01*
X236347Y96393D01*
Y96647D01*
X236220Y96774D01*
X235712Y97028D02*
X235585Y97155D01*
Y97409D01*
X235712Y97536D01*
X235839D01*
X235966Y97409D01*
X236093Y97536D01*
X236220D01*
X236347Y97409D01*
Y97155D01*
X236220Y97028D01*
X236093D01*
X235966Y97155D01*
X235839Y97028D01*
X235712D01*
X235966Y97155D02*
Y97409D01*
X235712Y97790D02*
X235585Y97917D01*
Y98171D01*
X235712Y98298D01*
X235839D01*
X235966Y98171D01*
Y98044D01*
Y98171D01*
X236093Y98298D01*
X236220D01*
X236347Y98171D01*
Y97917D01*
X236220Y97790D01*
X235839Y100711D02*
X235712Y100584D01*
Y100330D01*
X235839Y100203D01*
X236347D01*
X236474Y100330D01*
Y100584D01*
X236347Y100711D01*
X235839Y100965D02*
X235712Y101092D01*
Y101346D01*
X235839Y101473D01*
X235966D01*
X236093Y101346D01*
X236220Y101473D01*
X236347D01*
X236474Y101346D01*
Y101092D01*
X236347Y100965D01*
X236220D01*
X236093Y101092D01*
X235966Y100965D01*
X235839D01*
X236093Y101092D02*
Y101346D01*
X236474Y102234D02*
Y101727D01*
X235966Y102234D01*
X235839D01*
X235712Y102107D01*
Y101853D01*
X235839Y101727D01*
X235696Y104673D02*
X235569Y104546D01*
Y104292D01*
X235696Y104165D01*
X236204D01*
X236331Y104292D01*
Y104546D01*
X236204Y104673D01*
X235696Y104927D02*
X235569Y105054D01*
Y105308D01*
X235696Y105435D01*
X235823D01*
X235950Y105308D01*
X236077Y105435D01*
X236204D01*
X236331Y105308D01*
Y105054D01*
X236204Y104927D01*
X236077D01*
X235950Y105054D01*
X235823Y104927D01*
X235696D01*
X235950Y105054D02*
Y105308D01*
X236331Y105689D02*
Y105943D01*
Y105816D01*
X235569D01*
X235696Y105689D01*
X235950Y108229D02*
X235823Y108102D01*
Y107848D01*
X235950Y107721D01*
X236458D01*
X236585Y107848D01*
Y108102D01*
X236458Y108229D01*
X235950Y108483D02*
X235823Y108610D01*
Y108864D01*
X235950Y108991D01*
X236077D01*
X236204Y108864D01*
X236331Y108991D01*
X236458D01*
X236585Y108864D01*
Y108610D01*
X236458Y108483D01*
X236331D01*
X236204Y108610D01*
X236077Y108483D01*
X235950D01*
X236204Y108610D02*
Y108864D01*
X235950Y109245D02*
X235823Y109372D01*
Y109626D01*
X235950Y109753D01*
X236458D01*
X236585Y109626D01*
Y109372D01*
X236458Y109245D01*
X235950D01*
Y112039D02*
X235823Y111912D01*
Y111658D01*
X235950Y111531D01*
X236458D01*
X236585Y111658D01*
Y111912D01*
X236458Y112039D01*
X235823Y112293D02*
Y112801D01*
X235950D01*
X236458Y112293D01*
X236585D01*
X236458Y113055D02*
X236585Y113182D01*
Y113436D01*
X236458Y113563D01*
X235950D01*
X235823Y113436D01*
Y113182D01*
X235950Y113055D01*
X236077D01*
X236204Y113182D01*
Y113563D01*
X235950Y115849D02*
X235823Y115722D01*
Y115468D01*
X235950Y115341D01*
X236458D01*
X236585Y115468D01*
Y115722D01*
X236458Y115849D01*
X235823Y116103D02*
Y116611D01*
X235950D01*
X236458Y116103D01*
X236585D01*
X235950Y116865D02*
X235823Y116992D01*
Y117246D01*
X235950Y117373D01*
X236077D01*
X236204Y117246D01*
X236331Y117373D01*
X236458D01*
X236585Y117246D01*
Y116992D01*
X236458Y116865D01*
X236331D01*
X236204Y116992D01*
X236077Y116865D01*
X235950D01*
X236204Y116992D02*
Y117246D01*
X235950Y119405D02*
X235823Y119278D01*
Y119024D01*
X235950Y118897D01*
X236458D01*
X236585Y119024D01*
Y119278D01*
X236458Y119405D01*
X235823Y119659D02*
Y120167D01*
X235950D01*
X236458Y119659D01*
X236585D01*
X235823Y120421D02*
Y120929D01*
X235950D01*
X236458Y120421D01*
X236585D01*
X235696Y123469D02*
X235569Y123342D01*
Y123088D01*
X235696Y122961D01*
X236204D01*
X236331Y123088D01*
Y123342D01*
X236204Y123469D01*
X235569Y123723D02*
Y124231D01*
X235696D01*
X236204Y123723D01*
X236331D01*
X235569Y124993D02*
X235696Y124739D01*
X235950Y124485D01*
X236204D01*
X236331Y124612D01*
Y124866D01*
X236204Y124993D01*
X236077D01*
X235950Y124866D01*
Y124485D01*
X235966Y127254D02*
X235839Y127127D01*
Y126873D01*
X235966Y126746D01*
X236474D01*
X236601Y126873D01*
Y127127D01*
X236474Y127254D01*
X235839Y127508D02*
Y128016D01*
X235966D01*
X236474Y127508D01*
X236601D01*
X235839Y128778D02*
Y128270D01*
X236220D01*
X236093Y128524D01*
Y128651D01*
X236220Y128778D01*
X236474D01*
X236601Y128651D01*
Y128397D01*
X236474Y128270D01*
X357378Y110526D02*
X357251Y110653D01*
X356997D01*
X356870Y110526D01*
Y110018D01*
X356997Y109891D01*
X357251D01*
X357378Y110018D01*
X357632Y110653D02*
X358140D01*
Y110526D01*
X357632Y110018D01*
Y109891D01*
X358774D02*
Y110653D01*
X358394Y110272D01*
X358901D01*
X374904Y110526D02*
X374777Y110653D01*
X374523D01*
X374396Y110526D01*
Y110018D01*
X374523Y109891D01*
X374777D01*
X374904Y110018D01*
X375158Y110653D02*
X375666D01*
Y110526D01*
X375158Y110018D01*
Y109891D01*
X375920Y110526D02*
X376046Y110653D01*
X376300D01*
X376427Y110526D01*
Y110399D01*
X376300Y110272D01*
X376173D01*
X376300D01*
X376427Y110145D01*
Y110018D01*
X376300Y109891D01*
X376046D01*
X375920Y110018D01*
X394081Y110526D02*
X393954Y110653D01*
X393700D01*
X393573Y110526D01*
Y110018D01*
X393700Y109891D01*
X393954D01*
X394081Y110018D01*
X394335Y110653D02*
X394843D01*
Y110526D01*
X394335Y110018D01*
Y109891D01*
X395604D02*
X395096D01*
X395604Y110399D01*
Y110526D01*
X395477Y110653D01*
X395223D01*
X395096Y110526D01*
X222504Y274574D02*
X222377Y274701D01*
X222123D01*
X221996Y274574D01*
Y274066D01*
X222123Y273939D01*
X222377D01*
X222504Y274066D01*
X223266Y274701D02*
X223012Y274574D01*
X222758Y274320D01*
Y274066D01*
X222885Y273939D01*
X223139D01*
X223266Y274066D01*
Y274193D01*
X223139Y274320D01*
X222758D01*
X223520Y274701D02*
X224028D01*
Y274574D01*
X223520Y274066D01*
Y273939D01*
X231648Y268986D02*
X231775Y268859D01*
X232029D01*
X232156Y268986D01*
Y269494D01*
X232029Y269621D01*
X231775D01*
X231648Y269494D01*
X230886Y268859D02*
X231140Y268986D01*
X231394Y269240D01*
Y269494D01*
X231267Y269621D01*
X231013D01*
X230886Y269494D01*
Y269367D01*
X231013Y269240D01*
X231394D01*
X230124Y268859D02*
X230378Y268986D01*
X230632Y269240D01*
Y269494D01*
X230505Y269621D01*
X230251D01*
X230124Y269494D01*
Y269367D01*
X230251Y269240D01*
X230632D01*
X211836Y267954D02*
X211709Y268081D01*
X211455D01*
X211328Y267954D01*
Y267446D01*
X211455Y267319D01*
X211709D01*
X211836Y267446D01*
X212598Y268081D02*
X212344Y267954D01*
X212090Y267700D01*
Y267446D01*
X212217Y267319D01*
X212471D01*
X212598Y267446D01*
Y267573D01*
X212471Y267700D01*
X212090D01*
X213360Y268081D02*
X212852D01*
Y267700D01*
X213106Y267827D01*
X213233D01*
X213360Y267700D01*
Y267446D01*
X213233Y267319D01*
X212979D01*
X212852Y267446D01*
X145288Y244094D02*
X145161Y244221D01*
X144907D01*
X144780Y244094D01*
Y243586D01*
X144907Y243459D01*
X145161D01*
X145288Y243586D01*
X146050Y244221D02*
X145796Y244094D01*
X145542Y243840D01*
Y243586D01*
X145669Y243459D01*
X145923D01*
X146050Y243586D01*
Y243713D01*
X145923Y243840D01*
X145542D01*
X146685Y243459D02*
Y244221D01*
X146304Y243840D01*
X146812D01*
X141732Y244094D02*
X141605Y244221D01*
X141351D01*
X141224Y244094D01*
Y243586D01*
X141351Y243459D01*
X141605D01*
X141732Y243586D01*
X142494Y244221D02*
X142240Y244094D01*
X141986Y243840D01*
Y243586D01*
X142113Y243459D01*
X142367D01*
X142494Y243586D01*
Y243713D01*
X142367Y243840D01*
X141986D01*
X142748Y244094D02*
X142875Y244221D01*
X143129D01*
X143256Y244094D01*
Y243967D01*
X143129Y243840D01*
X143002D01*
X143129D01*
X143256Y243713D01*
Y243586D01*
X143129Y243459D01*
X142875D01*
X142748Y243586D01*
X138176Y244094D02*
X138049Y244221D01*
X137795D01*
X137668Y244094D01*
Y243586D01*
X137795Y243459D01*
X138049D01*
X138176Y243586D01*
X138938Y244221D02*
X138684Y244094D01*
X138430Y243840D01*
Y243586D01*
X138557Y243459D01*
X138811D01*
X138938Y243586D01*
Y243713D01*
X138811Y243840D01*
X138430D01*
X139700Y243459D02*
X139192D01*
X139700Y243967D01*
Y244094D01*
X139573Y244221D01*
X139319D01*
X139192Y244094D01*
X295402D02*
X295275Y244221D01*
X295021D01*
X294894Y244094D01*
Y243586D01*
X295021Y243459D01*
X295275D01*
X295402Y243586D01*
X296164Y244221D02*
X295656D01*
Y243840D01*
X295910Y243967D01*
X296037D01*
X296164Y243840D01*
Y243586D01*
X296037Y243459D01*
X295783D01*
X295656Y243586D01*
X296418Y244221D02*
X296926D01*
Y244094D01*
X296418Y243586D01*
Y243459D01*
X291592Y244094D02*
X291465Y244221D01*
X291211D01*
X291084Y244094D01*
Y243586D01*
X291211Y243459D01*
X291465D01*
X291592Y243586D01*
X292354Y244221D02*
X291846D01*
Y243840D01*
X292100Y243967D01*
X292227D01*
X292354Y243840D01*
Y243586D01*
X292227Y243459D01*
X291973D01*
X291846Y243586D01*
X293116Y244221D02*
X292862Y244094D01*
X292608Y243840D01*
Y243586D01*
X292735Y243459D01*
X292989D01*
X293116Y243586D01*
Y243713D01*
X292989Y243840D01*
X292608D01*
X284861Y244881D02*
X284734Y245008D01*
X284480D01*
X284353Y244881D01*
Y244373D01*
X284480Y244246D01*
X284734D01*
X284861Y244373D01*
X285623Y245008D02*
X285115D01*
Y244627D01*
X285369Y244754D01*
X285496D01*
X285623Y244627D01*
Y244373D01*
X285496Y244246D01*
X285242D01*
X285115Y244373D01*
X286384Y245008D02*
X285876D01*
Y244627D01*
X286130Y244754D01*
X286257D01*
X286384Y244627D01*
Y244373D01*
X286257Y244246D01*
X286003D01*
X285876Y244373D01*
X279019Y244881D02*
X278892Y245008D01*
X278638D01*
X278511Y244881D01*
Y244373D01*
X278638Y244246D01*
X278892D01*
X279019Y244373D01*
X279781Y245008D02*
X279273D01*
Y244627D01*
X279527Y244754D01*
X279654D01*
X279781Y244627D01*
Y244373D01*
X279654Y244246D01*
X279400D01*
X279273Y244373D01*
X280415Y244246D02*
Y245008D01*
X280035Y244627D01*
X280542D01*
X189205Y240792D02*
X189078Y240665D01*
Y240411D01*
X189205Y240284D01*
X189713D01*
X189840Y240411D01*
Y240665D01*
X189713Y240792D01*
X189078Y241554D02*
Y241046D01*
X189459D01*
X189332Y241300D01*
Y241427D01*
X189459Y241554D01*
X189713D01*
X189840Y241427D01*
Y241173D01*
X189713Y241046D01*
X189205Y241808D02*
X189078Y241934D01*
Y242188D01*
X189205Y242315D01*
X189332D01*
X189459Y242188D01*
Y242061D01*
Y242188D01*
X189586Y242315D01*
X189713D01*
X189840Y242188D01*
Y241934D01*
X189713Y241808D01*
X185141Y240792D02*
X185014Y240665D01*
Y240411D01*
X185141Y240284D01*
X185649D01*
X185776Y240411D01*
Y240665D01*
X185649Y240792D01*
X185014Y241554D02*
Y241046D01*
X185395D01*
X185268Y241300D01*
Y241427D01*
X185395Y241554D01*
X185649D01*
X185776Y241427D01*
Y241173D01*
X185649Y241046D01*
X185776Y242315D02*
Y241808D01*
X185268Y242315D01*
X185141D01*
X185014Y242188D01*
Y241934D01*
X185141Y241808D01*
X183642Y234315D02*
X183515Y234188D01*
Y233934D01*
X183642Y233807D01*
X184150D01*
X184277Y233934D01*
Y234188D01*
X184150Y234315D01*
X183515Y235077D02*
Y234569D01*
X183896D01*
X183769Y234823D01*
Y234950D01*
X183896Y235077D01*
X184150D01*
X184277Y234950D01*
Y234696D01*
X184150Y234569D01*
X184277Y235331D02*
Y235585D01*
Y235458D01*
X183515D01*
X183642Y235331D01*
X179578Y234188D02*
X179451Y234061D01*
Y233807D01*
X179578Y233680D01*
X180086D01*
X180213Y233807D01*
Y234061D01*
X180086Y234188D01*
X179451Y234950D02*
Y234442D01*
X179832D01*
X179705Y234696D01*
Y234823D01*
X179832Y234950D01*
X180086D01*
X180213Y234823D01*
Y234569D01*
X180086Y234442D01*
X179578Y235204D02*
X179451Y235331D01*
Y235585D01*
X179578Y235712D01*
X180086D01*
X180213Y235585D01*
Y235331D01*
X180086Y235204D01*
X179578D01*
X259563Y296203D02*
X259436Y296330D01*
X259182D01*
X259055Y296203D01*
Y295695D01*
X259182Y295568D01*
X259436D01*
X259563Y295695D01*
X260198Y295568D02*
Y296330D01*
X259817Y295949D01*
X260325D01*
X260579Y295695D02*
X260705Y295568D01*
X260959D01*
X261086Y295695D01*
Y296203D01*
X260959Y296330D01*
X260705D01*
X260579Y296203D01*
Y296076D01*
X260705Y295949D01*
X261086D01*
X223342Y300304D02*
X223215Y300431D01*
X222961D01*
X222834Y300304D01*
Y299796D01*
X222961Y299669D01*
X223215D01*
X223342Y299796D01*
X223977Y299669D02*
Y300431D01*
X223596Y300050D01*
X224104D01*
X224358Y300304D02*
X224485Y300431D01*
X224739D01*
X224866Y300304D01*
Y300177D01*
X224739Y300050D01*
X224866Y299923D01*
Y299796D01*
X224739Y299669D01*
X224485D01*
X224358Y299796D01*
Y299923D01*
X224485Y300050D01*
X224358Y300177D01*
Y300304D01*
X224485Y300050D02*
X224739D01*
X258166Y292875D02*
X258039Y293002D01*
X257785D01*
X257658Y292875D01*
Y292367D01*
X257785Y292240D01*
X258039D01*
X258166Y292367D01*
X258801Y292240D02*
Y293002D01*
X258420Y292621D01*
X258928D01*
X259182Y293002D02*
X259689D01*
Y292875D01*
X259182Y292367D01*
Y292240D01*
X247650Y300613D02*
X247523Y300740D01*
X247269D01*
X247142Y300613D01*
Y300105D01*
X247269Y299978D01*
X247523D01*
X247650Y300105D01*
X248285Y299978D02*
Y300740D01*
X247904Y300359D01*
X248412D01*
X249174Y300740D02*
X248920Y300613D01*
X248666Y300359D01*
Y300105D01*
X248793Y299978D01*
X249047D01*
X249174Y300105D01*
Y300232D01*
X249047Y300359D01*
X248666D01*
X238303Y301054D02*
X238430Y301181D01*
Y301435D01*
X238303Y301562D01*
X237795D01*
X237668Y301435D01*
Y301181D01*
X237795Y301054D01*
X237668Y300419D02*
X238430D01*
X238049Y300800D01*
Y300292D01*
X238430Y299530D02*
Y300038D01*
X238049D01*
X238176Y299784D01*
Y299657D01*
X238049Y299530D01*
X237795D01*
X237668Y299657D01*
Y299911D01*
X237795Y300038D01*
X174651Y135255D02*
X174778Y135128D01*
X175031D01*
X175158Y135255D01*
Y135763D01*
X175031Y135890D01*
X174778D01*
X174651Y135763D01*
X174016Y135890D02*
Y135128D01*
X174397Y135509D01*
X173889D01*
X173635Y135255D02*
X173508Y135128D01*
X173254D01*
X173127Y135255D01*
Y135382D01*
X173254Y135509D01*
X173381D01*
X173254D01*
X173127Y135636D01*
Y135763D01*
X173254Y135890D01*
X173508D01*
X173635Y135763D01*
X28611Y112014D02*
X28484Y112141D01*
X28230D01*
X28103Y112014D01*
Y111506D01*
X28230Y111379D01*
X28484D01*
X28611Y111506D01*
X29246Y111379D02*
Y112141D01*
X28865Y111760D01*
X29373D01*
X30135Y111379D02*
X29627D01*
X30135Y111887D01*
Y112014D01*
X30008Y112141D01*
X29754D01*
X29627Y112014D01*
X49032Y114097D02*
X48905Y114224D01*
X48652D01*
X48525Y114097D01*
Y113589D01*
X48652Y113462D01*
X48905D01*
X49032Y113589D01*
X49667Y113462D02*
Y114224D01*
X49286Y113843D01*
X49794D01*
X50048Y113462D02*
X50302D01*
X50175D01*
Y114224D01*
X50048Y114097D01*
X69098D02*
X68971Y114224D01*
X68718D01*
X68591Y114097D01*
Y113589D01*
X68718Y113462D01*
X68971D01*
X69098Y113589D01*
X69733Y113462D02*
Y114224D01*
X69352Y113843D01*
X69860D01*
X70114Y114097D02*
X70241Y114224D01*
X70495D01*
X70622Y114097D01*
Y113589D01*
X70495Y113462D01*
X70241D01*
X70114Y113589D01*
Y114097D01*
X89291D02*
X89164Y114224D01*
X88911D01*
X88784Y114097D01*
Y113589D01*
X88911Y113462D01*
X89164D01*
X89291Y113589D01*
X89545Y114097D02*
X89672Y114224D01*
X89926D01*
X90053Y114097D01*
Y113970D01*
X89926Y113843D01*
X89799D01*
X89926D01*
X90053Y113716D01*
Y113589D01*
X89926Y113462D01*
X89672D01*
X89545Y113589D01*
X90307D02*
X90434Y113462D01*
X90688D01*
X90815Y113589D01*
Y114097D01*
X90688Y114224D01*
X90434D01*
X90307Y114097D01*
Y113970D01*
X90434Y113843D01*
X90815D01*
X29093Y92227D02*
X28966Y92354D01*
X28713D01*
X28586Y92227D01*
Y91719D01*
X28713Y91592D01*
X28966D01*
X29093Y91719D01*
X29347Y92227D02*
X29474Y92354D01*
X29728D01*
X29855Y92227D01*
Y92100D01*
X29728Y91973D01*
X29601D01*
X29728D01*
X29855Y91846D01*
Y91719D01*
X29728Y91592D01*
X29474D01*
X29347Y91719D01*
X30109Y92227D02*
X30236Y92354D01*
X30490D01*
X30617Y92227D01*
Y92100D01*
X30490Y91973D01*
X30617Y91846D01*
Y91719D01*
X30490Y91592D01*
X30236D01*
X30109Y91719D01*
Y91846D01*
X30236Y91973D01*
X30109Y92100D01*
Y92227D01*
X30236Y91973D02*
X30490D01*
X49286Y92227D02*
X49159Y92354D01*
X48906D01*
X48779Y92227D01*
Y91719D01*
X48906Y91592D01*
X49159D01*
X49286Y91719D01*
X49540Y92227D02*
X49667Y92354D01*
X49921D01*
X50048Y92227D01*
Y92100D01*
X49921Y91973D01*
X49794D01*
X49921D01*
X50048Y91846D01*
Y91719D01*
X49921Y91592D01*
X49667D01*
X49540Y91719D01*
X50302Y92354D02*
X50810D01*
Y92227D01*
X50302Y91719D01*
Y91592D01*
X69479Y92227D02*
X69352Y92354D01*
X69099D01*
X68972Y92227D01*
Y91719D01*
X69099Y91592D01*
X69352D01*
X69479Y91719D01*
X69733Y92227D02*
X69860Y92354D01*
X70114D01*
X70241Y92227D01*
Y92100D01*
X70114Y91973D01*
X69987D01*
X70114D01*
X70241Y91846D01*
Y91719D01*
X70114Y91592D01*
X69860D01*
X69733Y91719D01*
X71003Y92354D02*
X70749Y92227D01*
X70495Y91973D01*
Y91719D01*
X70622Y91592D01*
X70876D01*
X71003Y91719D01*
Y91846D01*
X70876Y91973D01*
X70495D01*
X89672Y92227D02*
X89545Y92354D01*
X89292D01*
X89165Y92227D01*
Y91719D01*
X89292Y91592D01*
X89545D01*
X89672Y91719D01*
X89926Y92227D02*
X90053Y92354D01*
X90307D01*
X90434Y92227D01*
Y92100D01*
X90307Y91973D01*
X90180D01*
X90307D01*
X90434Y91846D01*
Y91719D01*
X90307Y91592D01*
X90053D01*
X89926Y91719D01*
X91196Y92354D02*
X90688D01*
Y91973D01*
X90942Y92100D01*
X91069D01*
X91196Y91973D01*
Y91719D01*
X91069Y91592D01*
X90815D01*
X90688Y91719D01*
X28966Y69697D02*
X28839Y69824D01*
X28586D01*
X28459Y69697D01*
Y69190D01*
X28586Y69063D01*
X28839D01*
X28966Y69190D01*
X29220Y69697D02*
X29347Y69824D01*
X29601D01*
X29728Y69697D01*
Y69570D01*
X29601Y69443D01*
X29474D01*
X29601D01*
X29728Y69317D01*
Y69190D01*
X29601Y69063D01*
X29347D01*
X29220Y69190D01*
X30363Y69063D02*
Y69824D01*
X29982Y69443D01*
X30490D01*
X49159Y69697D02*
X49032Y69824D01*
X48779D01*
X48652Y69697D01*
Y69190D01*
X48779Y69063D01*
X49032D01*
X49159Y69190D01*
X49413Y69697D02*
X49540Y69824D01*
X49794D01*
X49921Y69697D01*
Y69570D01*
X49794Y69443D01*
X49667D01*
X49794D01*
X49921Y69317D01*
Y69190D01*
X49794Y69063D01*
X49540D01*
X49413Y69190D01*
X50175Y69697D02*
X50302Y69824D01*
X50556D01*
X50683Y69697D01*
Y69570D01*
X50556Y69443D01*
X50429D01*
X50556D01*
X50683Y69317D01*
Y69190D01*
X50556Y69063D01*
X50302D01*
X50175Y69190D01*
X69352Y69697D02*
X69225Y69824D01*
X68972D01*
X68845Y69697D01*
Y69190D01*
X68972Y69063D01*
X69225D01*
X69352Y69190D01*
X69606Y69697D02*
X69733Y69824D01*
X69987D01*
X70114Y69697D01*
Y69570D01*
X69987Y69443D01*
X69860D01*
X69987D01*
X70114Y69317D01*
Y69190D01*
X69987Y69063D01*
X69733D01*
X69606Y69190D01*
X70876Y69063D02*
X70368D01*
X70876Y69570D01*
Y69697D01*
X70749Y69824D01*
X70495D01*
X70368Y69697D01*
X89545D02*
X89418Y69824D01*
X89165D01*
X89038Y69697D01*
Y69190D01*
X89165Y69063D01*
X89418D01*
X89545Y69190D01*
X89799Y69697D02*
X89926Y69824D01*
X90180D01*
X90307Y69697D01*
Y69570D01*
X90180Y69443D01*
X90053D01*
X90180D01*
X90307Y69317D01*
Y69190D01*
X90180Y69063D01*
X89926D01*
X89799Y69190D01*
X90561Y69063D02*
X90815D01*
X90688D01*
Y69824D01*
X90561Y69697D01*
X393827Y244627D02*
X393700Y244754D01*
X393446D01*
X393319Y244627D01*
Y244119D01*
X393446Y243992D01*
X393700D01*
X393827Y244119D01*
X394081Y243992D02*
X394335D01*
X394208D01*
Y244754D01*
X394081Y244627D01*
X394716D02*
X394842Y244754D01*
X395096D01*
X395223Y244627D01*
Y244500D01*
X395096Y244373D01*
X395223Y244246D01*
Y244119D01*
X395096Y243992D01*
X394842D01*
X394716Y244119D01*
Y244246D01*
X394842Y244373D01*
X394716Y244500D01*
Y244627D01*
X394842Y244373D02*
X395096D01*
X357569Y243840D02*
X357442Y243967D01*
X357188D01*
X357061Y243840D01*
Y243332D01*
X357188Y243205D01*
X357442D01*
X357569Y243332D01*
X357823Y243205D02*
X358076D01*
X357950D01*
Y243967D01*
X357823Y243840D01*
X358457Y243967D02*
X358965D01*
Y243840D01*
X358457Y243332D01*
Y243205D01*
X392557Y229260D02*
X392430Y229387D01*
X392176D01*
X392049Y229260D01*
Y228752D01*
X392176Y228625D01*
X392430D01*
X392557Y228752D01*
X392811Y228625D02*
X393065D01*
X392938D01*
Y229387D01*
X392811Y229260D01*
X393953Y229387D02*
X393699Y229260D01*
X393446Y229006D01*
Y228752D01*
X393573Y228625D01*
X393826D01*
X393953Y228752D01*
Y228879D01*
X393826Y229006D01*
X393446D01*
X439420Y252374D02*
X439293Y252501D01*
X439039D01*
X438912Y252374D01*
Y251866D01*
X439039Y251739D01*
X439293D01*
X439420Y251866D01*
X439674Y251739D02*
X439928D01*
X439801D01*
Y252501D01*
X439674Y252374D01*
X440816Y252501D02*
X440309D01*
Y252120D01*
X440562Y252247D01*
X440689D01*
X440816Y252120D01*
Y251866D01*
X440689Y251739D01*
X440436D01*
X440309Y251866D01*
X427304Y252273D02*
X427177Y252400D01*
X426923D01*
X426796Y252273D01*
Y251765D01*
X426923Y251638D01*
X427177D01*
X427304Y251765D01*
X427558Y251638D02*
X427812D01*
X427685D01*
Y252400D01*
X427558Y252273D01*
X428574Y251638D02*
Y252400D01*
X428193Y252019D01*
X428701D01*
X221120Y40132D02*
X220993Y40259D01*
X220739D01*
X220612Y40132D01*
Y39624D01*
X220739Y39497D01*
X220993D01*
X221120Y39624D01*
X221374Y39497D02*
X221628D01*
X221501D01*
Y40259D01*
X221374Y40132D01*
X222009D02*
X222136Y40259D01*
X222389D01*
X222516Y40132D01*
Y40005D01*
X222389Y39878D01*
X222262D01*
X222389D01*
X222516Y39751D01*
Y39624D01*
X222389Y39497D01*
X222136D01*
X222009Y39624D01*
X206359Y72420D02*
X206232Y72547D01*
X205978D01*
X205851Y72420D01*
Y71912D01*
X205978Y71785D01*
X206232D01*
X206359Y71912D01*
X206613Y71785D02*
X206867D01*
X206740D01*
Y72547D01*
X206613Y72420D01*
X207756Y71785D02*
X207248D01*
X207756Y72293D01*
Y72420D01*
X207629Y72547D01*
X207375D01*
X207248Y72420D01*
X211747Y67396D02*
X211620Y67522D01*
X211366D01*
X211239Y67396D01*
Y66888D01*
X211366Y66761D01*
X211620D01*
X211747Y66888D01*
X212001Y66761D02*
X212255D01*
X212128D01*
Y67522D01*
X212001Y67396D01*
X212636Y66761D02*
X212890D01*
X212763D01*
Y67522D01*
X212636Y67396D01*
X213331Y34696D02*
X213458Y34569D01*
X213712D01*
X213839Y34696D01*
Y35204D01*
X213712Y35331D01*
X213458D01*
X213331Y35204D01*
X213077Y35331D02*
X212823D01*
X212950D01*
Y34569D01*
X213077Y34696D01*
X212443D02*
X212316Y34569D01*
X212062D01*
X211935Y34696D01*
Y35204D01*
X212062Y35331D01*
X212316D01*
X212443Y35204D01*
Y34696D01*
X209966Y34950D02*
X210093Y34823D01*
X210347D01*
X210474Y34950D01*
Y35458D01*
X210347Y35585D01*
X210093D01*
X209966Y35458D01*
X209712D02*
X209585Y35585D01*
X209331D01*
X209204Y35458D01*
Y34950D01*
X209331Y34823D01*
X209585D01*
X209712Y34950D01*
Y35077D01*
X209585Y35204D01*
X209204D01*
X210236Y58826D02*
X210109Y58953D01*
X209855D01*
X209728Y58826D01*
Y58318D01*
X209855Y58192D01*
X210109D01*
X210236Y58318D01*
X210490Y58826D02*
X210617Y58953D01*
X210871D01*
X210998Y58826D01*
Y58699D01*
X210871Y58572D01*
X210998Y58445D01*
Y58318D01*
X210871Y58192D01*
X210617D01*
X210490Y58318D01*
Y58445D01*
X210617Y58572D01*
X210490Y58699D01*
Y58826D01*
X210617Y58572D02*
X210871D01*
X252171Y33814D02*
X252044Y33941D01*
X251790D01*
X251663Y33814D01*
Y33306D01*
X251790Y33179D01*
X252044D01*
X252171Y33306D01*
X252425Y33941D02*
X252933D01*
Y33814D01*
X252425Y33306D01*
Y33179D01*
X213284Y59080D02*
X213157Y59207D01*
X212903D01*
X212776Y59080D01*
Y58572D01*
X212903Y58446D01*
X213157D01*
X213284Y58572D01*
X214046Y59207D02*
X213792Y59080D01*
X213538Y58826D01*
Y58572D01*
X213665Y58446D01*
X213919D01*
X214046Y58572D01*
Y58699D01*
X213919Y58826D01*
X213538D01*
X229667Y33798D02*
X229540Y33671D01*
Y33417D01*
X229667Y33290D01*
X230175D01*
X230302Y33417D01*
Y33671D01*
X230175Y33798D01*
X229667Y34052D02*
X229540Y34179D01*
Y34433D01*
X229667Y34560D01*
X229794D01*
X229921Y34433D01*
Y34306D01*
Y34433D01*
X230048Y34560D01*
X230175D01*
X230302Y34433D01*
Y34179D01*
X230175Y34052D01*
X203708Y74295D02*
X203581Y74168D01*
Y73914D01*
X203708Y73787D01*
X204216D01*
X204343Y73914D01*
Y74168D01*
X204216Y74295D01*
X204343Y75057D02*
Y74549D01*
X203835Y75057D01*
X203708D01*
X203581Y74930D01*
Y74676D01*
X203708Y74549D01*
X209448Y60858D02*
X209321Y60985D01*
X209068D01*
X208941Y60858D01*
Y60350D01*
X209068Y60224D01*
X209321D01*
X209448Y60350D01*
X209702Y60224D02*
X209956D01*
X209829D01*
Y60985D01*
X209702Y60858D01*
X245984Y77458D02*
Y76696D01*
X246365D01*
X246492Y76823D01*
Y76950D01*
X246365Y77077D01*
X245984D01*
X246365D01*
X246492Y77204D01*
Y77331D01*
X246365Y77458D01*
X245984D01*
X247254Y76696D02*
X246746D01*
X247254Y77204D01*
Y77331D01*
X247127Y77458D01*
X246873D01*
X246746Y77331D01*
X202580Y59197D02*
Y59958D01*
X202199D01*
X202072Y59831D01*
Y59704D01*
X202199Y59578D01*
X202580D01*
X202199D01*
X202072Y59451D01*
Y59324D01*
X202199Y59197D01*
X202580D01*
X201818Y59958D02*
X201564D01*
X201691D01*
Y59197D01*
X201818Y59324D01*
D20*
X203298Y32534D02*
X202959D01*
X203129D01*
Y31518D01*
X203298Y31688D01*
X202921Y29834D02*
X203598D01*
X202921Y29157D01*
Y28988D01*
X203090Y28818D01*
X203429D01*
X203598Y28988D01*
X181658Y32534D02*
X181319D01*
X181489D01*
Y31518D01*
X181658Y31688D01*
X180134Y31518D02*
X180812D01*
Y32026D01*
X180473Y31857D01*
X180304D01*
X180134Y32026D01*
Y32365D01*
X180304Y32534D01*
X180642D01*
X180812Y32365D01*
X181658Y29834D02*
X181319D01*
X181489D01*
Y28818D01*
X181658Y28988D01*
X180134Y28818D02*
X180473Y28988D01*
X180812Y29326D01*
Y29665D01*
X180642Y29834D01*
X180304D01*
X180134Y29665D01*
Y29495D01*
X180304Y29326D01*
X180812D01*
X322525Y140731D02*
X322356Y140562D01*
Y140223D01*
X322525Y140054D01*
X323202D01*
X323372Y140223D01*
Y140562D01*
X323202Y140731D01*
X323033D01*
X322864Y140562D01*
Y140054D01*
M02*
