G04*
G04 #@! TF.GenerationSoftware,Altium Limited,Altium Designer,21.5.1 (32)*
G04*
G04 Layer_Color=8388736*
%FSLAX43Y43*%
%MOMM*%
G71*
G04*
G04 #@! TF.SameCoordinates,449709A0-46AC-47EF-B127-1EA7B65E703A*
G04*
G04*
G04 #@! TF.FilePolarity,Negative*
G04*
G01*
G75*
%ADD39R,1.306X1.058*%
%ADD46R,1.503X1.203*%
%ADD47R,1.203X1.503*%
%ADD48C,5.400*%
%ADD49O,2.303X0.803*%
%ADD50O,2.303X0.553*%
%ADD51R,1.723X0.803*%
%ADD52O,2.053X0.903*%
%ADD53R,1.503X0.903*%
%ADD54R,0.711X2.235*%
%ADD55O,0.711X2.235*%
G04:AMPARAMS|DCode=56|XSize=0.503mm|YSize=1.653mm|CornerRadius=0.151mm|HoleSize=0mm|Usage=FLASHONLY|Rotation=90.000|XOffset=0mm|YOffset=0mm|HoleType=Round|Shape=RoundedRectangle|*
%AMROUNDEDRECTD56*
21,1,0.503,1.351,0,0,90.0*
21,1,0.201,1.653,0,0,90.0*
1,1,0.302,0.676,0.101*
1,1,0.302,0.676,-0.101*
1,1,0.302,-0.676,-0.101*
1,1,0.302,-0.676,0.101*
%
%ADD56ROUNDEDRECTD56*%
G04:AMPARAMS|DCode=57|XSize=0.503mm|YSize=1.653mm|CornerRadius=0.151mm|HoleSize=0mm|Usage=FLASHONLY|Rotation=0.000|XOffset=0mm|YOffset=0mm|HoleType=Round|Shape=RoundedRectangle|*
%AMROUNDEDRECTD57*
21,1,0.503,1.351,0,0,0.0*
21,1,0.201,1.653,0,0,0.0*
1,1,0.302,0.101,-0.676*
1,1,0.302,-0.101,-0.676*
1,1,0.302,-0.101,0.676*
1,1,0.302,0.101,0.676*
%
%ADD57ROUNDEDRECTD57*%
%ADD58R,1.053X0.613*%
%ADD59R,2.103X3.403*%
%ADD60R,2.103X1.103*%
%ADD61R,3.123X3.053*%
%ADD62R,2.703X2.203*%
%ADD63R,2.453X0.703*%
%ADD64O,2.303X0.903*%
%ADD65R,1.003X1.003*%
%ADD66R,1.003X1.003*%
%ADD67R,6.003X6.403*%
%ADD68R,1.803X3.203*%
%ADD69R,2.553X2.403*%
%ADD70R,1.603X2.303*%
%ADD71R,1.703X1.703*%
%ADD72C,1.703*%
%ADD73C,2.003*%
%ADD74R,2.003X2.003*%
%ADD75R,1.703X1.703*%
%ADD76C,1.500*%
%ADD77R,1.500X1.500*%
G04:AMPARAMS|DCode=78|XSize=6.6mm|YSize=2.6mm|CornerRadius=1.3mm|HoleSize=0mm|Usage=FLASHONLY|Rotation=90.000|XOffset=0mm|YOffset=0mm|HoleType=Round|Shape=RoundedRectangle|*
%AMROUNDEDRECTD78*
21,1,6.600,0.000,0,0,90.0*
21,1,4.000,2.600,0,0,90.0*
1,1,2.600,0.000,2.000*
1,1,2.600,0.000,-2.000*
1,1,2.600,0.000,-2.000*
1,1,2.600,0.000,2.000*
%
%ADD78ROUNDEDRECTD78*%
%ADD79C,1.450*%
G04:AMPARAMS|DCode=80|XSize=1.219mm|YSize=1.219mm|CornerRadius=0.356mm|HoleSize=0mm|Usage=FLASHONLY|Rotation=90.000|XOffset=0mm|YOffset=0mm|HoleType=Round|Shape=RoundedRectangle|*
%AMROUNDEDRECTD80*
21,1,1.219,0.508,0,0,90.0*
21,1,0.508,1.219,0,0,90.0*
1,1,0.711,0.254,0.254*
1,1,0.711,0.254,-0.254*
1,1,0.711,-0.254,-0.254*
1,1,0.711,-0.254,0.254*
%
%ADD80ROUNDEDRECTD80*%
%ADD81C,1.603*%
%ADD82R,1.603X1.603*%
%ADD83R,2.000X2.000*%
%ADD84C,2.000*%
%ADD85R,3.700X3.700*%
%ADD86C,3.700*%
%ADD87C,1.403*%
%ADD88R,1.403X1.403*%
%ADD89R,1.703X1.703*%
%ADD90C,1.853*%
%ADD91R,1.853X1.853*%
%ADD92C,5.003*%
%ADD93R,1.703X1.703*%
%ADD94R,1.450X1.450*%
%ADD95C,1.553*%
%ADD96R,1.553X1.553*%
%ADD97C,5.283*%
%ADD98C,0.457*%
%ADD99C,0.711*%
%ADD100C,1.473*%
G36*
X197238Y116768D02*
X197392Y116666D01*
X197673Y116425D01*
X197922Y116152D01*
X198136Y115850D01*
X198311Y115524D01*
X198444Y115179D01*
X198535Y114820D01*
X198580Y114453D01*
Y114268D01*
X198580Y114268D01*
X198580Y110268D01*
Y110032D01*
X198506Y109565D01*
X198360Y109116D01*
X198146Y108696D01*
X197868Y108314D01*
X197534Y107980D01*
X197152Y107702D01*
X196732Y107488D01*
X196283Y107342D01*
X195816Y107268D01*
X195344D01*
X194878Y107342D01*
X194428Y107488D01*
X194008Y107702D01*
X193626Y107980D01*
X193292Y108314D01*
X193014Y108696D01*
X192800Y109116D01*
X192654Y109565D01*
X192580Y110032D01*
Y110268D01*
X192580D01*
Y114268D01*
Y114453D01*
X192625Y114820D01*
X192716Y115179D01*
X192849Y115524D01*
X193024Y115850D01*
X193238Y116152D01*
X193487Y116425D01*
X193768Y116666D01*
X193922Y116768D01*
X193922Y116768D01*
X197238Y116768D01*
D02*
G37*
G36*
X196283Y127194D02*
X196732Y127048D01*
X197152Y126834D01*
X197534Y126556D01*
X197868Y126222D01*
X198146Y125840D01*
X198360Y125420D01*
X198506Y124970D01*
X198580Y124504D01*
Y124268D01*
X198580Y120268D01*
Y120083D01*
X198535Y119716D01*
X198444Y119357D01*
X198311Y119012D01*
X198136Y118686D01*
X197922Y118384D01*
X197673Y118111D01*
X197392Y117870D01*
X197238Y117768D01*
X197238Y117768D01*
X193922Y117768D01*
X193768Y117870D01*
X193487Y118111D01*
X193238Y118384D01*
X193024Y118686D01*
X192849Y119012D01*
X192716Y119357D01*
X192625Y119716D01*
X192580Y120083D01*
X192580Y120268D01*
Y124268D01*
Y124504D01*
X192654Y124970D01*
X192800Y125420D01*
X193014Y125840D01*
X193292Y126222D01*
X193626Y126556D01*
X194008Y126834D01*
X194428Y127048D01*
X194878Y127194D01*
X195344Y127268D01*
X195816D01*
X196283Y127194D01*
D02*
G37*
D39*
X261406Y297524D02*
D03*
X259853D02*
D03*
D46*
X114554Y65040D02*
D03*
Y67040D02*
D03*
X113993Y113775D02*
D03*
Y115775D02*
D03*
X184404Y101362D02*
D03*
Y103362D02*
D03*
X183642Y71750D02*
D03*
Y69750D02*
D03*
X245872Y100600D02*
D03*
Y102600D02*
D03*
X242824Y100600D02*
D03*
Y102600D02*
D03*
X479044Y108580D02*
D03*
Y106580D02*
D03*
X471932Y108580D02*
D03*
Y106580D02*
D03*
X509397Y108580D02*
D03*
Y106580D02*
D03*
X503555Y108580D02*
D03*
Y106580D02*
D03*
X565658Y108580D02*
D03*
Y106580D02*
D03*
X559816Y108580D02*
D03*
Y106580D02*
D03*
X369062Y108580D02*
D03*
Y106580D02*
D03*
X363220Y108580D02*
D03*
Y106580D02*
D03*
X380746Y108580D02*
D03*
Y106580D02*
D03*
X399923Y108580D02*
D03*
Y106580D02*
D03*
X634873Y108580D02*
D03*
Y106580D02*
D03*
X693293Y108580D02*
D03*
Y106580D02*
D03*
X687451Y108580D02*
D03*
Y106580D02*
D03*
X681609Y108580D02*
D03*
Y106580D02*
D03*
X704977Y108580D02*
D03*
Y106580D02*
D03*
X219456Y270780D02*
D03*
Y272780D02*
D03*
X227076D02*
D03*
Y270780D02*
D03*
X215900Y266176D02*
D03*
Y264176D02*
D03*
X238506Y290740D02*
D03*
Y288740D02*
D03*
X261874Y288915D02*
D03*
Y290915D02*
D03*
X245085Y293102D02*
D03*
Y291102D02*
D03*
X299974Y298295D02*
D03*
Y296295D02*
D03*
X294132Y298295D02*
D03*
Y296295D02*
D03*
X399415Y242300D02*
D03*
Y240300D02*
D03*
X370205Y243824D02*
D03*
Y241824D02*
D03*
X365125Y243824D02*
D03*
Y241824D02*
D03*
X379349Y241570D02*
D03*
Y243570D02*
D03*
X398145Y227308D02*
D03*
Y225308D02*
D03*
X224358Y38338D02*
D03*
Y36338D02*
D03*
X211947Y70474D02*
D03*
Y68474D02*
D03*
X214808Y65424D02*
D03*
Y63424D02*
D03*
X226898Y36338D02*
D03*
Y38338D02*
D03*
X215138Y68596D02*
D03*
Y70596D02*
D03*
X208712Y63536D02*
D03*
Y65536D02*
D03*
X227584Y59304D02*
D03*
Y57304D02*
D03*
X224790Y59304D02*
D03*
Y57304D02*
D03*
X221996Y59166D02*
D03*
Y57166D02*
D03*
X219456Y59050D02*
D03*
Y57050D02*
D03*
X227584Y62500D02*
D03*
Y64500D02*
D03*
X224536Y62500D02*
D03*
Y64500D02*
D03*
X222250Y62500D02*
D03*
Y64500D02*
D03*
X219964Y62500D02*
D03*
Y64500D02*
D03*
X237804Y36862D02*
D03*
Y38862D02*
D03*
X215697Y38490D02*
D03*
Y36490D02*
D03*
X186198Y116311D02*
D03*
Y114311D02*
D03*
X111760Y67294D02*
D03*
Y65294D02*
D03*
X247710Y36608D02*
D03*
Y38608D02*
D03*
X113522Y101367D02*
D03*
Y103367D02*
D03*
X233426Y87138D02*
D03*
Y89138D02*
D03*
X231394Y87138D02*
D03*
Y89138D02*
D03*
X226822Y87000D02*
D03*
Y89000D02*
D03*
X229108Y89022D02*
D03*
Y87022D02*
D03*
X217170Y65024D02*
D03*
Y63024D02*
D03*
X223012Y272780D02*
D03*
Y270780D02*
D03*
X231140D02*
D03*
Y272780D02*
D03*
X212344Y266176D02*
D03*
Y264176D02*
D03*
X145796Y240300D02*
D03*
Y242300D02*
D03*
X142240Y240300D02*
D03*
Y242300D02*
D03*
X138684Y240300D02*
D03*
Y242300D02*
D03*
X295656Y240300D02*
D03*
Y242300D02*
D03*
X292100Y240300D02*
D03*
Y242300D02*
D03*
X191516Y240792D02*
D03*
Y242792D02*
D03*
X187452Y240792D02*
D03*
Y242792D02*
D03*
X185420Y233696D02*
D03*
Y235696D02*
D03*
X181356Y233696D02*
D03*
Y235696D02*
D03*
X258699Y289005D02*
D03*
Y291005D02*
D03*
X248031Y298803D02*
D03*
Y296803D02*
D03*
X174498Y137430D02*
D03*
Y139430D02*
D03*
X221818Y36338D02*
D03*
Y38338D02*
D03*
X212039Y63602D02*
D03*
Y65602D02*
D03*
X213141Y36744D02*
D03*
Y38744D02*
D03*
X209839Y36982D02*
D03*
Y38982D02*
D03*
X210347Y57032D02*
D03*
Y55032D02*
D03*
X250520Y34068D02*
D03*
Y36068D02*
D03*
X213157Y57286D02*
D03*
Y55286D02*
D03*
X231978Y33814D02*
D03*
Y35814D02*
D03*
D47*
X255116Y102616D02*
D03*
X253116D02*
D03*
X242554Y74676D02*
D03*
X240554D02*
D03*
X615934Y108469D02*
D03*
X613934D02*
D03*
X207756Y266192D02*
D03*
X205756D02*
D03*
X202284Y266192D02*
D03*
X200284D02*
D03*
X245856Y270764D02*
D03*
X243856D02*
D03*
X260080Y237744D02*
D03*
X258080D02*
D03*
X183996Y238252D02*
D03*
X181996D02*
D03*
X257064Y240792D02*
D03*
X259064D02*
D03*
X181848Y241554D02*
D03*
X179848D02*
D03*
X241324Y293891D02*
D03*
X239324D02*
D03*
X241513Y298438D02*
D03*
X239513D02*
D03*
X386445Y237744D02*
D03*
X384445D02*
D03*
X250614Y38728D02*
D03*
X252614D02*
D03*
X238042Y32782D02*
D03*
X236042D02*
D03*
X235788Y30496D02*
D03*
X237788D02*
D03*
X235904Y34814D02*
D03*
X237904D02*
D03*
X242300Y78994D02*
D03*
X240300D02*
D03*
X242300Y83312D02*
D03*
X240300D02*
D03*
X242300Y81026D02*
D03*
X240300D02*
D03*
X242300Y76962D02*
D03*
X240300D02*
D03*
X214106Y73660D02*
D03*
X212106D02*
D03*
X206010Y76708D02*
D03*
X208010D02*
D03*
X251444Y78994D02*
D03*
X249444D02*
D03*
X214106Y77978D02*
D03*
X212106D02*
D03*
X214106Y80010D02*
D03*
X212106D02*
D03*
X242554Y71628D02*
D03*
X240554D02*
D03*
X222869Y129642D02*
D03*
X220869D02*
D03*
X222869Y126086D02*
D03*
X220869D02*
D03*
X222869Y122276D02*
D03*
X220869D02*
D03*
X222869Y118466D02*
D03*
X220869D02*
D03*
X222869Y114656D02*
D03*
X220869D02*
D03*
X222869Y110846D02*
D03*
X220869D02*
D03*
X222869Y107036D02*
D03*
X220869D02*
D03*
X222869Y103226D02*
D03*
X220869D02*
D03*
X222869Y99416D02*
D03*
X220869D02*
D03*
X222869Y95606D02*
D03*
X220869D02*
D03*
X222996Y91796D02*
D03*
X220996D02*
D03*
X222996Y87884D02*
D03*
X220996D02*
D03*
X240014Y131318D02*
D03*
X238014D02*
D03*
X239760Y86766D02*
D03*
X237760D02*
D03*
X239744Y89916D02*
D03*
X237744D02*
D03*
X239760Y93218D02*
D03*
X237760D02*
D03*
X239760Y97180D02*
D03*
X237760D02*
D03*
X239887Y100990D02*
D03*
X237887D02*
D03*
X239887Y104800D02*
D03*
X237887D02*
D03*
X239887Y108610D02*
D03*
X237887D02*
D03*
X239887Y112420D02*
D03*
X237887D02*
D03*
X239887Y116230D02*
D03*
X237887D02*
D03*
X239887Y120040D02*
D03*
X237887D02*
D03*
X239887Y123850D02*
D03*
X237887D02*
D03*
X239887Y127660D02*
D03*
X237887D02*
D03*
X359394Y108215D02*
D03*
X357394D02*
D03*
X376920D02*
D03*
X374920D02*
D03*
X396097D02*
D03*
X394097D02*
D03*
X286861Y242570D02*
D03*
X284861D02*
D03*
X281019D02*
D03*
X279019D02*
D03*
X261544Y294222D02*
D03*
X259544D02*
D03*
X225358Y297981D02*
D03*
X223358D02*
D03*
X241589Y300648D02*
D03*
X239589D02*
D03*
X395827Y242316D02*
D03*
X393827D02*
D03*
X394573Y226943D02*
D03*
X392573D02*
D03*
X441436Y250057D02*
D03*
X439436D02*
D03*
X208375Y70109D02*
D03*
X206375D02*
D03*
X208010Y74422D02*
D03*
X206010D02*
D03*
X213750Y60604D02*
D03*
X211750D02*
D03*
D48*
X195580Y122367D02*
D03*
Y112018D02*
D03*
D49*
X153419Y66675D02*
D03*
Y65405D02*
D03*
Y67945D02*
D03*
Y62865D02*
D03*
Y64135D02*
D03*
Y61595D02*
D03*
Y59055D02*
D03*
Y60325D02*
D03*
X144269Y62865D02*
D03*
Y64135D02*
D03*
Y67945D02*
D03*
Y65405D02*
D03*
Y66675D02*
D03*
Y59055D02*
D03*
Y60325D02*
D03*
Y61595D02*
D03*
X153419Y102489D02*
D03*
Y101219D02*
D03*
Y103759D02*
D03*
Y98679D02*
D03*
Y99949D02*
D03*
Y97409D02*
D03*
Y94869D02*
D03*
Y96139D02*
D03*
X144269Y98679D02*
D03*
Y99949D02*
D03*
Y103759D02*
D03*
Y101219D02*
D03*
Y102489D02*
D03*
Y94869D02*
D03*
Y96139D02*
D03*
Y97409D02*
D03*
D50*
X235200Y296497D02*
D03*
Y295847D02*
D03*
Y297147D02*
D03*
Y294547D02*
D03*
Y293897D02*
D03*
Y295197D02*
D03*
Y298447D02*
D03*
Y297797D02*
D03*
Y291947D02*
D03*
Y292597D02*
D03*
Y290647D02*
D03*
Y289997D02*
D03*
Y291297D02*
D03*
Y293247D02*
D03*
X228300Y294547D02*
D03*
Y293897D02*
D03*
Y295197D02*
D03*
Y297797D02*
D03*
Y298447D02*
D03*
Y296497D02*
D03*
Y295847D02*
D03*
Y297147D02*
D03*
Y290647D02*
D03*
Y291297D02*
D03*
Y289997D02*
D03*
Y293247D02*
D03*
Y291947D02*
D03*
Y292597D02*
D03*
D51*
X240792Y274574D02*
D03*
Y272034D02*
D03*
Y273304D02*
D03*
Y270764D02*
D03*
X235312D02*
D03*
Y273304D02*
D03*
Y274574D02*
D03*
Y272034D02*
D03*
D52*
X389288Y248660D02*
D03*
Y249930D02*
D03*
Y246120D02*
D03*
Y247390D02*
D03*
Y244850D02*
D03*
Y242310D02*
D03*
Y243580D02*
D03*
X383888Y246120D02*
D03*
Y249930D02*
D03*
Y247390D02*
D03*
Y248660D02*
D03*
Y242310D02*
D03*
Y243580D02*
D03*
Y244850D02*
D03*
D53*
X234124Y40574D02*
D03*
Y38674D02*
D03*
X231724Y39624D02*
D03*
Y40574D02*
D03*
Y38674D02*
D03*
X244380Y35011D02*
D03*
Y33111D02*
D03*
X241980Y34061D02*
D03*
Y35011D02*
D03*
Y33111D02*
D03*
D54*
X215173Y48920D02*
D03*
D55*
X213903D02*
D03*
X211363D02*
D03*
X212633D02*
D03*
X213903Y42316D02*
D03*
X215173D02*
D03*
X211363D02*
D03*
X212633D02*
D03*
X210093Y48920D02*
D03*
X207553D02*
D03*
X208823D02*
D03*
Y42316D02*
D03*
X210093D02*
D03*
X207553D02*
D03*
D56*
X235817Y80700D02*
D03*
Y81200D02*
D03*
Y79700D02*
D03*
Y80200D02*
D03*
Y81700D02*
D03*
Y82200D02*
D03*
Y77200D02*
D03*
Y77700D02*
D03*
Y76200D02*
D03*
Y76700D02*
D03*
Y78700D02*
D03*
Y79200D02*
D03*
Y78200D02*
D03*
Y73700D02*
D03*
Y74200D02*
D03*
Y75200D02*
D03*
Y75700D02*
D03*
Y74700D02*
D03*
Y71200D02*
D03*
Y71700D02*
D03*
Y70200D02*
D03*
Y70700D02*
D03*
Y72700D02*
D03*
Y73200D02*
D03*
Y72200D02*
D03*
X220367Y80200D02*
D03*
Y79200D02*
D03*
Y79700D02*
D03*
Y81700D02*
D03*
Y82200D02*
D03*
Y80700D02*
D03*
Y81200D02*
D03*
Y76700D02*
D03*
Y77200D02*
D03*
Y75700D02*
D03*
Y76200D02*
D03*
Y78200D02*
D03*
Y78700D02*
D03*
Y77700D02*
D03*
Y73700D02*
D03*
Y74200D02*
D03*
Y74700D02*
D03*
Y75200D02*
D03*
Y71200D02*
D03*
Y71700D02*
D03*
Y70200D02*
D03*
Y70700D02*
D03*
Y72700D02*
D03*
Y73200D02*
D03*
Y72200D02*
D03*
D57*
X234092Y83925D02*
D03*
X233592D02*
D03*
X229592D02*
D03*
X229092D02*
D03*
X230592D02*
D03*
X230092D02*
D03*
X227592D02*
D03*
X227092D02*
D03*
X228592D02*
D03*
X228092D02*
D03*
X232092D02*
D03*
X231592D02*
D03*
X233092D02*
D03*
X232592D02*
D03*
X231092D02*
D03*
X229592Y68475D02*
D03*
X229092D02*
D03*
X230592D02*
D03*
X230092D02*
D03*
X227592D02*
D03*
X227092D02*
D03*
X228592D02*
D03*
X228092D02*
D03*
X233092D02*
D03*
X232592D02*
D03*
X234092D02*
D03*
X233592D02*
D03*
X231592D02*
D03*
X231092D02*
D03*
X232092D02*
D03*
X224092Y83925D02*
D03*
X223592D02*
D03*
X225092D02*
D03*
X224592D02*
D03*
X222092D02*
D03*
X223092D02*
D03*
X222592D02*
D03*
X226092D02*
D03*
X225592D02*
D03*
X226592D02*
D03*
X223092Y68475D02*
D03*
X224092D02*
D03*
X223592D02*
D03*
X222592D02*
D03*
X222092D02*
D03*
X225592D02*
D03*
X225092D02*
D03*
X226592D02*
D03*
X226092D02*
D03*
X224592D02*
D03*
D58*
X323143Y180532D02*
D03*
Y181182D02*
D03*
Y178482D02*
D03*
X320493Y179132D02*
D03*
Y181182D02*
D03*
Y178482D02*
D03*
D59*
X428038Y224149D02*
D03*
D60*
X421338D02*
D03*
Y226449D02*
D03*
Y221849D02*
D03*
D61*
X416384Y220980D02*
D03*
X402004D02*
D03*
D62*
X271926Y298684D02*
D03*
Y289784D02*
D03*
X266476Y298684D02*
D03*
Y289784D02*
D03*
D63*
X266351Y293434D02*
D03*
Y294234D02*
D03*
Y295834D02*
D03*
Y295034D02*
D03*
Y292634D02*
D03*
D64*
X256396Y297143D02*
D03*
Y294603D02*
D03*
Y295873D02*
D03*
Y293333D02*
D03*
X251096Y294603D02*
D03*
Y297143D02*
D03*
Y295873D02*
D03*
Y293333D02*
D03*
D65*
X539369Y108203D02*
D03*
Y106703D02*
D03*
X533527Y108203D02*
D03*
Y106703D02*
D03*
X657987Y108203D02*
D03*
Y106703D02*
D03*
X652145Y108203D02*
D03*
Y106703D02*
D03*
X646303Y108203D02*
D03*
Y106703D02*
D03*
X669671Y108203D02*
D03*
Y106703D02*
D03*
X282194Y297918D02*
D03*
Y296418D02*
D03*
X276352Y297918D02*
D03*
Y296418D02*
D03*
D66*
X254750Y99568D02*
D03*
X253250D02*
D03*
D67*
X314055Y240417D02*
D03*
X197612Y240792D02*
D03*
X248920Y89408D02*
D03*
X422275Y247904D02*
D03*
D68*
X311765Y233217D02*
D03*
X316345D02*
D03*
X195322Y233592D02*
D03*
X199902D02*
D03*
X251210Y96608D02*
D03*
X246630D02*
D03*
X419985Y240704D02*
D03*
X424565D02*
D03*
D69*
X352679Y243209D02*
D03*
Y237359D02*
D03*
D70*
X246416Y65808D02*
D03*
Y74908D02*
D03*
X250916D02*
D03*
Y65808D02*
D03*
X202148Y70844D02*
D03*
Y61744D02*
D03*
X197648Y70844D02*
D03*
Y61744D02*
D03*
D71*
X169164Y29210D02*
D03*
X232410Y137922D02*
D03*
X328676Y178816D02*
D03*
X324866Y43191D02*
D03*
Y96531D02*
D03*
Y68591D02*
D03*
X325726Y129091D02*
D03*
X312420Y30480D02*
D03*
D72*
X169164Y31750D02*
D03*
Y34290D02*
D03*
X420116Y107707D02*
D03*
Y105167D02*
D03*
Y102627D02*
D03*
Y100087D02*
D03*
X412496Y105167D02*
D03*
Y102627D02*
D03*
Y100087D02*
D03*
X232410Y140462D02*
D03*
Y143002D02*
D03*
X328676Y181356D02*
D03*
X324866Y58431D02*
D03*
Y55891D02*
D03*
Y60971D02*
D03*
Y50811D02*
D03*
Y53351D02*
D03*
Y45731D02*
D03*
Y48271D02*
D03*
Y111771D02*
D03*
Y109231D02*
D03*
Y114311D02*
D03*
Y104151D02*
D03*
Y106691D02*
D03*
Y99071D02*
D03*
Y101611D02*
D03*
Y83831D02*
D03*
Y81291D02*
D03*
Y86371D02*
D03*
Y76211D02*
D03*
Y78751D02*
D03*
Y71131D02*
D03*
Y73671D02*
D03*
X223520Y27443D02*
D03*
X226060D02*
D03*
X220980D02*
D03*
X228600D02*
D03*
X215900D02*
D03*
X213360D02*
D03*
X218440D02*
D03*
X245389Y299251D02*
D03*
X249682Y84582D02*
D03*
X325726Y140171D02*
D03*
Y134631D02*
D03*
Y131861D02*
D03*
Y137401D02*
D03*
X322886Y136016D02*
D03*
Y138786D02*
D03*
Y133246D02*
D03*
Y130476D02*
D03*
X382397Y274574D02*
D03*
X379857D02*
D03*
X377317D02*
D03*
X355092Y250190D02*
D03*
X357632D02*
D03*
X360172D02*
D03*
X312420Y33020D02*
D03*
D73*
X37084Y139827D02*
D03*
X250952Y143256D02*
D03*
Y127254D02*
D03*
X37084Y119761D02*
D03*
D74*
Y146177D02*
D03*
X250952Y136906D02*
D03*
Y120904D02*
D03*
X37084Y126111D02*
D03*
D75*
X412496Y107707D02*
D03*
X231140Y27443D02*
D03*
D76*
X216980Y119178D02*
D03*
Y117268D02*
D03*
D77*
Y115358D02*
D03*
D78*
X195580Y122268D02*
D03*
Y112268D02*
D03*
D79*
X184404Y62484D02*
D03*
X183134Y63754D02*
D03*
Y61214D02*
D03*
X185690Y108707D02*
D03*
X184420Y109977D02*
D03*
Y107437D02*
D03*
X114316Y60457D02*
D03*
X113046Y59187D02*
D03*
X114316Y57917D02*
D03*
X115046Y109479D02*
D03*
X113776Y108209D02*
D03*
X115046Y106939D02*
D03*
X33640Y103378D02*
D03*
X53833D02*
D03*
X73899D02*
D03*
X94092D02*
D03*
X33915Y81500D02*
D03*
X54108D02*
D03*
X74301D02*
D03*
X94494D02*
D03*
X33767Y58980D02*
D03*
X53960D02*
D03*
X74153D02*
D03*
X94346D02*
D03*
D80*
X385064Y108458D02*
D03*
X405384Y108723D02*
D03*
X422910D02*
D03*
X430276D02*
D03*
X457454D02*
D03*
X464566D02*
D03*
X485394D02*
D03*
X514985D02*
D03*
X526415D02*
D03*
X545211D02*
D03*
X552450D02*
D03*
X571246D02*
D03*
X577850D02*
D03*
X589280D02*
D03*
X602107D02*
D03*
X608076D02*
D03*
X619252D02*
D03*
X640461D02*
D03*
X663829D02*
D03*
X675513D02*
D03*
X698881D02*
D03*
X710565D02*
D03*
D81*
X499999Y105929D02*
D03*
Y108529D02*
D03*
X494411Y105929D02*
D03*
Y108529D02*
D03*
X631317Y105929D02*
D03*
Y108529D02*
D03*
X250190Y102422D02*
D03*
Y105022D02*
D03*
D82*
X499999Y103329D02*
D03*
X494411D02*
D03*
X631317D02*
D03*
X250190Y99822D02*
D03*
D83*
X171589Y61966D02*
D03*
X171196Y110236D02*
D03*
X126029Y67933D02*
D03*
X127000Y114320D02*
D03*
D84*
X171589Y67066D02*
D03*
Y64516D02*
D03*
X171196Y115336D02*
D03*
Y112786D02*
D03*
X126029Y65383D02*
D03*
Y62833D02*
D03*
X127000Y111770D02*
D03*
Y109220D02*
D03*
D85*
X167894Y77216D02*
D03*
X167501Y125486D02*
D03*
X129725Y52683D02*
D03*
X130695Y99070D02*
D03*
D86*
X167894Y51816D02*
D03*
X167501Y100086D02*
D03*
X129725Y78083D02*
D03*
X130695Y124470D02*
D03*
D87*
X343773Y180689D02*
D03*
Y182689D02*
D03*
D88*
Y178689D02*
D03*
D89*
X245389Y296711D02*
D03*
X249682Y82042D02*
D03*
D90*
X196088Y32004D02*
D03*
X198628D02*
D03*
X193548D02*
D03*
X191008D02*
D03*
X188468D02*
D03*
X201168Y29464D02*
D03*
X193548D02*
D03*
X191008D02*
D03*
X198628D02*
D03*
X196088D02*
D03*
X185928D02*
D03*
Y32004D02*
D03*
X183388D02*
D03*
Y29464D02*
D03*
X188468D02*
D03*
D91*
X201168Y32004D02*
D03*
D92*
X324306Y147131D02*
D03*
Y122131D02*
D03*
D93*
X374777Y274574D02*
D03*
X362712Y250190D02*
D03*
D94*
X41140Y103378D02*
D03*
X61333D02*
D03*
X81399D02*
D03*
X101592D02*
D03*
X41415Y81500D02*
D03*
X61608D02*
D03*
X81801D02*
D03*
X101994D02*
D03*
X41267Y58980D02*
D03*
X61460D02*
D03*
X81653D02*
D03*
X101846D02*
D03*
D95*
X434046Y245866D02*
D03*
D96*
X429046D02*
D03*
D97*
X147066Y164592D02*
D03*
D98*
X211430Y40259D02*
D03*
D03*
D99*
D03*
D100*
D03*
D03*
M02*
