G04*
G04 #@! TF.GenerationSoftware,Altium Limited,Altium Designer,21.5.1 (32)*
G04*
G04 Layer_Color=8421504*
%FSLAX43Y43*%
%MOMM*%
G71*
G04*
G04 #@! TF.SameCoordinates,449709A0-46AC-47EF-B127-1EA7B65E703A*
G04*
G04*
G04 #@! TF.FilePolarity,Positive*
G04*
G01*
G75*
%ADD21R,1.300X1.000*%
%ADD22R,1.000X1.300*%
%ADD23O,2.100X0.600*%
%ADD24O,2.100X0.350*%
%ADD25R,1.520X0.600*%
%ADD26O,1.850X0.700*%
%ADD27R,1.300X0.700*%
%ADD28R,0.508X2.032*%
%ADD29O,0.508X2.032*%
G04:AMPARAMS|DCode=30|XSize=0.3mm|YSize=1.45mm|CornerRadius=0.05mm|HoleSize=0mm|Usage=FLASHONLY|Rotation=90.000|XOffset=0mm|YOffset=0mm|HoleType=Round|Shape=RoundedRectangle|*
%AMROUNDEDRECTD30*
21,1,0.300,1.351,0,0,90.0*
21,1,0.201,1.450,0,0,90.0*
1,1,0.099,0.676,0.101*
1,1,0.099,0.676,-0.101*
1,1,0.099,-0.676,-0.101*
1,1,0.099,-0.676,0.101*
%
%ADD30ROUNDEDRECTD30*%
G04:AMPARAMS|DCode=31|XSize=0.3mm|YSize=1.45mm|CornerRadius=0.05mm|HoleSize=0mm|Usage=FLASHONLY|Rotation=0.000|XOffset=0mm|YOffset=0mm|HoleType=Round|Shape=RoundedRectangle|*
%AMROUNDEDRECTD31*
21,1,0.300,1.351,0,0,0.0*
21,1,0.201,1.450,0,0,0.0*
1,1,0.099,0.101,-0.676*
1,1,0.099,-0.101,-0.676*
1,1,0.099,-0.101,0.676*
1,1,0.099,0.101,0.676*
%
%ADD31ROUNDEDRECTD31*%
%ADD32R,0.850X0.410*%
%ADD33R,1.900X3.200*%
%ADD34R,1.900X0.900*%
%ADD35R,2.920X2.850*%
%ADD36R,2.500X2.000*%
%ADD37R,2.250X0.500*%
%ADD38O,2.100X0.700*%
%ADD39R,1.306X1.058*%
%ADD40R,0.800X0.800*%
%ADD41R,0.800X0.800*%
%ADD42R,5.800X6.200*%
%ADD43R,1.600X3.000*%
%ADD44R,2.350X2.200*%
%ADD45R,1.400X2.100*%
D21*
X114554Y65040D02*
D03*
Y67040D02*
D03*
X113993Y113775D02*
D03*
Y115775D02*
D03*
X184404Y101362D02*
D03*
Y103362D02*
D03*
X183642Y71750D02*
D03*
Y69750D02*
D03*
X245872Y100600D02*
D03*
Y102600D02*
D03*
X242824Y100600D02*
D03*
Y102600D02*
D03*
X479044Y108580D02*
D03*
Y106580D02*
D03*
X471932Y108580D02*
D03*
Y106580D02*
D03*
X509397Y108580D02*
D03*
Y106580D02*
D03*
X503555Y108580D02*
D03*
Y106580D02*
D03*
X565658Y108580D02*
D03*
Y106580D02*
D03*
X559816Y108580D02*
D03*
Y106580D02*
D03*
X369062Y108580D02*
D03*
Y106580D02*
D03*
X363220Y108580D02*
D03*
Y106580D02*
D03*
X380746Y108580D02*
D03*
Y106580D02*
D03*
X399923Y108580D02*
D03*
Y106580D02*
D03*
X634873Y108580D02*
D03*
Y106580D02*
D03*
X693293Y108580D02*
D03*
Y106580D02*
D03*
X687451Y108580D02*
D03*
Y106580D02*
D03*
X681609Y108580D02*
D03*
Y106580D02*
D03*
X704977Y108580D02*
D03*
Y106580D02*
D03*
X219456Y270780D02*
D03*
Y272780D02*
D03*
X227076D02*
D03*
Y270780D02*
D03*
X215900Y266176D02*
D03*
Y264176D02*
D03*
X238506Y290740D02*
D03*
Y288740D02*
D03*
X261874Y288915D02*
D03*
Y290915D02*
D03*
X245085Y293102D02*
D03*
Y291102D02*
D03*
X299974Y298295D02*
D03*
Y296295D02*
D03*
X294132Y298295D02*
D03*
Y296295D02*
D03*
X399415Y242300D02*
D03*
Y240300D02*
D03*
X370205Y243824D02*
D03*
Y241824D02*
D03*
X365125Y243824D02*
D03*
Y241824D02*
D03*
X379349Y241570D02*
D03*
Y243570D02*
D03*
X398145Y227308D02*
D03*
Y225308D02*
D03*
X224358Y38338D02*
D03*
Y36338D02*
D03*
X211947Y70474D02*
D03*
Y68474D02*
D03*
X214808Y65424D02*
D03*
Y63424D02*
D03*
X226898Y36338D02*
D03*
Y38338D02*
D03*
X215138Y68596D02*
D03*
Y70596D02*
D03*
X208712Y63536D02*
D03*
Y65536D02*
D03*
X227584Y59304D02*
D03*
Y57304D02*
D03*
X224790Y59304D02*
D03*
Y57304D02*
D03*
X221996Y59166D02*
D03*
Y57166D02*
D03*
X219456Y59050D02*
D03*
Y57050D02*
D03*
X227584Y62500D02*
D03*
Y64500D02*
D03*
X224536Y62500D02*
D03*
Y64500D02*
D03*
X222250Y62500D02*
D03*
Y64500D02*
D03*
X219964Y62500D02*
D03*
Y64500D02*
D03*
X237804Y36862D02*
D03*
Y38862D02*
D03*
X215697Y38490D02*
D03*
Y36490D02*
D03*
X186198Y116311D02*
D03*
Y114311D02*
D03*
X111760Y67294D02*
D03*
Y65294D02*
D03*
X247710Y36608D02*
D03*
Y38608D02*
D03*
X113522Y101367D02*
D03*
Y103367D02*
D03*
X233426Y87138D02*
D03*
Y89138D02*
D03*
X231394Y87138D02*
D03*
Y89138D02*
D03*
X226822Y87000D02*
D03*
Y89000D02*
D03*
X229108Y89022D02*
D03*
Y87022D02*
D03*
X217170Y65024D02*
D03*
Y63024D02*
D03*
X223012Y272780D02*
D03*
Y270780D02*
D03*
X231140D02*
D03*
Y272780D02*
D03*
X212344Y266176D02*
D03*
Y264176D02*
D03*
X145796Y240300D02*
D03*
Y242300D02*
D03*
X142240Y240300D02*
D03*
Y242300D02*
D03*
X138684Y240300D02*
D03*
Y242300D02*
D03*
X295656Y240300D02*
D03*
Y242300D02*
D03*
X292100Y240300D02*
D03*
Y242300D02*
D03*
X191516Y240792D02*
D03*
Y242792D02*
D03*
X187452Y240792D02*
D03*
Y242792D02*
D03*
X185420Y233696D02*
D03*
Y235696D02*
D03*
X181356Y233696D02*
D03*
Y235696D02*
D03*
X258699Y289005D02*
D03*
Y291005D02*
D03*
X248031Y298803D02*
D03*
Y296803D02*
D03*
X174498Y137430D02*
D03*
Y139430D02*
D03*
X221818Y36338D02*
D03*
Y38338D02*
D03*
X212039Y63602D02*
D03*
Y65602D02*
D03*
X213141Y36744D02*
D03*
Y38744D02*
D03*
X209839Y36982D02*
D03*
Y38982D02*
D03*
X210347Y57032D02*
D03*
Y55032D02*
D03*
X250520Y34068D02*
D03*
Y36068D02*
D03*
X213157Y57286D02*
D03*
Y55286D02*
D03*
X231978Y33814D02*
D03*
Y35814D02*
D03*
D22*
X255116Y102616D02*
D03*
X253116D02*
D03*
X242554Y74676D02*
D03*
X240554D02*
D03*
X615934Y108469D02*
D03*
X613934D02*
D03*
X207756Y266192D02*
D03*
X205756D02*
D03*
X202284Y266192D02*
D03*
X200284D02*
D03*
X245856Y270764D02*
D03*
X243856D02*
D03*
X260080Y237744D02*
D03*
X258080D02*
D03*
X183996Y238252D02*
D03*
X181996D02*
D03*
X257064Y240792D02*
D03*
X259064D02*
D03*
X181848Y241554D02*
D03*
X179848D02*
D03*
X241324Y293891D02*
D03*
X239324D02*
D03*
X241513Y298438D02*
D03*
X239513D02*
D03*
X386445Y237744D02*
D03*
X384445D02*
D03*
X250614Y38728D02*
D03*
X252614D02*
D03*
X238042Y32782D02*
D03*
X236042D02*
D03*
X235788Y30496D02*
D03*
X237788D02*
D03*
X235904Y34814D02*
D03*
X237904D02*
D03*
X242300Y78994D02*
D03*
X240300D02*
D03*
X242300Y83312D02*
D03*
X240300D02*
D03*
X242300Y81026D02*
D03*
X240300D02*
D03*
X242300Y76962D02*
D03*
X240300D02*
D03*
X214106Y73660D02*
D03*
X212106D02*
D03*
X206010Y76708D02*
D03*
X208010D02*
D03*
X251444Y78994D02*
D03*
X249444D02*
D03*
X214106Y77978D02*
D03*
X212106D02*
D03*
X214106Y80010D02*
D03*
X212106D02*
D03*
X242554Y71628D02*
D03*
X240554D02*
D03*
X222869Y129642D02*
D03*
X220869D02*
D03*
X222869Y126086D02*
D03*
X220869D02*
D03*
X222869Y122276D02*
D03*
X220869D02*
D03*
X222869Y118466D02*
D03*
X220869D02*
D03*
X222869Y114656D02*
D03*
X220869D02*
D03*
X222869Y110846D02*
D03*
X220869D02*
D03*
X222869Y107036D02*
D03*
X220869D02*
D03*
X222869Y103226D02*
D03*
X220869D02*
D03*
X222869Y99416D02*
D03*
X220869D02*
D03*
X222869Y95606D02*
D03*
X220869D02*
D03*
X222996Y91796D02*
D03*
X220996D02*
D03*
X222996Y87884D02*
D03*
X220996D02*
D03*
X240014Y131318D02*
D03*
X238014D02*
D03*
X239760Y86766D02*
D03*
X237760D02*
D03*
X239744Y89916D02*
D03*
X237744D02*
D03*
X239760Y93218D02*
D03*
X237760D02*
D03*
X239760Y97180D02*
D03*
X237760D02*
D03*
X239887Y100990D02*
D03*
X237887D02*
D03*
X239887Y104800D02*
D03*
X237887D02*
D03*
X239887Y108610D02*
D03*
X237887D02*
D03*
X239887Y112420D02*
D03*
X237887D02*
D03*
X239887Y116230D02*
D03*
X237887D02*
D03*
X239887Y120040D02*
D03*
X237887D02*
D03*
X239887Y123850D02*
D03*
X237887D02*
D03*
X239887Y127660D02*
D03*
X237887D02*
D03*
X359394Y108215D02*
D03*
X357394D02*
D03*
X376920D02*
D03*
X374920D02*
D03*
X396097D02*
D03*
X394097D02*
D03*
X286861Y242570D02*
D03*
X284861D02*
D03*
X281019D02*
D03*
X279019D02*
D03*
X261544Y294222D02*
D03*
X259544D02*
D03*
X225358Y297981D02*
D03*
X223358D02*
D03*
X241589Y300648D02*
D03*
X239589D02*
D03*
X395827Y242316D02*
D03*
X393827D02*
D03*
X394573Y226943D02*
D03*
X392573D02*
D03*
X441436Y250057D02*
D03*
X439436D02*
D03*
X208375Y70109D02*
D03*
X206375D02*
D03*
X208010Y74422D02*
D03*
X206010D02*
D03*
X213750Y60604D02*
D03*
X211750D02*
D03*
D23*
X153419Y66675D02*
D03*
Y65405D02*
D03*
Y67945D02*
D03*
Y62865D02*
D03*
Y64135D02*
D03*
Y61595D02*
D03*
Y59055D02*
D03*
Y60325D02*
D03*
X144269Y62865D02*
D03*
Y64135D02*
D03*
Y67945D02*
D03*
Y65405D02*
D03*
Y66675D02*
D03*
Y59055D02*
D03*
Y60325D02*
D03*
Y61595D02*
D03*
X153419Y102489D02*
D03*
Y101219D02*
D03*
Y103759D02*
D03*
Y98679D02*
D03*
Y99949D02*
D03*
Y97409D02*
D03*
Y94869D02*
D03*
Y96139D02*
D03*
X144269Y98679D02*
D03*
Y99949D02*
D03*
Y103759D02*
D03*
Y101219D02*
D03*
Y102489D02*
D03*
Y94869D02*
D03*
Y96139D02*
D03*
Y97409D02*
D03*
D24*
X235200Y296497D02*
D03*
Y295847D02*
D03*
Y297147D02*
D03*
Y294547D02*
D03*
Y293897D02*
D03*
Y295197D02*
D03*
Y298447D02*
D03*
Y297797D02*
D03*
Y291947D02*
D03*
Y292597D02*
D03*
Y290647D02*
D03*
Y289997D02*
D03*
Y291297D02*
D03*
Y293247D02*
D03*
X228300Y294547D02*
D03*
Y293897D02*
D03*
Y295197D02*
D03*
Y297797D02*
D03*
Y298447D02*
D03*
Y296497D02*
D03*
Y295847D02*
D03*
Y297147D02*
D03*
Y290647D02*
D03*
Y291297D02*
D03*
Y289997D02*
D03*
Y293247D02*
D03*
Y291947D02*
D03*
Y292597D02*
D03*
D25*
X240792Y274574D02*
D03*
Y272034D02*
D03*
Y273304D02*
D03*
Y270764D02*
D03*
X235312D02*
D03*
Y273304D02*
D03*
Y274574D02*
D03*
Y272034D02*
D03*
D26*
X389288Y248660D02*
D03*
Y249930D02*
D03*
Y246120D02*
D03*
Y247390D02*
D03*
Y244850D02*
D03*
Y242310D02*
D03*
Y243580D02*
D03*
X383888Y246120D02*
D03*
Y249930D02*
D03*
Y247390D02*
D03*
Y248660D02*
D03*
Y242310D02*
D03*
Y243580D02*
D03*
Y244850D02*
D03*
D27*
X234124Y40574D02*
D03*
Y38674D02*
D03*
X231724Y39624D02*
D03*
Y40574D02*
D03*
Y38674D02*
D03*
X244380Y35011D02*
D03*
Y33111D02*
D03*
X241980Y34061D02*
D03*
Y35011D02*
D03*
Y33111D02*
D03*
D28*
X215173Y48920D02*
D03*
D29*
X213903D02*
D03*
X211363D02*
D03*
X212633D02*
D03*
X213903Y42316D02*
D03*
X215173D02*
D03*
X211363D02*
D03*
X212633D02*
D03*
X210093Y48920D02*
D03*
X207553D02*
D03*
X208823D02*
D03*
Y42316D02*
D03*
X210093D02*
D03*
X207553D02*
D03*
D30*
X235817Y80700D02*
D03*
Y81200D02*
D03*
Y79700D02*
D03*
Y80200D02*
D03*
Y81700D02*
D03*
Y82200D02*
D03*
Y77200D02*
D03*
Y77700D02*
D03*
Y76200D02*
D03*
Y76700D02*
D03*
Y78700D02*
D03*
Y79200D02*
D03*
Y78200D02*
D03*
Y73700D02*
D03*
Y74200D02*
D03*
Y75200D02*
D03*
Y75700D02*
D03*
Y74700D02*
D03*
Y71200D02*
D03*
Y71700D02*
D03*
Y70200D02*
D03*
Y70700D02*
D03*
Y72700D02*
D03*
Y73200D02*
D03*
Y72200D02*
D03*
X220367Y80200D02*
D03*
Y79200D02*
D03*
Y79700D02*
D03*
Y81700D02*
D03*
Y82200D02*
D03*
Y80700D02*
D03*
Y81200D02*
D03*
Y76700D02*
D03*
Y77200D02*
D03*
Y75700D02*
D03*
Y76200D02*
D03*
Y78200D02*
D03*
Y78700D02*
D03*
Y77700D02*
D03*
Y73700D02*
D03*
Y74200D02*
D03*
Y74700D02*
D03*
Y75200D02*
D03*
Y71200D02*
D03*
Y71700D02*
D03*
Y70200D02*
D03*
Y70700D02*
D03*
Y72700D02*
D03*
Y73200D02*
D03*
Y72200D02*
D03*
D31*
X234092Y83925D02*
D03*
X233592D02*
D03*
X229592D02*
D03*
X229092D02*
D03*
X230592D02*
D03*
X230092D02*
D03*
X227592D02*
D03*
X227092D02*
D03*
X228592D02*
D03*
X228092D02*
D03*
X232092D02*
D03*
X231592D02*
D03*
X233092D02*
D03*
X232592D02*
D03*
X231092D02*
D03*
X229592Y68475D02*
D03*
X229092D02*
D03*
X230592D02*
D03*
X230092D02*
D03*
X227592D02*
D03*
X227092D02*
D03*
X228592D02*
D03*
X228092D02*
D03*
X233092D02*
D03*
X232592D02*
D03*
X234092D02*
D03*
X233592D02*
D03*
X231592D02*
D03*
X231092D02*
D03*
X232092D02*
D03*
X224092Y83925D02*
D03*
X223592D02*
D03*
X225092D02*
D03*
X224592D02*
D03*
X222092D02*
D03*
X223092D02*
D03*
X222592D02*
D03*
X226092D02*
D03*
X225592D02*
D03*
X226592D02*
D03*
X223092Y68475D02*
D03*
X224092D02*
D03*
X223592D02*
D03*
X222592D02*
D03*
X222092D02*
D03*
X225592D02*
D03*
X225092D02*
D03*
X226592D02*
D03*
X226092D02*
D03*
X224592D02*
D03*
D32*
X323143Y180532D02*
D03*
Y181182D02*
D03*
Y178482D02*
D03*
X320493Y179132D02*
D03*
Y181182D02*
D03*
Y178482D02*
D03*
D33*
X428038Y224149D02*
D03*
D34*
X421338D02*
D03*
Y226449D02*
D03*
Y221849D02*
D03*
D35*
X416384Y220980D02*
D03*
X402004D02*
D03*
D36*
X271926Y298684D02*
D03*
Y289784D02*
D03*
X266476Y298684D02*
D03*
Y289784D02*
D03*
D37*
X266351Y293434D02*
D03*
Y294234D02*
D03*
Y295834D02*
D03*
Y295034D02*
D03*
Y292634D02*
D03*
D38*
X256396Y297143D02*
D03*
Y294603D02*
D03*
Y295873D02*
D03*
Y293333D02*
D03*
X251096Y294603D02*
D03*
Y297143D02*
D03*
Y295873D02*
D03*
Y293333D02*
D03*
D39*
X261406Y297524D02*
D03*
X259853D02*
D03*
D40*
X539369Y108203D02*
D03*
Y106703D02*
D03*
X533527Y108203D02*
D03*
Y106703D02*
D03*
X657987Y108203D02*
D03*
Y106703D02*
D03*
X652145Y108203D02*
D03*
Y106703D02*
D03*
X646303Y108203D02*
D03*
Y106703D02*
D03*
X669671Y108203D02*
D03*
Y106703D02*
D03*
X282194Y297918D02*
D03*
Y296418D02*
D03*
X276352Y297918D02*
D03*
Y296418D02*
D03*
D41*
X254750Y99568D02*
D03*
X253250D02*
D03*
D42*
X314055Y240417D02*
D03*
X197612Y240792D02*
D03*
X248920Y89408D02*
D03*
X422275Y247904D02*
D03*
D43*
X311765Y233217D02*
D03*
X316345D02*
D03*
X195322Y233592D02*
D03*
X199902D02*
D03*
X251210Y96608D02*
D03*
X246630D02*
D03*
X419985Y240704D02*
D03*
X424565D02*
D03*
D44*
X352679Y243209D02*
D03*
Y237359D02*
D03*
D45*
X246416Y65808D02*
D03*
Y74908D02*
D03*
X250916D02*
D03*
Y65808D02*
D03*
X202148Y70844D02*
D03*
Y61744D02*
D03*
X197648Y70844D02*
D03*
Y61744D02*
D03*
M02*
